<svg viewBox="0 0 330 200" xmlns="http://www.w3.org/2000/svg"><g><g><g><g><g><line x1="58.59375" y1="177" x2="53.59375" y2="177" style="visibility: inherit;" fill="rgb(0, 0, 0)" stroke="rgb(204, 204, 204)" stroke-width="1px"></line><line x1="58.59375" y1="159.3" x2="53.59375" y2="159.3" style="visibility: inherit;" fill="rgb(0, 0, 0)" stroke="rgb(204, 204, 204)" stroke-width="1px"></line><line x1="58.59375" y1="141.6" x2="53.59375" y2="141.6" style="visibility: inherit;" fill="rgb(0, 0, 0)" stroke="rgb(204, 204, 204)" stroke-width="1px"></line><line x1="58.59375" y1="123.89999999999999" x2="53.59375" y2="123.89999999999999" style="visibility: inherit;" fill="rgb(0, 0, 0)" stroke="rgb(204, 204, 204)" stroke-width="1px"></line><line x1="58.59375" y1="106.19999999999999" x2="53.59375" y2="106.19999999999999" style="visibility: inherit;" fill="rgb(0, 0, 0)" stroke="rgb(204, 204, 204)" stroke-width="1px"></line><line x1="58.59375" y1="88.49999999999999" x2="53.59375" y2="88.49999999999999" style="visibility: inherit;" fill="rgb(0, 0, 0)" stroke="rgb(204, 204, 204)" stroke-width="1px"></line><line x1="58.59375" y1="70.79999999999998" x2="53.59375" y2="70.79999999999998" style="visibility: inherit;" fill="rgb(0, 0, 0)" stroke="rgb(204, 204, 204)" stroke-width="1px"></line><line x1="58.59375" y1="53.099999999999994" x2="53.59375" y2="53.099999999999994" style="visibility: inherit;" fill="rgb(0, 0, 0)" stroke="rgb(204, 204, 204)" stroke-width="1px"></line><line x1="58.59375" y1="35.39999999999998" x2="53.59375" y2="35.39999999999998" style="visibility: inherit;" fill="rgb(0, 0, 0)" stroke="rgb(204, 204, 204)" stroke-width="1px"></line><line x1="58.59375" y1="17.69999999999996" x2="53.59375" y2="17.69999999999996" style="visibility: inherit;" fill="rgb(0, 0, 0)" stroke="rgb(204, 204, 204)" stroke-width="1px"></line><line x1="58.59375" y1="0" x2="53.59375" y2="0" style="visibility: inherit;" fill="rgb(0, 0, 0)" stroke="rgb(204, 204, 204)" stroke-width="1px"></line></g><g transform="translate(48.59375, 0)"><text x="0" y="177" dx="0em" dy="0.3em" style="text-anchor: end; visibility: hidden; font-family: &quot;Helvetica Neue&quot;, sans-serif; font-size: 12px; font-weight: 200;" fill="rgb(50, 49, 63)" stroke="none" stroke-width="1px">-2e-3</text><text x="0" y="159.3" dx="0em" dy="0.3em" style="text-anchor: end; visibility: inherit; font-family: &quot;Helvetica Neue&quot;, sans-serif; font-size: 12px; font-weight: 200;" fill="rgb(50, 49, 63)" stroke="none" stroke-width="1px">0</text><text x="0" y="141.6" dx="0em" dy="0.3em" style="text-anchor: end; visibility: hidden; font-family: &quot;Helvetica Neue&quot;, sans-serif; font-size: 12px; font-weight: 200;" fill="rgb(50, 49, 63)" stroke="none" stroke-width="1px">2e-3</text><text x="0" y="123.89999999999999" dx="0em" dy="0.3em" style="text-anchor: end; visibility: inherit; font-family: &quot;Helvetica Neue&quot;, sans-serif; font-size: 12px; font-weight: 200;" fill="rgb(50, 49, 63)" stroke="none" stroke-width="1px">4e-3</text><text x="0" y="106.19999999999999" dx="0em" dy="0.3em" style="text-anchor: end; visibility: hidden; font-family: &quot;Helvetica Neue&quot;, sans-serif; font-size: 12px; font-weight: 200;" fill="rgb(50, 49, 63)" stroke="none" stroke-width="1px">6e-3</text><text x="0" y="88.49999999999999" dx="0em" dy="0.3em" style="text-anchor: end; visibility: inherit; font-family: &quot;Helvetica Neue&quot;, sans-serif; font-size: 12px; font-weight: 200;" fill="rgb(50, 49, 63)" stroke="none" stroke-width="1px">8e-3</text><text x="0" y="70.79999999999998" dx="0em" dy="0.3em" style="text-anchor: end; visibility: hidden; font-family: &quot;Helvetica Neue&quot;, sans-serif; font-size: 12px; font-weight: 200;" fill="rgb(50, 49, 63)" stroke="none" stroke-width="1px">0.01</text><text x="0" y="53.099999999999994" dx="0em" dy="0.3em" style="text-anchor: end; visibility: inherit; font-family: &quot;Helvetica Neue&quot;, sans-serif; font-size: 12px; font-weight: 200;" fill="rgb(50, 49, 63)" stroke="none" stroke-width="1px">0.012</text><text x="0" y="35.39999999999998" dx="0em" dy="0.3em" style="text-anchor: end; visibility: hidden; font-family: &quot;Helvetica Neue&quot;, sans-serif; font-size: 12px; font-weight: 200;" fill="rgb(50, 49, 63)" stroke="none" stroke-width="1px">0.014</text><text x="0" y="17.69999999999996" dx="0em" dy="0.3em" style="text-anchor: end; visibility: inherit; font-family: &quot;Helvetica Neue&quot;, sans-serif; font-size: 12px; font-weight: 200;" fill="rgb(50, 49, 63)" stroke="none" stroke-width="1px">0.016</text><text x="0" y="0" dx="0em" dy="0.3em" style="text-anchor: end; visibility: hidden; font-family: &quot;Helvetica Neue&quot;, sans-serif; font-size: 12px; font-weight: 200;" fill="rgb(50, 49, 63)" stroke="none" stroke-width="1px">0.018</text></g><line x1="58.59375" y1="0" x2="58.59375" y2="177" fill="rgb(0, 0, 0)" stroke="rgb(204, 204, 204)" stroke-width="1px"></line></g></g><g transform="translate(58, 0)" clip-path="url(#clip_0)"><clipPath id="clip_0"><rect width="271" height="177"></rect></clipPath><g><g><g><line x1="0" y1="0" x2="0" y2="177" fill="rgb(0, 0, 0)" stroke="rgb(60, 60, 60)" stroke-width="1px" opacity="0.25"></line><line x1="30.15625" y1="0" x2="30.15625" y2="177" fill="rgb(0, 0, 0)" stroke="rgb(60, 60, 60)" stroke-width="1px" opacity="0.25"></line><line x1="60.3125" y1="0" x2="60.3125" y2="177" fill="rgb(0, 0, 0)" stroke="rgb(60, 60, 60)" stroke-width="1px" opacity="0.25"></line><line x1="90.46875" y1="0" x2="90.46875" y2="177" fill="rgb(0, 0, 0)" stroke="rgb(60, 60, 60)" stroke-width="1px" opacity="0.25"></line><line x1="120.625" y1="0" x2="120.625" y2="177" fill="rgb(0, 0, 0)" stroke="rgb(60, 60, 60)" stroke-width="1px" opacity="0.25"></line><line x1="150.78125" y1="0" x2="150.78125" y2="177" fill="rgb(0, 0, 0)" stroke="rgb(60, 60, 60)" stroke-width="1px" opacity="0.25"></line><line x1="180.9375" y1="0" x2="180.9375" y2="177" fill="rgb(0, 0, 0)" stroke="rgb(60, 60, 60)" stroke-width="1px" opacity="0.25"></line><line x1="211.09375" y1="0" x2="211.09375" y2="177" fill="rgb(0, 0, 0)" stroke="rgb(60, 60, 60)" stroke-width="1px" opacity="0.25"></line><line x1="241.25" y1="0" x2="241.25" y2="177" fill="rgb(0, 0, 0)" stroke="rgb(60, 60, 60)" stroke-width="1px" opacity="0.25"></line><line x1="271.40625" y1="0" x2="271.40625" y2="177" fill="rgb(0, 0, 0)" stroke="rgb(60, 60, 60)" stroke-width="1px" opacity="0.25"></line></g><g><line x1="0" y1="177" x2="271.40625" y2="177" fill="rgb(0, 0, 0)" stroke="rgb(60, 60, 60)" stroke-width="1px" opacity="0.25"></line><line x1="0" y1="159.3" x2="271.40625" y2="159.3" fill="rgb(0, 0, 0)" stroke="rgb(60, 60, 60)" stroke-width="1px" opacity="0.25"></line><line x1="0" y1="141.6" x2="271.40625" y2="141.6" fill="rgb(0, 0, 0)" stroke="rgb(60, 60, 60)" stroke-width="1px" opacity="0.25"></line><line x1="0" y1="123.89999999999999" x2="271.40625" y2="123.89999999999999" fill="rgb(0, 0, 0)" stroke="rgb(60, 60, 60)" stroke-width="1px" opacity="0.25"></line><line x1="0" y1="106.19999999999999" x2="271.40625" y2="106.19999999999999" fill="rgb(0, 0, 0)" stroke="rgb(60, 60, 60)" stroke-width="1px" opacity="0.25"></line><line x1="0" y1="88.49999999999999" x2="271.40625" y2="88.49999999999999" fill="rgb(0, 0, 0)" stroke="rgb(60, 60, 60)" stroke-width="1px" opacity="0.25"></line><line x1="0" y1="70.79999999999998" x2="271.40625" y2="70.79999999999998" fill="rgb(0, 0, 0)" stroke="rgb(60, 60, 60)" stroke-width="1px" opacity="0.25"></line><line x1="0" y1="53.099999999999994" x2="271.40625" y2="53.099999999999994" fill="rgb(0, 0, 0)" stroke="rgb(60, 60, 60)" stroke-width="1px" opacity="0.25"></line><line x1="0" y1="35.39999999999998" x2="271.40625" y2="35.39999999999998" fill="rgb(0, 0, 0)" stroke="rgb(60, 60, 60)" stroke-width="1px" opacity="0.25"></line><line x1="0" y1="17.69999999999996" x2="271.40625" y2="17.69999999999996" fill="rgb(0, 0, 0)" stroke="rgb(60, 60, 60)" stroke-width="1px" opacity="0.25"></line><line x1="0" y1="0" x2="271.40625" y2="0" fill="rgb(0, 0, 0)" stroke="rgb(60, 60, 60)" stroke-width="1px" opacity="0.25"></line></g></g></g><g><g><line x1="0" y1="159.3" x2="271.40625" y2="159.3" fill="rgb(0, 0, 0)" stroke="rgb(153, 153, 153)" stroke-width="1.5px"></line></g></g><g><g><line x1="30.15625" y1="0" x2="30.15625" y2="177" fill="rgb(0, 0, 0)" stroke="rgb(153, 153, 153)" stroke-width="1.5px"></line></g></g><g><g><g><g><g><path stroke="rgb(187, 187, 187)" stroke-width="2px" d="M30.285921875,26.631543099135115L30.442734375,26.693179336795538L30.662875,26.782678221576646L30.849843749999998,26.876199463698725L30.864921875,26.928012230977828L30.928250000000002,26.97310532748125L30.982531249999997,27.012824900603334L31.088078125000003,27.062936218400523L31.094109375,27.093990856247444L31.118234375,27.118528609772227L31.588671875,27.251921820660982L31.775640625,27.37878326769635L31.905312499999997,27.48738187625679L31.926421875000003,27.5577656364824L32.071171875,27.63638846810707L32.110375000000005,27.693402257828836L32.312421875,27.778433571994555L32.336546874999996,27.83551332415408L32.577796875000004,27.930446868694247L32.595890625,27.991953156359102L32.680328124999996,28.050097765878974L33.217109375,28.220009291273442L33.373921875,28.36140227883152L33.488515625000005,28.475062131882254L33.717703125,28.600910436971873L33.961968750000004,28.73786328408562L34.127828125,28.861756926164702L34.136874999999996,28.938367880175292L34.17909375,28.99495368303016L34.19115625,29.031941580313656L34.33590625,29.090545082139897L34.357015625,29.131018455446963L34.489703125000005,29.188676814580248L34.839515625,29.311268905989607L35.2586875,29.490265037777846L35.388359375,29.63028206487644L35.397406249999996,29.716567128746107L35.720078125,29.84950410287172L35.81959375,29.954299511461045L35.94021875,30.047521257643496L36.0306875,30.126209384262864L36.299078125,30.24093580806428L36.480015625,30.355285117147616L36.790625000000006,30.502027507073194L36.980609375,30.637864541244625L37.1163125,30.753502677079553L37.36359375,30.88508782965232L37.505328125,30.999691402213074L37.55659375,31.081347650914267L37.562625,31.131861262696674L37.65309375,31.184924508737396L37.656109375,31.217520739201944L37.692296875,31.246181168445503L37.707375,31.267172137074823L37.794828124999995,31.30176351438351L38.25621875,31.438581771674137L38.422078125,31.5623947666719L39.106624999999994,31.80887540916413L39.320734375,32.01062495449071L39.69165625,32.22497643985679L39.899734375,32.40592862834532L39.947984375000004,32.52663906064629L39.951,32.59982360286713L40.12590625,32.68773121734381L40.653640625,32.8732247363026L41.069796875,33.08920344221562L41.075828125,33.220310528325854L41.226609375,33.336902109532275L41.44071875,33.46071492120544L41.660859375,33.59038033372113L41.68196875,33.67348756111235L42.004640625,33.804521130273145L42.089078125,33.90437978506051L42.330328125,34.02498068332653L42.517296875,34.144371242791294L42.812828124999996,34.29034696875206L42.921390625,34.405240477223344L43.177718750000004,34.53865699878284L43.428015625,34.68166746563281L43.705453125,34.83726214210134L43.75671875,34.94351305314859L44.224140625000004,35.12484359636281L44.236203124999996,35.23667505365236L44.260328124999994,35.30984348763002L44.598078125,35.438705194943964L44.640296875,35.52664147597778L44.917734375,35.64919164095659L45.1499375,35.78113259681663L45.557046875000005,35.96270491634965L45.641484375,36.092886821360366L46.277781250000004,36.33105628441626L46.32,36.48457721889528L46.503953124999995,36.62296151724763L46.89296875,36.80384684835258L47.285000000000004,37.0109943788313L47.41768750000001,37.168660529617256L47.674015625,37.32773733968361L47.842890625,37.465663749187144L47.864,37.55373087165293L47.9725625,37.633879218027204L48.222859375,37.74492877976607L48.856140625,37.9708572571368L48.9134375,38.12082831128777L49.12453125,38.263910523887546L49.386890625,38.415756833604604L49.821140625,38.6160969110141L49.983984375,38.77726471524295L50.0714375,38.895965490793316L50.3609375,39.040007483843056L50.397124999999996,39.1355353706378L50.828359375,39.30132940833559L51.166109375000005,39.48576318099967L51.612421875,39.70869216442031L51.7360625,39.87355233845068L52.420609375000005,40.14466458524436L52.655828125,40.36650107303362L52.664874999999995,40.501877814227925L52.710109375,40.59448139843022L52.809625,40.67507677332566L53.644953125,40.93355747017861L53.675109375000005,41.09623201357485L53.78065625,41.22038652966714L54.257125,41.414734084429085L54.483296875,41.58823690847859L54.827078125,41.77881581551611L54.95071875,41.924262646834734L55.3789375,42.11924976840655L55.394015625,42.2400334555509L55.421156249999996,42.3193315102817L55.786046875000004,42.458698832491706L55.816203125,42.54990205422024L56.09665625,42.67517396333801L56.931984375,42.9604605807244L57.019437499999995,43.153629347287364L57.082765625,43.285461140634254L57.103875,43.369871493406066L57.27878125,43.46451459421334L58.083953125,43.72383780132898L58.6116875,44.01218397275309L58.711203125,44.21022160309971L58.970546875,44.394282880624644L59.00975,44.5145806209448L59.281156249999995,44.65503109581488L59.350515625,44.75674847982654L59.404796875,44.83143459512189L59.842062500000004,44.98623683871861L60.0350625,45.127668067944256L60.568828125,45.34679232143296L61.147828125,45.623913225847076L61.168937500000006,45.795497045259225L61.51875,45.98644111519488L61.760000000000005,46.16169326254982L61.889671875000005,46.29946390062128L62.146,46.44660340305896L62.239484375,46.558403763215125L62.287734375,46.63761980163474L62.459624999999996,46.72838803099049L62.598343750000005,46.817743166783174L62.601359375,46.872114531099015L62.667703124999996,46.9214261659379L62.85165625,46.997288181388086L62.878796875000006,47.0496299362205L63.035609375,47.12048218122257L63.044656249999996,47.165268376744564L63.15925,47.22096802951501L63.228609375,47.27183492026688L63.252734374999996,47.308421317440036L63.391453125,47.36526735392317L63.638734375,47.46158054376903L63.69603125,47.533779128523236L63.928234375,47.635509136248544L64.59468749999999,47.864190289335795L64.754515625,48.04160445613104L64.814828125,48.16322520677707L64.90831250000001,48.25971101897633L64.935453125,48.324430348740066L65.03798437500001,48.38905345381261L65.28526562500001,48.49002958793022L65.39684375,48.578684921017725L65.62,48.68801083234038L65.96378125,48.84008359174183L66.25328125,49.004148775102195L66.268359375,49.10638259620157L66.376921875,49.19503096175603L66.762921875,49.34531645034201L66.841328125,49.455209691103974L66.901640625,49.53631788613002L67.221296875,49.665393753031495L67.56809375,49.83007476862049L67.727921875,49.969085556034884L68.37025,50.21406891421357L68.99146875,50.51732453808711L69.1784375,50.74630793291642L69.41365625,50.942867109527086L69.46492187499999,51.07370001754157L69.54634375,51.17267999280091L69.609671875,51.24799851136561L69.645859375,51.30229231346938L69.69109375,51.346246134217324L70.574671875,51.59488101778969L70.586734375,51.7470950792941L70.882265625,51.91276490647867L71.008921875,52.04402457272572L71.16271875,52.16146928173637L71.232078125,52.249383206232395L71.41000000000001,52.346886732914456L71.805046875,52.50476346357965L72.028203125,52.65562221344888L72.619265625,52.894816947052334L73.04446875000001,53.14529452715483L73.2435,53.345644227082516L73.26460937499999,53.47116532380281L73.34301562499999,53.56619992944536L73.39729687500001,53.63687637771926L73.57521874999999,53.72403741866803L73.726,53.81426137277754L74.283890625,54.00873411768241L74.301984375,54.12996746166682L74.392453125,54.22546584391077L74.41959375,54.289589418819446L74.44975,54.335649689049035L74.7271875,54.43307424754529L74.75432812499999,54.49835682508724L74.81765625,54.553456905021534L75.01065625,54.63506683604972L75.067953125,54.69844346551332L75.66504687499999,54.88666878943582L75.936453125,55.067872517585386L76.195796875,55.24183345379211L76.370703125,55.39020690466033L76.82003125,55.59225797784367L76.8260625,55.71500518743419L76.92256250000001,55.81292845472228L77.016046875,55.8951990737887L77.625203125,56.0977939228339L77.697578125,56.2375562141909L77.890578125,56.3699601751908L78.38815625,56.574568673661005L78.69575,56.774708294386045L78.759078125,56.91071930334829L79.16015625,57.09321708906211L79.37728125,57.25733190628003L79.443625,57.372489612860136L79.633609375,57.48937583703557L79.93215625,57.63460394778107L80.51115625,57.86738716654929L80.84890625,58.092017744737575L80.99365625,58.26320685551029L81.1203125,58.397781388792154L81.623921875,58.60520879631207L81.71740625000001,58.75317860263564L82.145625,58.94967950921044L82.305453125,59.10778223121633L82.38084375,59.221610826071924L82.4471875,59.30659350235271L82.763828125,59.4372357751668L83.062375,59.59071751509548L83.10459375,59.69342911258006L83.19204687499999,59.77705286720193L83.216171875,59.83329667957899L83.303625,59.88903976313638L83.602171875,59.99758528639295L84.29878124999999,60.23794187408339L84.494796875,60.43146399260549L84.63653124999999,60.583229744738276L85.23664062499999,60.8252435282206L85.399484375,61.01141555609318L85.8005625,61.2240099531532L85.803578125,61.35232487422947L86.225765625,61.535512987093455L86.61176562499999,61.74252232406516L86.98871875,61.961549546980734L87.32948437499999,62.178684810497685L87.805953125,62.42882081371445L87.96578125,62.61910789058743L88.273375,62.81065465835415L89.0574375,63.122808788881784L89.386140625,63.39278706560498L89.428359375,63.565393288284326L89.6605625,63.72736787876474L89.67865625,63.829102330094486L90.00735937500001,63.97282879929895L90.284796875,64.12885307718011L90.4566875,64.26570625021274L90.5773125,64.37815935828814L90.63159375000001,64.45928690802174L90.6496875,64.51251643178531L90.65873437500001,64.54672899456422L90.887921875,64.6249058093822L90.8909375,64.67257347799514L91.03267187499999,64.73682656018241L91.12615625,64.7988917713064L91.207578125,64.85661442531335L91.216625,64.89352286623829L91.23170312500001,64.9194593449945L91.44581249999999,64.9888823920795L91.62675,65.07604967515522L91.798640625,65.17158865130453L91.93434375,65.26304795233314L92.05798437499999,65.34902302004637L92.09718749999999,65.41047233136142L92.10020312500001,65.4481002009907L92.166546875,65.48736573901763L92.214796875,65.52306088415975L92.612859375,65.64461086874124L92.82093750000001,65.769882156759L92.82998437500001,65.84731977809041L92.833,65.8945406337295L92.97775,65.95928391097272L93.05012500000001,66.0163352592485L93.728640625,66.22124564490896L93.921640625,66.39274175937283L94.11765625000001,66.5449442970771L94.187015625,66.65371291878927L94.440328125,66.78269622545305L94.44937499999999,66.8623610579721L94.464453125,66.91395137168476L94.6665,66.99573029150073L94.72078124999999,67.05845332827867L94.946953125,67.15297814465583L95.06456250000001,67.23927925277961L95.54103125,67.41091476276046L95.8848125,67.60037328135685L95.96321875,67.73377034012505L96.02654687500001,67.8297391087951L96.044640625,67.89187006703862L96.52110937500001,68.04900348709135L97.24184375,68.32458237246337L97.38357812500001,68.52558218470611L97.49817187500001,68.67500671062707L97.582609375,68.78590323635244L97.92639062500001,68.93891836439553L98.14351562499999,69.085343587011L98.41793750000001,69.2422288340985L98.80996875,69.43497301728483L99.036140625,69.60751381838892L99.307546875,69.77931012972932L99.934796875,70.04017009118046L99.964953125,70.20427219333557L100.067484375,70.32852496184293L100.097640625,70.41066274823177L100.176046875,70.47966736767548L100.31174999999999,70.5552060546807L100.381109375,70.61797636597343L100.60728125,70.71253284394136L100.80631249999999,70.81932988258832L101.147078125,70.96912703554413L101.29484375,71.09617767089951L101.53910937500001,71.23385204034655L101.57228125,71.32480107013946L101.63259375,71.39453944170215L102.347296875,71.61616473229968L102.7725,71.85609734971668L102.890109375,72.02964313846435L102.9775625,72.15576740784408L103.239921875,72.29743895162918L103.384671875,72.41885264175997L103.39070312499999,72.49321742151895L103.505296875,72.56666422483156L103.57465624999999,72.62817940590878L104.21396874999999,72.82590382056294L104.40696875,72.99308835242304L104.7025,73.16773716493913L104.72662500000001,73.2785960120527L105.25134374999999,73.47710198775339L105.350859375,73.62123879754786L105.574015625,73.76385689177658L105.691625,73.8790106697294L105.95096875,74.01334163581805L106.24650000000001,74.16827830887124L106.28570312500001,74.27110128650834L106.31284375,74.33962291553478L106.551078125,74.44066331550394L106.729,74.5460427274699L107.07278124999999,74.6957475872573L107.118015625,74.79695133949738L107.35625,74.9176010133947L107.618609375,75.05598450300842L107.99857812500001,75.23459450034944L108.104125,75.36831028880864L108.32728125,75.50467577023618L108.76454687500001,75.6964856335122L108.8399375,75.83053851312985L109.0329375,75.95951682708615L109.07515625,76.04752307210536L109.446078125,76.19363187416894L109.47925000000001,76.28964156353177L109.7808125,76.42310533311188L109.982859375,76.5540083264483L110.58598437500001,76.7842627374931L110.96896875,77.01875357053301L110.971984375,77.16020635319721L111.0594375,77.2670781158088L111.06546875,77.33271773905625L111.364015625,77.44720118612686L112.009359375,77.67822642293952L112.02745312500001,77.82139126206866L112.045546875,77.91184315946956L112.057609375,77.96914742927109L112.060625,78.00428827399226L112.40742187500001,78.11260827627308L113.10403125,78.35282955137805L113.3995625,78.57130370672292L113.42971874999999,78.70997432521432L113.450828125,78.79848467619088L113.50510937499999,78.86524657166521L113.8096875,78.98191994775246L114.06903125,79.11715937583988L114.343453125,79.26733314621058L114.349484375,79.35895397411349L114.445984375,79.43820141238905L114.50026562500001,79.49940556024274L115.3536875,79.75080451479411L115.56478125000001,79.95474346763406L115.917609375,80.16585890046665L115.9568125,80.30238913397137L116.23425,80.45409567043271L116.321703125,80.56711968532255L116.43931250000001,80.66451701567203L117.521921875,80.99528445375338L117.600328125,81.2134668642126L117.666671875,81.36106512673751L117.72396875,81.46403475509914L117.799359375,81.54478349376816L117.847609375,81.60536855929553L118.21853125,81.73502465366398L118.4055,81.85984833079026L119.03275000000001,82.09252471171287L119.053859375,82.23744181703012L119.081,82.33121992266463L119.23178125,82.4254141155856L119.30415625,82.50013601326808L119.4549375,82.5828997782997L119.86506250000001,82.7357240661759L120.109328125,82.88886262713545L120.11234375,82.98150404655142L120.628015625,83.1668047171128L120.64309375,83.28177653365087L120.72149999999999,83.3704815711841L120.905453125,83.4699796282509L121.152734375,83.59188073356502L121.3608125,83.71736269402236L121.484453125,83.82375465427477L121.614125,83.92020588320278L122.0121875,84.0782095180558L122.045359375,84.18135610709231L122.473578125,84.35095978641294L122.757046875,84.52403025292625L122.799265625,84.63849178947966L122.85354687499999,84.72082109941817L123.96028125,85.04861398797499L124.86798437499999,85.47362187183657L124.9795625,85.7566929578886L125.742515625,86.11845369950565L126.080265625,86.42047079140325L126.27628125,86.65098921244967L126.297390625,86.79460824495926L126.32151562499999,86.88684922406897L126.46626562499999,86.97860457539454L126.49340625,87.04048562863404L126.671328125,87.1223694325622L126.71053125,87.18136068872428L127.183984375,87.33585200468787L127.2835,87.45358001864007L127.41015625,87.55607789382965L127.9710625,87.75866997734089L128.293734375,87.9613911632918L128.5018125,88.1353651721312L128.64053125,88.2746437756141L128.78829687500001,88.39538328128576L128.957171875,88.51030730815242L129.355234375,88.67939132488672L129.379359375,88.78691129453125L129.680921875,88.92728123228038L129.717109375,89.0206058858948L129.77742187500002,89.0917696317504L130.133265625,89.22398152011455L130.2146875,89.32378888358366L130.22071875,89.38518986734563L130.492125,89.49030228828082L130.70321875,89.60646932095104L130.80575000000002,89.70196104776745L130.8901875,89.78049789403012L131.3003125,89.93078603064494L131.57775,90.09074566053138L131.870265625,90.26030289746394L131.89740625,90.36886508206767L131.93359375,90.44310508379483L131.990890625,90.5020614041188L132.04215625,90.55033094992035L132.205,90.62025643518442L132.2411875,90.67131441730781L132.316578125,90.72091287135197L132.42815625,90.77873994795448L132.74178125,90.89232728123942L132.799078125,90.97489200049806L132.95890624999998,91.06463465855518L133.11571874999998,91.15792579705118L133.782171875,91.38154527704178L133.84550000000002,91.53164749844527L134.011359375,91.66342922346982L134.27371875,91.80849524064179L134.276734375,91.8962931337852L134.391328125,91.97779650824658L134.49687500000002,92.05324997141892L135.05175,92.2380988420393L135.338234375,92.42107140929079L136.0529375,92.71063721730158L136.23990625,92.93140837105419L136.472109375,93.12228027173761L136.71034375,93.29673083470097L136.773671875,93.41733170588809L136.797796875,93.49576013976333L136.84303125,93.55419638801514L137.15665625,93.66814922428964L137.1626875,93.73803749173486L137.43409375000002,93.84824228287995L138.03118750000002,94.0645628553704L138.052296875,94.19966482718739L138.25132812500001,94.3307924590257L138.26640625000002,94.41326045232994L138.58003125000002,94.54163398407685L138.63129687499998,94.63155385673218L138.83334374999998,94.73632886347278L139.46360937499998,94.95773597344518L139.511859375,95.10271771019555L139.5510625,95.19956772605094L139.656609375,95.28422752561873L139.735015625,95.35474700141076L140.43765625,95.57380452630294L140.61859375,95.7507541445039L140.70906250000002,95.87968064283682L140.766359375,95.9714505095652L141.03475,96.09402432899898L141.16442187500002,96.20018797031774L141.1915625,96.27071234911224L141.28504687499998,96.33654363508249L141.4569375,96.41928101296855L141.89721874999998,96.57967394540091L142.24703125,96.76390513158965L142.346546875,96.89947541923597L143.1095,97.1727373302506L143.21203125,97.36248598407367L144.041328125,97.68494208260273L144.379078125,97.96337474020656L145.33201562500003,98.37014402498207L145.497875,98.65592598802985L145.543109375,98.83877435378515L145.85371874999998,99.02661617772152L146.076875,99.19545563199443L146.125125,99.30889677532507L146.158296875,99.38530586944813L146.26082812500002,99.45694283313628L146.502078125,99.56061071674273L146.68603124999998,99.66908318457153L146.68904687499997,99.73492494810907L146.863953125,99.81842854381674L146.92426562499998,99.88370130336924L147.0539375,99.95548430875922L147.286140625,100.05696332042507L147.71134375,100.22480981892403L147.78371875,100.34372309995325L148.19384374999998,100.51823709742803L148.48334375,100.69576867207336L148.661265625,100.84704278884499L148.6944375,100.94615166703265L149.550875,101.22105174262465L149.885609375,101.470192503626L149.970046875,101.64091712195862L150.12384375000002,101.78203915377968L150.41635937499998,101.94029383187302L150.50984375000002,102.05876164898162L150.52492187500002,102.13363540188898L150.5761875,102.19145540724055L150.844578125,102.29366095828924L151.676890625,102.56434947799391L152.255890625,102.87240894213765L152.292078125,103.06634731158881L152.735375,103.29421912180047L152.76553124999998,103.43852833321189L152.783625,103.52966520554122L152.7956875,103.58738210874078L152.889171875,103.64552726091313L152.895203125,103.68193256633798L152.937421875,103.71439500623835L152.955515625,103.73842381566101L153.17565625,103.80821717838545L153.92051562499998,104.0374599405235L154.185890625,104.2417608628038L154.264296875,104.38406336378237L154.53570312500003,104.5377166950475L154.61712500000002,104.65039057269817L154.82821875,104.77109447939768L155.03328125,104.895099837846L155.2805625,105.03170532398906L155.4253125,105.15008102797559L155.4735625,105.23324227269346L156.152078125,105.45381859621915L156.42649999999998,105.6551945038528L156.833609375,105.878426146009L156.85471875,106.01767640806641L157.219609375,106.19301340623144L157.291984375,106.31642098706033L157.36435937500002,106.40867091748753L157.551328125,106.51105254469L157.8378125,106.64454641433169L158.172546875,106.80884345176284L158.226828125,106.92107571066894L158.86010937499998,107.14771545478094L159.155640625,107.35803904308906L159.62306249999997,107.60181154421883L159.722578125,107.77310826927076L159.77384375,107.88878205790907L159.891453125,107.98777090094858L160.669484375,108.24287535940034L161.260546875,108.54461751815333L161.39323437500002,108.75904044590385L161.49878125,108.91424399260873L161.58925,109.030122848044L161.661625,109.117857191676L161.758125,109.19477109094804L161.97525,109.29553722474185L162.05667187499998,109.37647878390972L162.06873437500002,109.42807685077145L162.11396875,109.47041487881513L162.192375,109.51553964325173L162.25871874999999,109.55930331816305L162.774390625,109.71527734202164L162.786453125,109.81189653613876L162.82565625,109.87972902641421L163.06690625000002,109.98111422597303L163.07896875,110.0449801255103L163.18753124999998,110.11060773812747L163.449890625,110.21597963941404L163.471,110.28451405694967L163.6036875,110.35901069152882L163.763515625,110.44391414721925L163.881125,110.52443914204906L164.35759375,110.69260898405355L164.61090625,110.85723137445176L164.613921875,110.95676309153095L164.79184375,111.06123729376287L165.04515625000002,111.18764230029757L165.26529687500002,111.3188613812892L165.307515625,111.40821208652963L165.753828125,111.57409122949605L165.844296875,111.69637544268825L166.02221875,111.81450279102896L166.17601562500002,111.92406646085485L166.79723437500002,112.14607027171674L166.824375,112.2860987522371L166.984203125,112.41032131549221L167.3913125,112.58726095102132L167.499875,112.72073445367455L167.846671875,112.88805405071462L168.1874375,113.0741630902653L168.3925,113.23741152842432L168.498046875,113.36191038137429L168.950390625,113.5503966270879L168.97753125,113.6703145685193L169.05895312500002,113.76274721226972L169.149421875,113.84096352593232L169.251953125,113.91368482134419L169.38765625,113.99145351393028L169.49621875,114.06542280237679L169.83698437500001,114.19552330521228L169.88523437499998,114.28572107768046L170.07220312500002,114.38687141010755L170.12346874999997,114.46045736317093L170.3828125,114.569845985885L170.976890625,114.78491692603559L171.133703125,114.95340668222863L172.49073437500002,115.39585639245246L172.62040625,115.69394556824525L172.780234375,115.91300290022289L172.80134375,116.0497469277322L172.86165624999998,116.14696559480664L172.9400625,116.22501874266169L173.21146875,116.3401224620527L173.36828125,116.44863023734904L173.54921875000002,116.55925000579248L173.570328125,116.63093149518126L173.65778125,116.6959388333866L173.817609375,116.7751470628118L173.829671875,116.82570678026887L173.868875,116.8659035845483L173.91109375,116.90064257220236L173.98346875,116.93969134672466L174.01965625,116.972223302403L174.11615625,117.01601741734379L174.137265625,117.04760351463099L174.17948437500002,117.07717442964875L174.52025,117.18063590842702L174.553421875,117.25105720381868L174.571515625,117.29786132653612L174.69515625000003,117.35704493570363L174.70721875,117.39558988100609L174.7494375,117.429336104833L174.818796875,117.46703093821878L175.13845312499998,117.57005713969514L175.45509375,117.71152223074463L175.50334375,117.80853875614122L175.59381249999998,117.88950539879153L176.17884375,118.08524830238312L176.459296875,118.27324237217778L176.483421875,118.39210672521753L176.809109375,118.54535120416678L176.869421875,118.65246849366424L177.45445312500001,118.86390178536413L177.870609375,119.09544600336277L178.745140625,119.45435697988285L178.907984375,119.71066732357806L178.983375,119.88341719456534L179.36334375,120.08264702073049L179.60760937499998,120.26362890466339L179.7915625,120.41849142112902L179.848859375,120.52582125029606L180.02678125,120.63497596822168L180.61482812499997,120.84838999981872L180.958609375,121.06291563138478L181.109390625,121.22955998830565L181.38984375,121.40009328165691L181.43809374999998,121.51455072843456L181.5285625,121.6059819239135L181.748703125,121.7162167182717L182.092484375,121.86883480749447L182.357859375,122.02715927758467L182.562921875,122.1737369740674L182.83734375,122.33071370547526L182.843375,122.42641631000049L182.86146875,122.48838921819811L183.4103125,122.66363319015315L183.89281250000002,122.89015098411328L184.001375,123.05337138182512L184.34817187500002,123.23853911590034L184.360234375,123.35267288770649L184.64068749999998,123.49170147842986L184.806546875,123.61683902504635L184.987484375,123.7374366562819L185.27396875000002,123.88185847990246L186.217859375,124.20594476732632L186.350546875,124.43377417227936L186.362609375,124.57350577083267L186.386734375,124.6634134653481L186.833046875,124.82962680187953L186.97478125,124.96500728481789L187.1738125,125.09630119910854L187.17984375,125.1765949375839L187.68646875,125.35221132683968L187.852328125,125.4993023767961L187.93676562500002,125.60879716850178L188.03628125,125.69952726789924L188.10865625,125.7721707094676L188.1388125,125.82334207547258L188.509734375,125.94734912590712L188.564015625,126.03540821683575L188.90478124999998,126.17396177694003L189.028421875,126.28819587276013L189.39029687500002,126.44776488834249L189.703921875,126.62239738501535L189.8034375,126.75221010739313L189.9964375,126.87864597544643L190.02659375,126.96209362156284L190.26482812499998,127.07208880756554L190.31006250000002,127.14946510709379L190.42164062499998,127.2239572425458L191.19665625000002,127.46360539360481L191.22078125000002,127.61346301962368L191.398703125,127.74813359143992L191.44092187500002,127.83955601539557L191.941515625,128.02033222603853L192.11642187500001,128.17279484156853L192.13753125,128.2695828634297L192.14959375,128.33068963212787L192.16165625,128.37038847314875L192.58685937500002,128.50116604504026L192.686375,128.60466498832872L192.71954687500002,128.6751087624265L193.072375,128.80612791223425L193.220140625,128.92190927303938L193.265375,129.00275727744912L193.328703125,129.0671957892836L193.37393749999998,129.11723726009046L193.72978125,129.2367741349844L194.112765625,129.4048344463338L194.40829687500002,129.58001037498443L194.77921875,129.77842016300636L194.88778125,129.92477493293478L194.954125,130.02927661114123L195.0868125,130.12535442634336L195.17125000000001,130.20424127719647L195.436625,130.31832782848534L195.82865625,130.48539361841296L195.964359375,130.61976900770853L196.60065625000001,130.8604529128944L196.9203125,131.08527173323034L196.929359375,131.22243869817316L197.007765625,131.3244616489697L197.10125,131.4091912539207L197.641046875,131.59581357118654L197.65612499999997,131.7115791999678L197.68025,131.78710731261998L198.16878125,131.95531298089938L198.32860937499998,132.09644103258947L198.41606249999998,132.20311630817562L198.642234375,132.32401411627865L198.9226875,132.4671003045597L198.931734375,132.55522769026953L199.3086875,132.70292491820751L199.951015625,132.95311931647984L200.05053125,133.12826835559684L200.1771875,133.2652180216648L200.2736875,133.37166193861887L200.33701562500002,133.45145882220044L200.5631875,133.55622959510072L200.60540625,133.6297121397068L200.62651562500002,133.6791112947932L200.867765625,133.76943649323857L201.4075625,133.95941616660105L201.507078125,134.09843719499258L201.61564062500003,134.20915788492232L202.046875,134.3840659560601L202.15845312500002,134.51707797869832L202.76459375000002,134.74935856282585L202.83696875,134.90693229523225L202.9515625,135.0303019974719L202.96965624999999,135.10887516429813L203.46421875000001,135.28042525498296L203.509453125,135.39473367310003L203.61198437500002,135.48911023118455L204.11860937499998,135.67317631220584L204.341765625,135.8397503207297L204.67348437500002,136.02313715864992L205.336921875,136.3000549512343L205.955125,136.62171295291105L206.10892187500002,136.85339501473857L206.392390625,137.0637100380945L206.742203125,137.27789283039647L206.9080625,137.44812454640106L206.99853124999998,137.57302030341617L207.01059375,137.6509925374272L207.13725,137.7296352962111L207.23375,137.80109506879475L207.31517187499998,137.86445281123653L207.3664375,137.91536321030878L207.411671875,137.95728781345827L207.441828125,137.99002870063242L207.695140625,138.07339289391194L208.123359375,138.23112878421932L208.171609375,138.3379069649502L208.18065625,138.40424954612996L208.189703125,138.44633076757907L208.877265625,138.64453392566423L209.019,138.7991091257553L209.38389062500002,138.98364108674053L209.81814062499998,139.20359502757236L209.962890625,139.3719781559312L210.011140625,139.4851455037134L210.101609375,139.57580263979509L210.249375,139.66736761658504L210.30365625000002,139.7359606391064L210.34587499999998,139.78773653348514L210.54792187500001,139.8696259774803L210.68060937500002,139.9521372763761L210.76203125,140.0221251103847L211.120890625,140.15438808603994L211.35610937500002,140.29291418692566L211.6365625,140.4465773508763L211.65465625,140.54332659472917L211.721,140.61806413306977L211.99240625000002,140.73117848675213L212.296984375,140.87566251354374L212.5291875,141.02076296227102L212.61362499999998,141.12906339323922L212.894078125,141.26459115523937L213.020734375,141.37776723081674L213.12025,141.4707061005372L213.316265625,141.57577676405688L213.723375,141.74122608396516L214.178734375,141.95504006847355L214.48029687500002,142.15918559092052L214.73059375,142.3446342825235L214.94470312500002,142.50976218465513L215.23721875,142.68241997282456L215.27340625,142.79511774880143L215.35784375,142.88397616400914L215.43323437499998,142.95625570212437L215.722734375,143.07244618904372L216.163015625,143.25291181111652L216.3650625,143.41201550383832L216.50076562499999,143.5416136348104L217.5471875,143.88259680174917L217.62559375,144.10690947374334L217.725109375,144.26652988920364L217.7884375,144.37823225977868L218.286015625,144.57041774344282L218.684078125,144.7858606948068L218.7775625,144.93864230009825L218.80168749999999,145.03637958654633L219.763671875,145.33700649714913L219.94159374999998,145.56213822760552L220.02603125000002,145.71845742761116L220.035078125,145.8145246203558L220.216015625,145.9176792150477L220.807078125,146.12825186765505L221.223234375,146.35927846586742L221.434328125,146.5509944170142L221.43734375,146.6667822705425L221.69065625,146.7999750557448L221.995234375,146.95650655355857L222.158078125,147.09138838580955L222.167125,147.17459315790137L222.49884375,147.3079588660726L222.65565625,147.42742383463704L222.75215624999998,147.52337734519926L222.8064375,147.59460348798402L223.123078125,147.71698936803904L223.40353125000001,147.860967987381L223.454796875,147.96025091259335L223.54828125,148.04333609008359L223.68096875,148.12656441696623L223.759375,148.19622418492668L223.83778125,148.25774322964406L224.70025,148.51160597083438L224.73040625,148.67150932872275L224.7364375,148.76896832124655L225.231,148.95184949523963L225.834125,149.21329246311936L225.84015625,149.3716756337482L226.14171875,149.54256266786743L226.174890625,149.65343888435342L226.25932812500002,149.74120477597685L226.33773437500003,149.81358708278177L226.91371875,150.0019037121249L227.00117187499998,150.13689213430285L227.055453125,150.2315396361673L227.230359375,150.33232502643014L227.29971874999998,150.4102437717877L227.30575,150.458511996793L227.50478125,150.5375385563238L227.531921875,150.5917817163211L227.62540625,150.64784324073742L227.688734375,150.6974102766861L227.76412499999998,150.74611478119078L227.98728125,150.8314716377496L228.1139375,150.91454578822749L228.31296874999998,151.01445610909698L228.575328125,151.1403980474452L228.91006249999998,151.3001645442656L229.033703125,151.42712578395003L229.311140625,151.57309113017428L229.33828125,151.66749756218766L230.089171875,151.91302576185518L230.41184375,152.14150964777545L230.800859375,152.37645576169677L231.141625,152.60314194770694L231.56381249999998,152.84535364375176L232.04932812500002,153.11281076711623L232.133765625,153.29452499681165L232.157890625,153.40962206395722L232.26946875,153.5067474842001L232.95401562499998,153.73721846661107L233.01734374999998,153.89143117735654L233.533015625,154.11367441666047L233.635546875,154.27281186745716L233.75315625,154.39787849568145L234.35025000000002,154.62311575830915L235.4479375,155.03437805482093L235.821875,155.3751982554825L236.01487500000002,155.62823891958877L236.017890625,155.78082190997546L236.06915625,155.88526745781465L236.14153124999999,155.9661404775307L236.159625,156.01921573787035L236.247078125,156.0730594416738L236.36167187499998,156.13419133280678L236.51546875,156.20955762528047L236.765765625,156.31773888192703L237.000984375,156.44181615746265L237.3055625,156.59287824644892L237.676484375,156.7768198336998L238.0051875,156.96986903904352L238.02328125,157.09025001075977L238.20120312499998,157.20723428091176L238.7530625,157.41624340439347L238.75607812500002,157.54240747040544L238.79528125,157.62796734744182L239.220484375,157.78626185002528L239.371265625,157.91916711744634L239.6095,158.05883741712648L239.672828125,158.158569589449L240.11009375,158.32840175962522L240.23373437499998,158.46140248059376L240.31515625,158.56168435419934L240.405625,158.6446106178853L240.643859375,158.75429351532435L240.921296875,158.8898918240053L240.9966875,158.99021509214936L241.126359375,159.08302762676794L241.25,159.16981657606078" style="fill: none;" fill="none"></path></g></g></g></g><g opacity="0.2"><g><g><g><path stroke="rgb(187, 187, 187)" stroke-width="2px" d="M30.285921875,26.631543099135115L30.442734375,26.73016107939179L30.662875,26.86859715096648L30.849843749999998,26.98618044443424L30.864921875,26.99565897993739L30.928250000000002,27.035485313460185L30.982531249999997,27.069624525681093L31.088078125000003,27.135999000817492L31.094109375,27.13979041501875L31.118234375,27.154964314028575L31.588671875,27.450801770389035L31.775640625,27.568385063856795L31.905312499999997,27.649925195798232L31.926421875000003,27.663203387707426L32.071171875,27.7542302973568L32.110375000000005,27.77888273186977L32.312421875,27.90594456084068L32.336546874999996,27.921118459850504L32.577796875000004,28.072832723334386L32.595890625,28.084206965938165L32.680328124999996,28.137311491370156L33.217109375,28.47487098835404L33.373921875,28.573488968610718L33.488515625000005,28.645550565049007L33.717703125,28.78968200013037L33.961968750000004,28.94329197071488L34.127828125,29.047597072273447L34.136874999999996,29.053284193575337L34.17909375,29.07983233518894L34.19115625,29.087423405796244L34.33590625,29.178450315445616L34.357015625,29.19172850735481L34.489703125000005,29.275164346396878L34.839515625,29.495157034322574L35.2586875,29.75875922776754L35.388359375,29.840307601913764L35.397406249999996,29.845994723215654L35.720078125,30.04890956282611L35.81959375,30.11149262376125L35.94021875,30.187353876605584L36.0306875,30.24424157403405L36.299078125,30.413025443628385L36.480015625,30.5268090806901L36.790625000000006,30.722141091898038L36.980609375,30.841620092466428L37.1163125,30.92695988081391L37.36359375,31.082465558499052L37.505328125,31.171596761047795L37.55659375,31.203832023963287L37.562625,31.20763168036933L37.65309375,31.264519377797797L37.656109375,31.266415084898426L37.692296875,31.28917181231077L37.707375,31.298658590018704L37.794828124999995,31.35365058034654L38.25621875,31.643809157609894L38.422078125,31.74811425916846L39.106624999999994,32.17859637290235L39.320734375,32.31324927248056L39.69165625,32.54650366790588L39.899734375,32.67735691107805L39.947984375000004,32.7077047090977L39.951,32.70960041619833L40.12590625,32.81959263905878L40.653640625,33.15146501474078L41.069796875,33.41317150108512L41.075828125,33.41697115749116L41.226609375,33.51178948134179L41.44071875,33.64643413871522L41.660859375,33.784878452494695L41.68196875,33.798148402199104L42.004640625,34.001071484014346L42.089078125,34.05416776724155L42.330328125,34.205882030725434L42.517296875,34.32345708198841L42.812828124999996,34.5093105576932L42.921390625,34.57758073993023L43.177718750000004,34.73878178112204L43.428015625,34.896183165907814L43.705453125,35.07065415680404L43.75671875,35.10288941971953L44.224140625000004,35.396839411184146L44.236203124999996,35.404422239586665L44.260328124999994,35.41959613859649L44.598078125,35.63199775591488L44.640296875,35.658545897528484L44.917734375,35.83301688842471L45.1499375,35.9790440306067L45.557046875000005,36.23506339564915L45.641484375,36.288159678876355L46.277781250000004,36.688310479000165L46.32,36.71485862061377L46.503953124999995,36.83053796477611L46.89296875,37.07517484501L47.285000000000004,37.321715674549296L47.41768750000001,37.40515975579615L47.674015625,37.56635255478318L47.842890625,37.672553363442375L47.864,37.68583155535157L47.9725625,37.7541017375886L48.222859375,37.91150312237437L48.856140625,38.309749973192766L48.9134375,38.3457848925143L49.12453125,38.4785338427871L49.386890625,38.64352629818018L49.821140625,38.91660702712832L49.983984375,39.01901642158626L50.0714375,39.07401665411888L50.3609375,39.25607047341762L50.397124999999996,39.278827200829966L50.828359375,39.55002046488224L51.166109375000005,39.762413839995844L51.612421875,40.043085639551265L51.7360625,40.12084259949623L52.420609375000005,40.5513329554349L52.655828125,40.699255804717524L52.664874999999995,40.70494292601941L52.710109375,40.733386774733646L52.809625,40.795969835668785L53.644953125,41.32127851545809L53.675109375000005,41.34024382866917L53.78065625,41.40661830380557L54.257125,41.70625541657208L54.483296875,41.84849114455281L54.827078125,42.06468417607246L54.95071875,42.14243289381264L55.3789375,42.41173045076428L55.394015625,42.42120898626743L55.421156249999996,42.438278592377884L55.786046875000004,42.66774981580673L55.816203125,42.68670688681303L56.09665625,42.86308182701467L56.931984375,43.38839050680397L57.019437499999995,43.44338249713181L57.082765625,43.483208830654604L57.103875,43.4964870225638L57.27878125,43.606479245424254L58.083953125,44.112822612002475L58.6116875,44.44470322988926L58.711203125,44.50727804861961L58.970546875,44.67037479691206L59.00975,44.69502723142503L59.281156249999995,44.865706808119995L59.350515625,44.90932455584405L59.404796875,44.94346376806496L59.842062500000004,45.218440204113705L60.0350625,45.339814911782724L60.568828125,45.67547870166598L61.147828125,46.039594582468254L61.168937500000006,46.05287277437745L61.51875,46.27285722009836L61.760000000000005,46.42457148358224L61.889671875000005,46.506119857728464L62.146,46.667312656715495L62.239484375,46.726104303449375L62.287734375,46.75644385926424L62.459624999999996,46.86454037502406L62.598343750000005,46.951775870472176L62.601359375,46.953671577572806L62.667703124999996,46.99539361819623L62.85165625,47.11108120456336L62.878796875000006,47.12814256846903L63.035609375,47.22676054872571L63.044656249999996,47.2324476700276L63.15925,47.30451750867067L63.228609375,47.34813525639473L63.252734374999996,47.363300913199765L63.391453125,47.45053640864788L63.638734375,47.606050328537805L63.69603125,47.642077005654556L63.928234375,47.78810414783655L64.59468749999999,48.20721201896666L64.754515625,48.307725706323964L64.814828125,48.34565633274613L64.90831250000001,48.404439737275226L64.935453125,48.42150934338568L65.03798437500001,48.48598811142145L65.28526562500001,48.64149378910659L65.39684375,48.711667920649035L65.62,48.85199969932435L65.96378125,49.068192730844004L66.25328125,49.25024655014275L66.268359375,49.25973332785068L66.376921875,49.32800351008771L66.762921875,49.570744683220965L66.841328125,49.62004955224691L66.901640625,49.65798017866908L67.221296875,49.85900755338369L67.56809375,50.07709629200397L67.727921875,50.17760173715649L68.37025,50.581543951481564L68.99146875,50.97220797389744L69.1784375,51.089783025160415L69.41365625,51.23770587444304L69.46492187499999,51.269949379563315L69.54634375,51.32114995568989L69.609671875,51.36097628921269L69.645859375,51.38373301662503L69.69109375,51.41217686533926L70.574671875,51.967833343148214L70.586734375,51.975416171550734L70.882265625,52.16126964725552L71.008921875,52.24091407209633L71.16271875,52.33763634525238L71.232078125,52.381254092976434L71.41000000000001,52.49314202293752L71.805046875,52.74157855957745L72.028203125,52.881910338252766L72.619265625,53.25360904745756L73.04446875000001,53.52101089730857L73.2435,53.646168776974065L73.26460937499999,53.65944696888326L73.34301562499999,53.708751837909205L73.39729687500001,53.74289105013011L73.57521874999999,53.8547789800912L73.726,53.94959730394183L74.283890625,54.300443235039694L74.301984375,54.31181747764347L74.392453125,54.36871341727672L74.41959375,54.38577478118239L74.44975,54.404740094393475L74.7271875,54.5792110852897L74.75432812499999,54.59628069140015L74.81765625,54.63610702492295L75.01065625,54.75748173259197L75.067953125,54.79350840970872L75.66504687499999,55.16900677531956L75.936453125,55.33967810980974L76.195796875,55.502774858102185L76.370703125,55.61276708096264L76.82003125,55.89533458761869L76.8260625,55.89912600181995L76.92256250000001,55.95981335565446L77.016046875,56.01860500238834L77.625203125,56.4016861964017L77.697578125,56.447199651226384L77.890578125,56.56856611669062L78.38815625,56.88148142136632L78.69575,57.074917725473625L78.759078125,57.11473581679164L79.16015625,57.366963767632825L79.37728125,57.50350413210688L79.443625,57.54522617273031L79.633609375,57.6647051732987L79.93215625,57.85244611389933L80.51115625,58.21656199470161L80.84890625,58.42896361202L80.99365625,58.51999052166937L81.1203125,58.599643188714964L81.623921875,58.91634990759192L81.71740625000001,58.97513331212102L82.145625,59.24443086907266L82.305453125,59.34493631422518L82.38084375,59.39235371835528L82.4471875,59.43406751677392L82.763828125,59.633199184387905L83.062375,59.82094012498854L83.10459375,59.84749650880693L83.19204687499999,59.90248849913476L83.216171875,59.917662398144586L83.303625,59.97265438847242L83.602171875,60.16040357127784L84.29878124999999,60.59847675561903L84.494796875,60.72174717038868L84.63653124999999,60.810878372937424L85.23664062499999,61.188264203444106L85.399484375,61.29067359790204L85.8005625,61.54290154874323L85.803578125,61.54479725584386L86.225765625,61.81029515638946L86.61176562499999,62.05303632952271L86.98871875,62.29009038135408L87.32948437499999,62.5043877057731L87.805953125,62.8040248185396L87.96578125,62.90453850589691L88.273375,63.09797481000422L89.0574375,63.591039984673245L89.386140625,63.79775448068975L89.428359375,63.82430262230335L89.6605625,63.97032976448534L89.67865625,63.98170400708912L90.00735937500001,64.18841850310562L90.284796875,64.36288949400185L90.4566875,64.47098600976167L90.5773125,64.54683902040122L90.63159375000001,64.58097823262213L90.6496875,64.5923607174307L90.65873437500001,64.59804783873258L90.887921875,64.74217103160916L90.8909375,64.74407498091458L91.03267187499999,64.83320618346332L91.12615625,64.89198958799241L91.207578125,64.94319840632377L91.216625,64.94888552762566L91.23170312500001,64.95836406312881L91.44581249999999,65.09301696270703L91.62675,65.20680059976874L91.798640625,65.31489711552857L91.93434375,65.40023690387605L92.05798437499999,65.47798562161623L92.09718749999999,65.50264629833399L92.10020312500001,65.50454200543462L92.166546875,65.54626404605804L92.214796875,65.5766036018729L92.612859375,65.82693584561346L92.82093750000001,65.95778908878563L92.82998437500001,65.96347621008752L92.833,65.96537191718815L92.97775,66.05639882683752L93.05012500000001,66.10191228166221L93.728640625,66.52861122339962L93.921640625,66.64998593106864L94.11765625000001,66.7732481036335L94.187015625,66.81686585135756L94.440328125,66.97617118544875L94.44937499999999,66.98185830675064L94.464453125,66.99133684225379L94.6665,67.1183986712247L94.72078124999999,67.1525378834456L94.946953125,67.29476536922155L95.06456250000001,67.36873091496525L95.54103125,67.66836802773176L95.8848125,67.88456105925141L95.96321875,67.93386592827736L96.02654687500001,67.97369226180015L96.044640625,67.98506650440393L96.52110937500001,68.28470361717044L97.24184375,68.73795070052145L97.38357812500001,68.8270819030702L97.49817187500001,68.89914349950848L97.582609375,68.95224802494047L97.92639062500001,69.16844105646013L98.14351562499999,69.30498142093418L98.41793750000001,69.47755670472978L98.80996875,69.72408929206429L99.036140625,69.86632502004502L99.307546875,70.03700459673999L99.934796875,70.43146003335713L99.964953125,70.45042534656821L100.067484375,70.51490411460398L100.097640625,70.53386942781506L100.176046875,70.58317429684101L100.31174999999999,70.66851408518849L100.381109375,70.71213183291255L100.60728125,70.85436756089328L100.80631249999999,70.97952544055877L101.147078125,71.1938227649778L101.29484375,71.28675362393258L101.53910937500001,71.4403635945171L101.57228125,71.46122461482881L101.63259375,71.49914699904619L102.347296875,71.94860266819595L102.7725,72.21599627584217L102.890109375,72.28996182158588L102.9775625,72.34495381191371L103.239921875,72.50994626730679L103.384671875,72.60097317695616L103.39070312499999,72.60476459115742L103.505296875,72.6768344298005L103.57465624999999,72.72045217752455L104.21396874999999,73.1224904425442L104.40696875,73.24386515021322L104.7025,73.42971038371323L104.72662500000001,73.44488428272305L105.25134374999999,73.77486095130442L105.350859375,73.83744401223956L105.574015625,73.97778403311966L105.691625,74.05174133665858L105.95096875,74.21483808495103L106.24650000000001,74.40068331845103L106.28570312500001,74.425335752964L106.31284375,74.44240535907446L106.551078125,74.59222391545771L106.729,74.7041118454188L107.07278124999999,74.92030487693845L107.118015625,74.94875696785746L107.35625,75.09857552424072L107.618609375,75.263559737429L107.99857812500001,75.502509496361L108.104125,75.5688839714974L108.32728125,75.7092239923775L108.76454687500001,75.98420042842625L108.8399375,76.03161783255635L109.0329375,76.15298429802058L109.07515625,76.17953243963419L109.446078125,76.41279507726429L109.47925000000001,76.433656097576L109.7808125,76.62330098748205L109.982859375,76.75036281645296L110.58598437500001,77.12964435406028L110.96896875,77.3704898200929L110.971984375,77.37238552719353L111.0594375,77.42738575972615L111.06546875,77.43117717392741L111.364015625,77.61892635673283L112.009359375,78.02476427815853L112.02745312500001,78.03613852076231L112.045546875,78.04752100557087L112.057609375,78.05510383397339L112.060625,78.05699954107402L112.40742187500001,78.2750882796943L113.10403125,78.7131614640355L113.3995625,78.89901493974028L113.42971874999999,78.91798025295137L113.450828125,78.93125020265578L113.50510937499999,78.96538941487668L113.8096875,79.15693001188336L114.06903125,79.32001851797102L114.343453125,79.49259380176662L114.349484375,79.49638521596788L114.445984375,79.55707256980239L114.50026562500001,79.5912117820233L115.3536875,80.12790294662116L115.56478125000001,80.26065189689396L115.917609375,80.4825320497155L115.9568125,80.50718448422847L116.23425,80.6816554751247L116.321703125,80.73665570765732L116.43931250000001,80.81061301119624L117.521921875,81.49143561087547L117.600328125,81.54074047990142L117.666671875,81.58246252052484L117.72396875,81.6184891976416L117.799359375,81.6659066017717L117.847609375,81.69624615758656L118.21853125,81.92950879521666L118.4055,82.04708384647964L119.03275000000001,82.44153928309677L119.053859375,82.45481747500597L119.081,82.47188708111642L119.23178125,82.56670540496705L119.30415625,82.61221885979174L119.4549375,82.70704542584716L119.86506250000001,82.96496049799023L120.109328125,83.11857046857475L120.11234375,83.12046617567538L120.628015625,83.44475572295485L120.64309375,83.454234258458L120.72149999999999,83.50353912748395L120.905453125,83.61922671385108L121.152734375,83.77473239153622L121.3608125,83.90558563470839L121.484453125,83.98334259465335L121.614125,84.06488272659479L122.0121875,84.31521497033535L122.045359375,84.33607599064706L122.473578125,84.60536530539392L122.757046875,84.78363595269619L122.799265625,84.81018409430979L122.85354687499999,84.84431506432591L123.96028125,85.54030332081018L124.86798437499999,86.11113369762896L124.9795625,86.18129958696662L125.742515625,86.66109481193124L126.080265625,86.87349642924963L126.27628125,86.99676684401928L126.297390625,87.01003679372369L126.32151562499999,87.02521069273351L126.46626562499999,87.11623760238288L126.49340625,87.13330720849333L126.671328125,87.24519513845442L126.71053125,87.2698475729674L127.183984375,87.56758897863327L127.2835,87.63017203956841L127.41015625,87.709824706614L127.9710625,88.06255810260771L128.293734375,88.26547294221817L128.5018125,88.39632618539034L128.64053125,88.48356168083845L128.78829687500001,88.57649253979324L128.957171875,88.68269334845243L129.355234375,88.9330173499882L129.379359375,88.94819124899803L129.680921875,89.13783613890408L129.717109375,89.16059286631642L129.77742187500002,89.1985152505338L130.133265625,89.42229935266076L130.2146875,89.47349992878733L130.22071875,89.4772913429886L130.492125,89.64797091968356L130.70321875,89.78071986995636L130.80575000000002,89.84519863799213L130.8901875,89.89830316342412L131.3003125,90.1562182355672L131.57775,90.33068510536103L131.870265625,90.5146387528628L131.89740625,90.53170835897325L131.93359375,90.55446508638559L131.990890625,90.59049588460474L132.04215625,90.62273526862262L132.205,90.72514466308056L132.2411875,90.7479013904929L132.316578125,90.79531055241821L132.42815625,90.86548056285827L132.74178125,91.06270828116683L132.799078125,91.09873907938598L132.95890624999998,91.19924864564089L133.11571874999998,91.29786250479518L133.782171875,91.71697449702768L133.84550000000002,91.75680083055047L134.011359375,91.86110181100665L134.27371875,92.02609426639972L134.276734375,92.02798997350035L134.391328125,92.10005156993864L134.49687500000002,92.16643016617743L135.05175,92.51537214796988L135.338234375,92.695530260168L136.0529375,93.14498592931776L136.23990625,93.26256510168312L136.472109375,93.40858812276272L136.71034375,93.55840667914597L136.773671875,93.59823301266877L136.797796875,93.6134027905762L136.84303125,93.64185076039283L137.15665625,93.8390784787014L137.1626875,93.84286989290266L137.43409375000002,94.01354946959762L138.03118750000002,94.38904371410607L138.052296875,94.40231778491287L138.25132812500001,94.52748390678315L138.26640625000002,94.5369624422863L138.58003125000002,94.73419428169726L138.63129687499998,94.76643366571514L138.83334374999998,94.89349137358366L139.46360937499998,95.28984663840382L139.511859375,95.32019031532107L139.5510625,95.34484274983404L139.656609375,95.41121722497044L139.735015625,95.46052621509878L140.43765625,95.90239081364123L140.61859375,96.01617857180534L140.70906250000002,96.0730703903362L140.766359375,96.10910530965774L141.03475,96.27788505814968L141.16442187500002,96.3594334322959L141.1915625,96.37649891730396L141.28504687499998,96.43529056403784L141.4569375,96.54338707979767L141.89721874999998,96.82026334404944L142.24703125,97.04025191087274L142.346546875,97.10283085070549L143.1095,97.5826301967725L143.21203125,97.64710896480827L144.041328125,98.16862623039631L144.379078125,98.38102372661231L145.33201562500003,98.98029795214532L145.497875,99.0845989326015L145.543109375,99.11304690241812L145.85371874999998,99.30837891362606L146.076875,99.44871481340377L146.125125,99.47905849032102L146.158296875,99.49991951063274L146.26082812500002,99.5643982786685L146.502078125,99.71611254215239L146.68603124999998,99.83179188631473L146.68904687499997,99.83368759341536L146.863953125,99.94368393737821L146.92426562499998,99.98161044269798L147.0539375,100.06315881684421L147.286140625,100.20918183792381L147.71134375,100.47657956667243L147.78371875,100.52209302149711L148.19384374999998,100.78000809364019L148.48334375,100.96206603404133L148.661265625,101.07395396400241L148.6944375,101.09481498431413L149.550875,101.63340185601263L149.885609375,101.843903645128L149.970046875,101.89700404945759L150.12384375000002,101.99372220151125L150.41635937499998,102.17767584901301L150.50984375000002,102.2364633746445L150.52492187500002,102.24594603125004L150.5761875,102.27818541526793L150.844578125,102.44696928486226L151.676890625,102.97038225755094L152.255890625,103.33449813835321L152.292078125,103.35725486576555L152.735375,103.63602683711795L152.76553124999998,103.65499215032904L152.783625,103.66637051403521L152.7956875,103.67395746354012L152.889171875,103.73274498917161L152.895203125,103.73654052447526L152.937421875,103.76308866608886L152.955515625,103.77446702979503L153.17565625,103.91290722247211L153.92051562499998,104.38132408373056L154.185890625,104.54821224622427L154.264296875,104.59751711525021L154.53570312500003,104.76819669194518L154.61712500000002,104.81940138917415L154.82821875,104.95215033944694L155.03328125,105.08110787551848L155.2805625,105.23661355320363L155.4253125,105.32764458395539L155.4735625,105.35798413977025L156.152078125,105.78468308150767L156.42649999999998,105.95725836530326L156.833609375,106.21327360924332L156.85471875,106.22655180115251L157.219609375,106.45601890347896L157.291984375,106.50153235830365L157.36435937500002,106.54704581312834L157.551328125,106.6646249854937L157.8378125,106.84478721879421L158.172546875,107.05528900790958L158.226828125,107.0894240990281L158.86010937499998,107.48767507094888L159.155640625,107.67352442555128L159.62306249999997,107.9674702959135L159.722578125,108.03005335684864L159.77384375,108.06229274086652L159.891453125,108.13625416550784L160.669484375,108.62553204707801L161.260546875,108.9972307562828L161.39323437500002,109.08067483752966L161.49878125,109.14704931266606L161.58925,109.20394113119691L161.661625,109.24945870712399L161.758125,109.31014193985611L161.97525,109.44668642543256L162.05667187499998,109.49789112266153L162.06873437500002,109.50547395106405L162.11396875,109.53392192088067L162.192375,109.58322678990662L162.25871874999999,109.62494883053004L162.774390625,109.94923837780952L162.786453125,109.95682532731443L162.82565625,109.9814777618274L163.06690625000002,110.13319202531129L163.07896875,110.1407789748162L163.18753124999998,110.20904915705323L163.449890625,110.37403749134391L163.471,110.3873156832531L163.6036875,110.47075564339757L163.763515625,110.57126933075487L163.881125,110.64522663429379L164.35759375,110.9448637470603L164.61090625,111.10416496004909L164.613921875,111.10606066714972L164.79184375,111.2179485971108L165.04515625000002,111.3772498100996L165.26529687500002,111.51569000277668L165.307515625,111.54223814439028L165.753828125,111.8229099439457L165.844296875,111.87980176247656L166.02221875,111.99169381354004L166.17601562500002,112.08841196559369L166.79723437500002,112.47907598800957L166.824375,112.49614147301763L166.984203125,112.59665516037494L167.3913125,112.85267040431499L167.499875,112.92094470765441L167.846671875,113.1390334462747L168.1874375,113.35332664959132L168.3925,113.48228418566286L168.498046875,113.54865866079926L168.950390625,113.83312599565834L168.97753125,113.8501914806664L169.05895312500002,113.90139617789536L169.149421875,113.95828799642622L169.251953125,114.02276676446199L169.38765625,114.10810655280947L169.49621875,114.1763767350465L169.83698437500001,114.39067405946552L169.88523437499998,114.42101773638278L170.07220312500002,114.53859690874815L170.12346874999997,114.57083629276603L170.3828125,114.73392891995609L170.976890625,115.10752333626151L171.133703125,115.20614131651818L172.49073437500002,116.05953095778823L172.62040625,116.14107933193445L172.780234375,116.24158889818936L172.80134375,116.25486296899616L172.86165624999998,116.29279359541833L172.9400625,116.34209846444428L173.21146875,116.51277804113924L173.36828125,116.61139190029353L173.54921875000002,116.72517965845763L173.570328125,116.73845372926444L173.65778125,116.79344984069466L173.817609375,116.89395940694958L173.829671875,116.90154635645449L173.868875,116.92619879096746L173.91109375,116.95275105368346L173.98346875,116.99826450850814L174.01965625,117.02102123592049L174.11615625,117.081708589755L174.137265625,117.0949826605618L174.17948437500002,117.1215308021754L174.52025,117.33582812659442L174.553421875,117.35668914690613L174.571515625,117.3680675106123L174.69515625000003,117.44582034945488L174.70721875,117.45340729895979L174.7494375,117.47995544057339L174.818796875,117.52357318829745L175.13845312499998,117.72459644190967L175.45509375,117.92371986731887L175.50334375,117.95406354423612L175.59381249999998,118.01095536276698L176.17884375,118.37886265777051L176.459296875,118.55523347686976L176.483421875,118.57040325477719L176.809109375,118.77521792259067L176.869421875,118.81314442791044L177.45445312500001,119.18105172291398L177.870609375,119.44276233036071L178.745140625,119.99272344466299L178.907984375,120.09513283912092L178.983375,120.14254200104624L179.36334375,120.38149175997823L179.60760937499998,120.53510173056274L179.7915625,120.65078519582748L179.848859375,120.68681599404663L180.02678125,120.7987080451101L180.61482812499997,121.16851104721427L180.958609375,121.38470407873392L181.109390625,121.47952652368694L181.38984375,121.6558932216838L181.43809374999998,121.68623689860105L181.5285625,121.74312871713191L181.748703125,121.88156890980899L182.092484375,122.09776194132864L182.357859375,122.26464598271995L182.562921875,122.3936035187915L182.83734375,122.56617880258709L182.843375,122.56997021678835L182.86146875,122.58134858049452L183.4103125,122.92649914808571L183.89281250000002,123.22992767505347L184.001375,123.2982019783929L184.34817187500002,123.51629071701318L184.360234375,123.5238735454157L184.64068749999998,123.70024436451494L184.806546875,123.80454534497112L184.987484375,123.91833310313523L185.27396875000002,124.09849121533334L186.217859375,124.69207419846207L186.350546875,124.77551827970892L186.362609375,124.78310316866263L186.386734375,124.79827500712126L186.833046875,125.07894680667668L186.97478125,125.16807800922543L187.1738125,125.29324207054451L187.17984375,125.29703554529696L187.68646875,125.61563591072336L187.852328125,125.71993895173073L187.93676562500002,125.77303935606032L188.03628125,125.83562241699546L188.10865625,125.88113587182015L188.1388125,125.90009912448004L188.509734375,126.13335970155894L188.564015625,126.16749685322866L188.90478124999998,126.38179211709648L189.028421875,126.45954701649025L189.39029687500002,126.68711841171607L189.703921875,126.88434613002464L189.8034375,126.94692919095978L189.9964375,127.0682997775264L190.02659375,127.08726509073749L190.26482812499998,127.23708158656954L190.31006250000002,127.26552955638617L190.42164062499998,127.33569544572383L191.19665625000002,127.82307762019336L191.22078125000002,127.83824945865199L191.398703125,127.95013944916427L191.44092187500002,127.97668965132907L191.941515625,128.29149654200302L192.11642187500001,128.40148876486347L192.13753125,128.41476489622147L192.14959375,128.4223497851752L192.16165625,128.4299367346801L192.58685937500002,128.69733240287752L192.686375,128.75991340326146L192.71954687500002,128.78077442357318L193.072375,129.00265663694591L193.220140625,129.0955813142471L193.265375,129.12402928406374L193.328703125,129.16385355703534L193.37393749999998,129.19229946630077L193.72978125,129.41607944732533L194.112765625,129.65692491335795L194.40829687500002,129.84277426796035L194.77921875,130.07603484503926L194.88778125,130.14430708782749L194.954125,130.1860291284509L195.0868125,130.26947114914657L195.17125000000001,130.32257155347617L195.436625,130.48945765541868L195.82865625,130.73599230330439L195.964359375,130.82133209165187L196.60065625000001,131.2214787706733L196.9203125,131.4224999637343L196.929359375,131.4281891455874L197.007765625,131.47749607516454L197.10125,131.53628566134722L197.641046875,131.87574704708533L197.65612499999997,131.88522764313967L197.68025,131.9003994815983L198.16878125,132.20762148331852L198.32860937499998,132.30813311012463L198.41606249999998,132.36312922155486L198.642234375,132.5053608284332L198.9226875,132.68172958698125L198.931734375,132.68741876883433L199.3086875,132.9244707601145L199.951015625,133.32841091388838L200.05053125,133.39099191427232L200.1771875,133.47064252076672L200.2736875,133.53132781405003L200.33701562500002,133.57115414757283L200.5631875,133.71338575445117L200.60540625,133.73993595661597L200.62651562500002,133.75321002742277L200.867765625,133.90492429090665L201.4075625,134.24438567664475L201.507078125,134.3069687375799L201.61564062500003,134.37523891981692L202.046875,134.6464280627668L202.15845312500002,134.71659601265566L202.76459375000002,135.0977794390172L202.83696875,135.14329289384187L202.9515625,135.21535655083136L202.96965624999999,135.22673491453753L203.46421875000001,135.5377503910102L203.509453125,135.56619630027564L203.61198437500002,135.6306750683114L204.11860937499998,135.9492754337378L204.341765625,136.0896113335155L204.67348437500002,136.29821741553025L205.336921875,136.71543164011092L205.955125,137.10419995542617L206.10892187500002,137.20091810747982L206.392390625,137.3791825731285L206.742203125,137.5991670188494L206.9080625,137.70347212040798L206.99853124999998,137.76036393893884L207.01059375,137.76795088844375L207.13725,137.84759943438695L207.23375,137.90828472767026L207.31517187499998,137.95948942489923L207.3664375,137.99172880891712L207.411671875,138.02017471818255L207.441828125,138.03914003139363L207.695140625,138.19843918383123L208.123359375,138.46773261968048L208.171609375,138.49807423604653L208.18065625,138.50376341789962L208.189703125,138.5094525997527L208.877265625,138.941838662792L209.019,139.03097192589195L209.38389062500002,139.2604390282184L209.81814062499998,139.5335259388201L209.962890625,139.62455284846948L210.011140625,139.65489652538673L210.101609375,139.7117883439176L210.249375,139.80471508176998L210.30365625000002,139.8388501728885L210.34587499999998,139.8654003750533L210.54792187500001,139.992460143473L210.68060937500002,140.07590422471986L210.76203125,140.12710686139764L211.120890625,140.35278254952283L211.35610937500002,140.50070333825425L211.6365625,140.6770720968023L211.65465625,140.68845046050848L211.721,140.7301704405807L211.99240625000002,140.90085001727567L212.296984375,141.09238855373115L212.5291875,141.23841363536195L212.61362499999998,141.29151403969155L212.894078125,141.4678827982396L213.020734375,141.5475313441828L213.12025,141.61011440511794L213.316265625,141.7333827593364L213.723375,141.98940006382765L214.178734375,142.27576104523615L214.48029687500002,142.465403874591L214.73059375,142.62280731992797L214.94470312500002,142.7574540378526L215.23721875,142.94140665507877L215.27340625,142.9641644127667L215.35784375,143.0172637868207L215.43323437499998,143.06467500929722L215.722734375,143.24673191942276L216.163015625,143.52361024422572L216.3650625,143.65067104292103L216.50076562499999,143.73601083126852L217.5471875,144.3940715521574L217.62559375,144.44337848173456L217.725109375,144.5059605123941L217.7884375,144.5457858156413L218.286015625,144.858695968939L218.684078125,145.10902512185274L218.7775625,145.16781470803542L218.80168749999999,145.18298551621845L219.763671875,145.78794686305335L219.94159374999998,145.89983582329003L220.02603125000002,145.95293622761963L220.035078125,145.95862540947272L220.216015625,146.07241110708563L220.807078125,146.44411084656602L221.223234375,146.70581836318595L221.434328125,146.83856834373435L221.43734375,146.84046405083498L221.69065625,146.99976423354818L221.995234375,147.19130380027926L222.158078125,147.293711134186L222.167125,147.29940031603908L222.49884375,147.50800742832942L222.65565625,147.6066212874837L222.75215624999998,147.66730761104262L222.8064375,147.70144270216113L223.123078125,147.90056818812153L223.40353125000001,148.07693591639398L223.454796875,148.10917530041186L223.54828125,148.16796385631895L223.68096875,148.2514069072902L223.759375,148.30071383686735L223.83778125,148.35002179672009L224.70025,148.89240008261984L224.73040625,148.91136436555533L224.7364375,148.9151568100322L225.231,149.22617125622926L225.834125,149.60545691493897L225.84015625,149.60925038969143L226.14171875,149.79889321904628L226.174890625,149.8197532090824L226.25932812500002,149.872853613412L226.33773437500003,149.92216054298913L226.91371875,150.28437865613958L227.00117187499998,150.3393747675698L227.055453125,150.37351088896392L227.230359375,150.48350311182438L227.29971874999998,150.52712188982403L227.30575,150.5309143343009L227.50478125,150.65607839561997L227.531921875,150.67314645631703L227.62540625,150.7319355273619L227.688734375,150.7717608306091L227.76412499999998,150.81917153794782L227.98728125,150.95950692258774L228.1139375,151.03915701394433L228.31296874999998,151.16432159040122L228.575328125,151.3293109549675L228.91006249999998,151.53981428949626L229.033703125,151.61756764347663L229.311140625,151.79203914951066L229.33828125,151.8091072102077L230.089171875,152.28131806135642L230.41184375,152.48423547665587L230.800859375,152.72887493257875L231.141625,152.94317122672217L231.56381249999998,153.20867118781896L232.04932812500002,153.51399645216296L232.133765625,153.56709634135476L232.157890625,153.58226766467558L232.26946875,153.65243561456444L232.95401562499998,154.0829249402275L233.01734374999998,154.1227502434747L233.533015625,154.4470392756164L233.635546875,154.51151804365216L233.75315625,154.58547843801787L234.35025000000002,154.96097165225075L235.4479375,155.65127149958863L235.821875,155.88642855647487L236.01487500000002,156.0077999157482L236.017890625,156.00969639555552L236.06915625,156.0419357795734L236.14153124999999,156.0874500071048L236.159625,156.09882862837986L236.247078125,156.153824997379L236.36167187499998,156.22588916950627L236.51546875,156.32260706399103L236.765765625,156.4800107668969L237.000984375,156.62793207076612L237.3055625,156.8194713799283L237.676484375,157.0527322145761L238.0051875,157.25944284705912L238.02328125,157.2708214683342L238.20120312499998,157.38271068613977L238.7530625,157.72975708961604L238.75607812500002,157.73165356942337L238.79528125,157.7563071629964L239.220484375,158.02370360390051L239.371265625,158.11852501857794L239.6095,158.26834286664672L239.672828125,158.3081678479328L240.11009375,158.58315001488955L240.23373437499998,158.6609035620466L240.31515625,158.71210716460774L240.405625,158.7690000134142L240.643859375,158.91881786148298L240.921296875,159.09328928702672L240.9966875,159.14069999436543L241.126359375,159.22224642869588L241.25,159.3" style="fill: none;" fill="none"></path></g></g></g></g></g></g><g transform="translate(58, 177)" clip-path="url(#clip_1)"><clipPath id="clip_1"><rect width="271" height="23"></rect></clipPath><g><g><line x1="0" y1="0" x2="0" y2="5" style="visibility: inherit;" fill="rgb(0, 0, 0)" stroke="rgb(204, 204, 204)" stroke-width="1px"></line><line x1="30.15625" y1="0" x2="30.15625" y2="5" style="visibility: inherit;" fill="rgb(0, 0, 0)" stroke="rgb(204, 204, 204)" stroke-width="1px"></line><line x1="60.3125" y1="0" x2="60.3125" y2="5" style="visibility: inherit;" fill="rgb(0, 0, 0)" stroke="rgb(204, 204, 204)" stroke-width="1px"></line><line x1="90.46875" y1="0" x2="90.46875" y2="5" style="visibility: inherit;" fill="rgb(0, 0, 0)" stroke="rgb(204, 204, 204)" stroke-width="1px"></line><line x1="120.625" y1="0" x2="120.625" y2="5" style="visibility: inherit;" fill="rgb(0, 0, 0)" stroke="rgb(204, 204, 204)" stroke-width="1px"></line><line x1="150.78125" y1="0" x2="150.78125" y2="5" style="visibility: inherit;" fill="rgb(0, 0, 0)" stroke="rgb(204, 204, 204)" stroke-width="1px"></line><line x1="180.9375" y1="0" x2="180.9375" y2="5" style="visibility: inherit;" fill="rgb(0, 0, 0)" stroke="rgb(204, 204, 204)" stroke-width="1px"></line><line x1="211.09375" y1="0" x2="211.09375" y2="5" style="visibility: inherit;" fill="rgb(0, 0, 0)" stroke="rgb(204, 204, 204)" stroke-width="1px"></line><line x1="241.25" y1="0" x2="241.25" y2="5" style="visibility: inherit;" fill="rgb(0, 0, 0)" stroke="rgb(204, 204, 204)" stroke-width="1px"></line><line x1="271.40625" y1="0" x2="271.40625" y2="5" style="visibility: inherit;" fill="rgb(0, 0, 0)" stroke="rgb(204, 204, 204)" stroke-width="1px"></line></g><g transform="translate(0, 8)"><text x="0" y="0" dx="0em" dy="0.95em" style="text-anchor: middle; visibility: hidden; font-family: &quot;Helvetica Neue&quot;, sans-serif; font-size: 12px; font-weight: 200;" fill="rgb(50, 49, 63)" stroke="none" stroke-width="1px">-10k</text><text x="30.15625" y="0" dx="0em" dy="0.95em" style="text-anchor: middle; visibility: inherit; font-family: &quot;Helvetica Neue&quot;, sans-serif; font-size: 12px; font-weight: 200;" fill="rgb(50, 49, 63)" stroke="none" stroke-width="1px">0</text><text x="60.3125" y="0" dx="0em" dy="0.95em" style="text-anchor: middle; visibility: inherit; font-family: &quot;Helvetica Neue&quot;, sans-serif; font-size: 12px; font-weight: 200;" fill="rgb(50, 49, 63)" stroke="none" stroke-width="1px">10k</text><text x="90.46875" y="0" dx="0em" dy="0.95em" style="text-anchor: middle; visibility: inherit; font-family: &quot;Helvetica Neue&quot;, sans-serif; font-size: 12px; font-weight: 200;" fill="rgb(50, 49, 63)" stroke="none" stroke-width="1px">20k</text><text x="120.625" y="0" dx="0em" dy="0.95em" style="text-anchor: middle; visibility: inherit; font-family: &quot;Helvetica Neue&quot;, sans-serif; font-size: 12px; font-weight: 200;" fill="rgb(50, 49, 63)" stroke="none" stroke-width="1px">30k</text><text x="150.78125" y="0" dx="0em" dy="0.95em" style="text-anchor: middle; visibility: inherit; font-family: &quot;Helvetica Neue&quot;, sans-serif; font-size: 12px; font-weight: 200;" fill="rgb(50, 49, 63)" stroke="none" stroke-width="1px">40k</text><text x="180.9375" y="0" dx="0em" dy="0.95em" style="text-anchor: middle; visibility: inherit; font-family: &quot;Helvetica Neue&quot;, sans-serif; font-size: 12px; font-weight: 200;" fill="rgb(50, 49, 63)" stroke="none" stroke-width="1px">50k</text><text x="211.09375" y="0" dx="0em" dy="0.95em" style="text-anchor: middle; visibility: inherit; font-family: &quot;Helvetica Neue&quot;, sans-serif; font-size: 12px; font-weight: 200;" fill="rgb(50, 49, 63)" stroke="none" stroke-width="1px">60k</text><text x="241.25" y="0" dx="0em" dy="0.95em" style="text-anchor: middle; visibility: inherit; font-family: &quot;Helvetica Neue&quot;, sans-serif; font-size: 12px; font-weight: 200;" fill="rgb(50, 49, 63)" stroke="none" stroke-width="1px">70k</text><text x="271.40625" y="0" dx="0em" dy="0.95em" style="text-anchor: middle; visibility: hidden; font-family: &quot;Helvetica Neue&quot;, sans-serif; font-size: 12px; font-weight: 200;" fill="rgb(50, 49, 63)" stroke="none" stroke-width="1px">80k</text></g><line x1="0" y1="0" x2="271.40625" y2="0" fill="rgb(0, 0, 0)" stroke="rgb(204, 204, 204)" stroke-width="1px"></line></g></g></g></g></svg>