<svg viewBox="0 0 1273 400" xmlns="http://www.w3.org/2000/svg"><g><g><g><g><g><line x1="39.15625" y1="311.7254362911565" x2="34.15625" y2="311.7254362911565" style="visibility: inherit;" fill="rgb(0, 0, 0)" stroke="rgb(204, 204, 204)" stroke-width="1px"></line><line x1="39.15625" y1="262.0554700087011" x2="34.15625" y2="262.0554700087011" style="visibility: inherit;" fill="rgb(0, 0, 0)" stroke="rgb(204, 204, 204)" stroke-width="1px"></line><line x1="39.15625" y1="223.52845101351537" x2="34.15625" y2="223.52845101351537" style="visibility: inherit;" fill="rgb(0, 0, 0)" stroke="rgb(204, 204, 204)" stroke-width="1px"></line><line x1="39.15625" y1="192.0495844253362" x2="34.15625" y2="192.0495844253362" style="visibility: inherit;" fill="rgb(0, 0, 0)" stroke="rgb(204, 204, 204)" stroke-width="1px"></line><line x1="39.15625" y1="165.43458195339434" x2="34.15625" y2="165.43458195339434" style="visibility: inherit;" fill="rgb(0, 0, 0)" stroke="rgb(204, 204, 204)" stroke-width="1px"></line><line x1="39.15625" y1="142.37961814288076" x2="34.15625" y2="142.37961814288076" style="visibility: inherit;" fill="rgb(0, 0, 0)" stroke="rgb(204, 204, 204)" stroke-width="1px"></line><line x1="39.15625" y1="122.04369884197129" x2="34.15625" y2="122.04369884197129" style="visibility: inherit;" fill="rgb(0, 0, 0)" stroke="rgb(204, 204, 204)" stroke-width="1px"></line><line x1="39.15625" y1="103.852599147695" x2="34.15625" y2="103.852599147695" style="visibility: inherit;" fill="rgb(0, 0, 0)" stroke="rgb(204, 204, 204)" stroke-width="1px"></line></g><g transform="translate(29.15625, 0)"><text x="0" y="311.7254362911565" dx="0em" dy="0.3em" style="text-anchor: end; visibility: inherit; font-family: &quot;Helvetica Neue&quot;, sans-serif; font-size: 12px; font-weight: 200;" fill="rgb(50, 49, 63)" stroke="none" stroke-width="1px">30</text><text x="0" y="262.0554700087011" dx="0em" dy="0.3em" style="text-anchor: end; visibility: hidden; font-family: &quot;Helvetica Neue&quot;, sans-serif; font-size: 12px; font-weight: 200;" fill="rgb(50, 49, 63)" stroke="none" stroke-width="1px">40</text><text x="0" y="223.52845101351537" dx="0em" dy="0.3em" style="text-anchor: end; visibility: inherit; font-family: &quot;Helvetica Neue&quot;, sans-serif; font-size: 12px; font-weight: 200;" fill="rgb(50, 49, 63)" stroke="none" stroke-width="1px">50</text><text x="0" y="192.0495844253362" dx="0em" dy="0.3em" style="text-anchor: end; visibility: hidden; font-family: &quot;Helvetica Neue&quot;, sans-serif; font-size: 12px; font-weight: 200;" fill="rgb(50, 49, 63)" stroke="none" stroke-width="1px">60</text><text x="0" y="165.43458195339434" dx="0em" dy="0.3em" style="text-anchor: end; visibility: inherit; font-family: &quot;Helvetica Neue&quot;, sans-serif; font-size: 12px; font-weight: 200;" fill="rgb(50, 49, 63)" stroke="none" stroke-width="1px">70</text><text x="0" y="142.37961814288076" dx="0em" dy="0.3em" style="text-anchor: end; visibility: hidden; font-family: &quot;Helvetica Neue&quot;, sans-serif; font-size: 12px; font-weight: 200;" fill="rgb(50, 49, 63)" stroke="none" stroke-width="1px">80</text><text x="0" y="122.04369884197129" dx="0em" dy="0.3em" style="text-anchor: end; visibility: inherit; font-family: &quot;Helvetica Neue&quot;, sans-serif; font-size: 12px; font-weight: 200;" fill="rgb(50, 49, 63)" stroke="none" stroke-width="1px">90</text><text x="0" y="103.852599147695" dx="0em" dy="0.3em" style="text-anchor: end; visibility: hidden; font-family: &quot;Helvetica Neue&quot;, sans-serif; font-size: 12px; font-weight: 200;" fill="rgb(50, 49, 63)" stroke="none" stroke-width="1px">100</text></g><line x1="39.15625" y1="0" x2="39.15625" y2="377" fill="rgb(0, 0, 0)" stroke="rgb(204, 204, 204)" stroke-width="1px"></line></g></g><g transform="translate(39, 0)" clip-path="url(#clip_0)"><clipPath id="clip_0"><rect width="1233" height="377"></rect></clipPath><g><g><g><line x1="57.9084889465651" y1="0" x2="57.9084889465651" y2="377" fill="rgb(0, 0, 0)" stroke="rgb(60, 60, 60)" stroke-width="1px" opacity="0.25"></line><line x1="160.95840965897648" y1="0" x2="160.95840965897648" y2="377" fill="rgb(0, 0, 0)" stroke="rgb(60, 60, 60)" stroke-width="1px" opacity="0.25"></line><line x1="264.00833037138784" y1="0" x2="264.00833037138784" y2="377" fill="rgb(0, 0, 0)" stroke="rgb(60, 60, 60)" stroke-width="1px" opacity="0.25"></line><line x1="367.05825108379923" y1="0" x2="367.05825108379923" y2="377" fill="rgb(0, 0, 0)" stroke="rgb(60, 60, 60)" stroke-width="1px" opacity="0.25"></line><line x1="470.1081717962106" y1="0" x2="470.1081717962106" y2="377" fill="rgb(0, 0, 0)" stroke="rgb(60, 60, 60)" stroke-width="1px" opacity="0.25"></line><line x1="573.1580925086221" y1="0" x2="573.1580925086221" y2="377" fill="rgb(0, 0, 0)" stroke="rgb(60, 60, 60)" stroke-width="1px" opacity="0.25"></line><line x1="676.2080132210333" y1="0" x2="676.2080132210333" y2="377" fill="rgb(0, 0, 0)" stroke="rgb(60, 60, 60)" stroke-width="1px" opacity="0.25"></line><line x1="779.2579339334446" y1="0" x2="779.2579339334446" y2="377" fill="rgb(0, 0, 0)" stroke="rgb(60, 60, 60)" stroke-width="1px" opacity="0.25"></line><line x1="882.3078546458561" y1="0" x2="882.3078546458561" y2="377" fill="rgb(0, 0, 0)" stroke="rgb(60, 60, 60)" stroke-width="1px" opacity="0.25"></line><line x1="985.3577753582674" y1="0" x2="985.3577753582674" y2="377" fill="rgb(0, 0, 0)" stroke="rgb(60, 60, 60)" stroke-width="1px" opacity="0.25"></line><line x1="1088.4076960706789" y1="0" x2="1088.4076960706789" y2="377" fill="rgb(0, 0, 0)" stroke="rgb(60, 60, 60)" stroke-width="1px" opacity="0.25"></line><line x1="1191.4576167830903" y1="0" x2="1191.4576167830903" y2="377" fill="rgb(0, 0, 0)" stroke="rgb(60, 60, 60)" stroke-width="1px" opacity="0.25"></line></g><g><line x1="0" y1="311.7254362911565" x2="1233.84375" y2="311.7254362911565" fill="rgb(0, 0, 0)" stroke="rgb(60, 60, 60)" stroke-width="1px" opacity="0.25"></line><line x1="0" y1="262.0554700087011" x2="1233.84375" y2="262.0554700087011" fill="rgb(0, 0, 0)" stroke="rgb(60, 60, 60)" stroke-width="1px" opacity="0.25"></line><line x1="0" y1="223.52845101351537" x2="1233.84375" y2="223.52845101351537" fill="rgb(0, 0, 0)" stroke="rgb(60, 60, 60)" stroke-width="1px" opacity="0.25"></line><line x1="0" y1="192.0495844253362" x2="1233.84375" y2="192.0495844253362" fill="rgb(0, 0, 0)" stroke="rgb(60, 60, 60)" stroke-width="1px" opacity="0.25"></line><line x1="0" y1="165.43458195339434" x2="1233.84375" y2="165.43458195339434" fill="rgb(0, 0, 0)" stroke="rgb(60, 60, 60)" stroke-width="1px" opacity="0.25"></line><line x1="0" y1="142.37961814288076" x2="1233.84375" y2="142.37961814288076" fill="rgb(0, 0, 0)" stroke="rgb(60, 60, 60)" stroke-width="1px" opacity="0.25"></line><line x1="0" y1="122.04369884197129" x2="1233.84375" y2="122.04369884197129" fill="rgb(0, 0, 0)" stroke="rgb(60, 60, 60)" stroke-width="1px" opacity="0.25"></line><line x1="0" y1="103.852599147695" x2="1233.84375" y2="103.852599147695" fill="rgb(0, 0, 0)" stroke="rgb(60, 60, 60)" stroke-width="1px" opacity="0.25"></line></g></g></g><g><g><line x1="160.95840965897648" y1="0" x2="160.95840965897648" y2="377" fill="rgb(0, 0, 0)" stroke="rgb(153, 153, 153)" stroke-width="1.5px"></line></g></g><g><g><g><g><g><path stroke="rgb(187, 187, 187)" stroke-width="2px" d="M161.17996698850817,131.67757342822858L161.44789678236043,163.92346718816867L161.82402899296073,87.35937799202861L162.1434837471692,115.03146368468418L162.1692462273473,114.0474128932023L162.27744864409533,107.32059865460923L162.3701935727365,128.56343220025033L162.55053093398325,138.00832719276914L162.56083592605447,148.4066403749697L162.60205589433943,102.4414110169642L163.40584527589624,124.60626385480768L163.7253000301047,43.125656499822355L163.9468573596364,77.27077121097727L163.98292483188575,103.86948908908954L164.23024464159553,121.88331670197604L164.29722709005858,132.70480616695764L164.6424443244452,144.98697050479973L164.68366429273016,144.43046073923904L165.0958639755798,152.1935693978943L165.1267789517935,154.56225618480835L165.27104884079088,163.2031878271753L166.18819313513134,162.52601352078824L166.4561229289836,160.85567482547586L166.6519177783372,169.89947316193073L167.0435074770444,184.07724230829578L167.46085965592965,194.49216315668716L167.74424693788876,206.6633785498773L167.75970442599564,200.96537636127837L167.8318393704943,201.14753647708383L167.8524493546368,208.38946771276906L168.09976916434658,203.8418540611273L168.13583663659594,193.27459873230492L168.36254646216324,202.4145619388793L168.96023600229526,210.79885348258637L169.6764329512465,210.47805290422497L169.89799028077817,205.3871986266982L169.91344776888502,192.2051555327422L170.46476484469645,209.94373589962746L170.63479721387193,201.56714313422555L170.84089705529675,224.31878020718597L170.99547193636536,220.21683364840442L171.4540440835356,205.56612527690905L171.76319384567284,208.1167019874092L172.29390093734176,217.30997964774318L172.61850818758583,203.58418924346165L172.8503705091888,218.13650362421288L173.27287518410967,213.48171692770873L173.51504249778384,215.6225834542188L173.60263493038934,221.42108759276712L173.6129399224606,229.29871866667193L173.76751480352922,223.60612381024646L173.77266729956483,228.55154862954015L173.8344972519923,232.75431590830377L173.8602597321704,234.07550614222117L174.0096821172034,225.01511692835598L174.79801401065333,231.37460753817032L175.08140129261247,240.9305376302362L176.25101789269834,246.23631781407266L176.6168451112274,250.7855542268971L177.25060212360873,236.62207127863175L177.60612435006655,249.90098607460646L177.68856428663648,253.93162960188636L177.6937167826721,255.68200841159475L177.9925615527381,271.0518574562717L178.8942483589717,269.94025672999555L179.60529281188735,270.79021964624667L179.61559780395856,263.37413423379513L179.8732226057396,271.9013889818266L180.23904982426865,272.28854984090117L180.61518203486895,255.48039952310882L180.6512495071183,264.9923731472434L181.20256658292973,256.719735747763L181.34683647192708,266.81476313561313L181.75903615477674,260.00502603565474L182.0784909089852,276.52053262802906L182.58343552047603,281.8341237369403L182.76892537775836,267.9345803420358L183.2068875407861,261.7846755465528L183.63454471174262,258.9117441041707L184.1085743470197,262.0779758113483L184.19616677962526,253.72391989400774L184.99480366514643,252.8826664719286L185.01541364928892,280.3272280427474L185.0566336175739,266.22089626011416L185.6337131735634,256.56772447500134L185.70584811806208,246.883029219413L186.17987775333918,253.21333208288917L186.57661994808194,244.73077094195557L187.27220691289074,250.7598951450095L187.4164768018881,259.12620651415773L188.50365346540406,260.47879020216396L188.57578840990274,256.71886255768754L188.89009066807557,261.4439893918443L189.55476265667065,260.3760216777478L190.22458714130133,257.5463983992701L190.45129696686863,272.8940062171521L190.88925912989637,273.9132518881692L191.17779890789112,283.2820682771867L191.21386638014047,285.0427157825499L191.3993562374228,279.15530351128297L191.82701340837934,264.6075346924604L192.90903757585963,263.7919482436869L193.00693500053643,283.75782379528357L193.36760972302986,292.50990031215866L193.81587687812885,281.21573940946257L194.55783630725824,283.8722283051226L194.83607109318174,275.59416834039615L194.98549347821475,286.707747853477L195.4801330976343,282.6553291306956L195.54196305006175,273.65866003710676L196.27876998315548,261.6442607907599L196.855849539145,264.06058075705937L197.61841895241682,278.9966794309069L197.8296712898773,271.26346404166986L198.99928788996314,269.25338542813955L199.40118258074156,270.2395579795575L199.4166400688484,275.1459910902596L199.49392750938273,277.9076508607102L199.6639598785582,281.19675646212863L201.0912012804251,281.3694319803059L201.14272624078131,281.681279145338L201.32306360202801,274.7027291863981L202.1371579756561,266.6859645818186L202.5235951783276,248.16332724177073L203.11097972638834,248.2119007034189L203.32223206384882,251.22761297258347L204.05388650090694,243.74113651722124L204.07964898108503,260.9993874131009L204.12602144540563,285.45614142735656L204.7494734657157,289.81614629043526L204.80099842607194,287.36768282217145L205.28018055738463,282.2276735145487L206.70742195925152,263.546269135401L206.85684434428453,272.9570364731355L206.96504676103257,276.217332793738L207.00111423328192,259.2594065586777L207.29995900334788,260.6934089316768L208.6756754448586,268.6335136286711L209.5773622510922,252.53829571340992L209.74739462026764,257.8887355964301L210.19050927933102,259.26818177504964L210.2574917277941,267.26609794752113L210.72121637099994,285.1813955142257L210.8397237798192,287.4603802691784L210.93246870846036,282.3018340165567L211.67958063362536,274.6371508345278L212.0093403799051,280.58375081799903L212.92133217820992,293.4735279612504L213.9106114170491,292.1524303929438L213.94667888929843,274.9957579870443L214.54436842943042,260.3101473472168L214.95656811228008,254.24608063623458L215.17812544181174,245.2854431354322L215.61608760483946,263.7560300909287L215.7758149819437,283.0355152477797L215.85825491851364,279.4182795950551L216.15194719254401,273.3457576443254L216.38896201018258,285.68785093932104L216.3941145062182,280.7838850011739L216.50746941900184,267.19148529720735L216.82177167717472,287.1017623484753L216.8681441414953,299.96812212915523L217.13607393534755,294.5238174552009L217.1515314234544,297.5332423625585L217.347326272808,289.79748289044096L217.4658336816273,297.90779237086576L217.50705364991222,278.700059519455L217.7440684675508,272.785842672938L218.16657314247166,276.5112943588415L218.26447056714844,288.15999197732845L218.66121276189122,285.48453471243903L219.7999143857634,285.263368800753L220.0729966756513,267.8711408500898L220.17604659636368,259.92336889148396L220.33577397346795,279.4352804933197L220.38214643778852,290.6015529104852L220.55733130299961,287.0826805788028L220.97983597792052,283.1390626614962L221.17047833123846,293.19815744787866L221.55176303787437,287.5509743740421L222.13914758593512,284.65579888354966L222.6337872053547,286.6945342428744L222.6595496855328,287.64810820360515L222.84503954281516,291.8708030358117L223.50455903537457,268.70804159891935L223.6385239323007,257.84908046284625L223.74157385301314,264.4498072512671L224.28773843278893,257.54827122725635L224.88027547688526,265.86181822519904L225.15335776677315,274.2627231510341L226.25083942236034,281.26807595147955L227.3122536056982,273.1927298835179L227.63170835990664,270.7173679916491L228.03360305068506,283.27343774194264L228.12119548329062,278.90827186406005L228.26031287625236,273.9567961047901L228.3685152930004,270.6569688048609L228.43034524542784,295.9383752578901L228.50763268596214,284.69780047636505L230.01731402439896,267.9478741600459L230.03792400854144,269.07374897507685L230.54286862003227,280.44886407828255L230.75927345352835,267.01068707322884L231.022050751345,274.3708960223726L231.14055816016426,271.375496064857L231.44455542626588,245.76966663755385L232.11953240693217,259.06512361259115L232.50081711356808,250.2084664207286L233.51070633654973,275.2948968163008L234.23720827757222,292.9804574487396L234.5772730159232,294.0547864365097L234.61334048817253,298.943815768996L234.74730538509866,286.0137242530342L234.84005031373982,293.1306289730941L235.14404757984144,281.92588418521746L235.4016723816225,272.84582912381507L236.35488414821228,282.2751014667512L236.385799124426,274.08535516248435L236.5403740054946,274.037205001406L236.5867464698152,279.7393556899673L236.6382714301714,273.64855890474377L237.11230106544852,262.8862261529722L237.1586735297691,267.01880449581535L237.26687594651713,283.78542327112893L237.5966356927968,300.24764806402123L237.69453311747364,285.49947505837577L238.7147273325265,278.4364010000725L239.17845197573237,280.90092975128096L239.62156663479573,285.05286355600083L239.9204114048617,271.7607964832778L240.6881333141692,275.4521141385219L240.6984383062404,299.18052719499696L240.8633181793803,297.4152412023157L241.02304555648453,277.7793695435324L242.06384975567988,285.31108178940184L242.18750966053474,270.5549340153293L242.51726940681448,265.81756326977654L243.36743125269186,277.6879100332157L243.89298584832517,278.70393431257514L244.0011882650732,285.6440702027594L244.68647023781074,287.9414314187649L245.0574499523754,294.63529865405246L245.17080486515906,308.9800674041725L245.49541211540316,310.7223870650356L246.00550922292962,307.79097986032406L246.99478846176874,280.2306031173293L247.57186801775825,285.6077927038607L247.81918782746806,297.23012076387505L248.03559266096408,289.46313886583215L248.89605949891273,292.4142409192825L249.05578687601698,302.22781520171463L249.7874413130751,303.58625058253557L250.06052360296297,305.3520994672456L250.1893360038535,272.59266559860464L250.30269091663715,267.41823123368727L250.84370300037733,283.66791034496146L251.35380010790377,279.50923985647006L251.42593505240245,283.1365025728899L251.57535743743546,278.85788831015276L251.6165774057204,282.2515009735945L251.7659997907534,283.152340825158L252.27609689827983,281.4853852311716L253.4663234825082,286.0092130237829L253.80123572482353,265.5847020762774L254.0434030384977,273.39510825739626L255.0687497495862,274.6251210452043L255.34698453550968,253.87850428608536L256.03226650824723,259.9921668629129L256.0374190042828,272.7276360058228L256.7587684492697,277.21377452644606L257.4182879418292,261.06084702485805L258.06234994628176,278.24707894880385L258.6445819983069,280.93229649557435L259.45867637193487,287.20885308286756L259.7317586618228,296.02212965262174L260.2573132574561,290.7303382185526L261.59696222671744,286.1011164257198L262.1585842946001,293.8893257662301L262.2307192390988,292.8418404982097L262.6274614338416,275.38898103925436L262.65837641005527,286.0971913864716L263.21999847793796,295.89674054511994L263.69402811321504,297.08812452986484L263.98772038724536,294.79249509670314L264.1938202286702,306.46791148139357L264.2865651573114,312.8150246360126L264.3174801335251,304.3214496599087L264.33293762163197,271.92739622306124L264.7245273203391,293.74712241546763L264.72967981637476,279.2258538378484L264.9718471300489,285.94613674638657L265.1315745071532,261.4985938278561L265.2706919001149,267.71164146750425L265.28614938822176,279.7868353719134L265.3119118683999,289.83243538546924L265.6777390869289,293.74083965678625L265.9868888490662,294.5806724595691L266.2805811230965,295.35945028113485L266.5124434446995,319.5721930030199L266.7236957821599,293.5629232218006L266.790678230623,289.8062135169639L266.7958307266586,291.3710567453932L266.9091856394423,280.78258849299914L266.99162557601215,304.5586296966561L267.6717550527141,318.59061795841797L268.0272772791719,310.0269809121917L268.0427347672788,295.1327846664634L268.0478872633144,286.04600905499126L268.2952070730242,286.5806314663063L268.4188669778791,288.3100314747651L269.57817858589374,285.8380788391853L269.90793833217344,282.3260205652325L270.2428505744888,307.630521774087L270.36135798330804,299.1963357196475L270.79416765030015,313.1987619006744L270.809625138407,298.7837132986921L270.8353876185851,285.3422121203554L271.1806048529717,280.1951814263689L271.27334978161286,284.7405535536463L271.6597869842844,302.5455195066388L271.8607343296736,302.680647657094L272.67482870330167,273.13246533211367L273.2622132513624,279.7303278099407L273.3961781482886,297.2200712567621L273.50438056503657,300.6046942770864L273.5352955412503,311.5327163785332L274.3493899148784,300.36313447111L275.5808364673917,286.83943689661805L275.82300378106584,289.79232074842287L276.01879863041944,278.12397869889486L276.1630685194168,281.60610870267294L276.75045306747757,272.79738829470466L277.12143278204223,268.55510480566824L277.5903099212837,279.07319315826453L278.26013440591436,279.1523727491085L278.64657160858593,280.9864516829647L279.11029625179174,263.9318423210381L280.18201542720084,285.1696437384208L280.233540387557,293.55460806932297L280.40872525276814,293.3193054541623L280.46025021312437,293.5554089703562L280.59421511005047,292.51316425130483L280.8260774316534,295.96653652136587L280.94458484047266,277.8011100357145L281.33102204314423,293.2612302131571L281.6710867814952,298.6686870197426L282.2533188335203,289.07020071533714L282.50579113926574,294.8722019893741L282.92314331815095,289.1058019363666L282.9798207745428,295.3390832889726L283.0828706952552,299.62870916815626L284.30401225569733,296.00182700966116L285.03051419671976,285.11117074397373L285.231461542109,280.94845961060946L285.380883927142,303.3857293459643L285.82915108224097,306.47147227123594L286.07647089195075,309.2185445045941L286.086775884022,306.08004013761604L286.2825707333756,308.0135435426353L286.4010781421949,297.3147470188978L287.4934073017464,301.9373563788388L287.82316704802616,299.3118344623658L288.328111659517,292.92712599818566L288.3693316278019,296.199264610275L289.2658659379999,289.8726777226782L289.43589830717536,297.10353678772543L289.8171830138113,281.6860103864169L290.01813035920054,288.1167648926276L290.46124501826387,264.8918537487899L290.9661896297547,272.08897106129757L291.0331720782177,276.0187360775821L291.0795445425383,288.0725891716153L291.48659172935237,296.8819819669488L291.79058899545396,304.9924221844443L292.3779735435147,298.53956829742253L292.455260984049,298.02522176643794L292.86230817086306,287.3964850049611L293.3105753259621,308.61773590528173L293.9597898264502,297.7079559929918L294.140127187697,279.6009121026073L294.52141189433286,278.6695879780287L295.2685238194979,288.9850092980583L295.3973362203884,286.7874936791359L295.7270959666681,292.3620339462743L295.7992309111668,284.35965453284473L296.4329879235481,279.86327313762405L296.48966537993994,274.8492696213752L297.004914983502,275.37732753297996L297.3501322178886,291.48551204038864L298.38063142501267,290.64566263960523L299.0349984215365,301.5965761785385L299.04015091757213,314.25675008920086L299.1895733026051,304.8798608621691L299.19987829467635,312.96691857726984L299.7099754022028,308.0677260073098L300.81260955382555,294.72210502441095L300.8435245300393,315.04508365136326L300.87443950625305,304.0530260793324L300.89504949039554,287.73511230639315L300.9002019864311,296.55229063805734L301.4927390305275,298.30115452842256L302.68296561475586,298.58683808955726L303.1879102262467,296.7103133467599L303.2394351866029,308.88174970393305L303.2755026588522,312.80479706368646L303.3682475874934,282.24750169285426L303.88864968709106,288.21459123213543L304.33176434615444,278.7734541366221L304.80064148539594,271.2104882147081L304.81094647746716,274.4149754426084L304.975826350607,291.47797750097607L305.0685712792482,280.63485604579137L306.5267276573288,309.3219661832462L306.8874023798223,298.26692271550706L307.4902444159899,293.60659313903943L307.5572268644529,273.7206315774471L308.03125649973,290.16630483470874L308.180678884763,283.8212587719209L308.3816262301522,275.8234444625555L310.23137230694,292.121097760145L310.36533720386615,297.5284745343494L310.47869211664977,292.0335744280187L310.5765895413266,278.95303251317216L310.70540194221707,257.8037702797703L310.787841878787,272.80671347843906L311.42159889116834,262.67193137341746L311.74105364537684,263.88321353793L312.8127728207859,263.4328420299915L312.84884029303527,256.99966288951686L312.8952127573558,267.89499662433343L313.15283755913686,268.2198204755931L313.27649746399175,279.494971015854L313.53412226577274,284.0987175978341L314.23486172661717,290.65288210660975L314.65221390550244,260.3740049325973L314.65736640153807,268.6067170644709L315.53844322362914,285.7642891737504L315.56420570380726,280.42909104115586L315.6981706007334,281.2480145541579L316.0124728589063,298.29178964855964L316.4349775338271,304.2431065238835L316.790499760285,299.8968152550228L317.0017520977454,303.92734133989177L317.2233094272771,300.8273031093787L317.903438903979,300.48711344431507L317.9601163603709,315.5579284956276L318.69177079742894,321.7436825518739L319.1761054247773,314.01523411970874L319.248240369276,304.41923176292016L319.3409852979172,290.4346308285366L321.23195134298993,295.40870471723633L322.7828526497117,289.7940511174834L322.97349500302965,302.36363787403053L324.2770765000417,310.69091847313916L324.8541560560312,309.35988538942115L325.1890682983465,293.9036127796284L325.22513577059584,294.94674918613623L325.2663557388808,295.6896963786652L325.51367554859064,286.74945626695427L325.5600480129112,285.9419289906278L325.86404527901277,283.85205013780796L325.93102772747585,287.7021131869394L326.73996960506827,282.84720128526726L326.91000197424376,291.4733729854529L327.12640680773984,294.65736356431194L328.08477107036526,306.10509591597025L328.6360881461767,322.7268296543084L328.99161037263445,304.3310153203163L329.2286251902731,292.6835911737397L329.48109749601844,295.9416562428826L329.7696372740132,302.813479572123L330.4497667507151,277.7661774504848L330.4909867190001,285.62720850279356L331.00623632256213,289.3140672044666L331.06806627498963,296.5862239916172L331.171116195702,297.36222382451604L331.7791107279052,278.7672710566636L331.91822812086696,281.67627269959235L331.92853311293817,295.3055588681327L332.3922577561441,314.62776765746486L332.7529324786375,321.5015139067202L332.9281173438486,322.6208207008103L333.072387232846,318.85189064701484L333.77312669369036,302.3744929286664L334.2471563289675,299.36517568144893L334.7469484444226,294.78314380398285L334.7933209087432,285.7156442846947L334.85515086117067,275.02280077032066L334.9530482858475,280.4953850364046L335.040640718453,297.77862262666L335.3188755043766,292.47432589766106L335.380705456804,286.2926019213087L335.50951785769445,293.084962709092L335.7001602110125,284.76067031525815L336.236019798717,292.9063026955408L336.33391722339377,309.69672931618584L336.6069995132817,300.86728221890496L336.874929307134,291.9072764646661L338.0136309310061,287.5588342071843L338.12183334775415,289.1898531655857L338.4052206297133,288.99293928721363L338.8534877848122,305.14724766651557L338.8586402808479,304.9192015817715L339.05443513020145,307.0932039748084L339.2347724914482,290.03463889222104L340.18283176200237,295.9930061353464L340.67231888538635,300.4483885506272L341.8934604458284,285.5850665868607L342.2129152000369,296.1778847216089L342.6096573947796,293.3086506127281L343.0167045815937,289.18791617326497L343.1249069983417,289.7338185224262L343.1661269666267,288.81572048023327L343.24341440716097,285.026709425424L343.7792739948655,291.30842511152497L343.78957898693676,289.9326257889771L344.2533036301426,295.04865827124183L345.2734978451955,307.16270661527665L345.3095653174448,286.1959085661221L345.6496300557958,297.7190600454053L345.6753925359739,312.6235013344359L346.21125212367843,293.34176453563214L346.29884455628394,283.38235900416623L346.6440617906706,300.82418423382137L347.7209334621152,304.4433673168934L347.80337339868515,303.52697165781797L347.87035584714823,309.7566431897844L348.050693208395,284.89495872891354L348.18465810532115,284.4840784720907L349.38518968162066,302.09375101032646L349.69433944375794,309.4994757524597L349.8489143248266,287.7726081800057L349.9468117495033,280.44919457335766L350.4053838966736,294.7111899651458L350.6269412262053,294.76769934577095L350.67331369052584,299.34405698336576L350.83304106763006,281.23552094076246L351.12673334166044,294.3719415840858L351.87899776286105,303.31334305522563L352.47668730299307,302.690331152739L352.6467196721685,297.8083848851848L353.95030116918053,307.2195728752619L354.1254860343916,293.5349749644904L355.54242244418725,288.9191614244971L356.11950200017674,286.3636669455782L357.7476907474329,302.5447691549872L358.031078029392,283.1484724605267L358.1083654699263,295.39904574662205L358.6390725615952,300.75099195225795L359.0203572682312,309.5957155862246L359.1027972048011,309.22139922079026L359.1594746611929,319.66663372139527L359.33465952640404,317.26638129802933L359.74685920925367,293.5646249838472L360.0611614674265,273.98175219711544L360.0663139634621,272.92569597539887L360.3651587335281,284.3050045409683L360.4682086542405,300.53538662849763L360.68976598377225,314.91955241418844L361.08650817851503,313.7848665328462L361.8130101195375,292.46698276797315L361.9366700243924,301.8475033376207L362.6374094852368,302.15859100251123L363.1320491046564,298.3468548229321L363.436046370758,305.0678291948079L363.49272382714986,310.1674463195086L364.9560327012661,296.1668151137436L365.52795976121996,307.8863633454355L365.6722296502173,285.4692621657973L365.935006948034,294.722563402628L366.43479906348915,293.0202742458743L366.59452644059337,292.4558657687095L366.62028892077154,301.8376202787142L366.70788135337705,282.109717502919L367.1664535005473,286.37516207693193L368.58854240637856,308.4308977940093L369.5778216452177,297.3632061763788L369.6396515976451,312.88189503323554L370.39706851488137,318.450230290155L370.44859347523754,305.94844253682277L370.4795084514513,322.3470013090685L370.5001184355938,279.0985775252964L370.659845812698,277.1073713959953L370.67015080476926,288.71679944459186L370.7422857492679,307.2682200668809L370.7732007254817,307.3264931145747L371.149332936082,307.63111443167816L372.42199945688026,293.94520054042084L372.87541910801485,284.2303186858592L373.00938400494096,287.513784012625L373.4731086481469,292.17764227462357L373.6122260411086,292.0332454407364L373.972900763602,296.11008285362334L374.3232704940242,286.0960297280379L374.74577516894516,293.3064919416521L374.9930949786549,304.39832386277743L375.0755349152248,306.09127938565985L376.23484652323947,312.74252967523375L376.70372366248097,326.76807071334235L377.3993106272897,318.3025632762979L377.43537809953904,319.24633182376806L378.0588301198492,318.2406009547937L378.18249002470407,318.7527756055881L378.30614992955896,300.5851480048525L378.62560468376745,294.882464001063L379.1150918071514,292.05498408660304L379.6870188671053,310.85785667650845L379.7797637957465,297.1191446440537L380.86178796322673,289.32575783936824L381.36673257471756,308.9076110026098L382.16536946023876,301.07490786486034L382.3354018294142,300.5311620393465L382.4229942620198,291.65287137499126L382.623941607409,286.3250090407162L383.95328558459914,282.05722320093315L384.9631748075807,278.9185651709124L385.189884633148,274.9782944375899L385.37022199439474,288.7236049537095L385.5247968754633,299.51835277383634L385.64845678031827,281.25091477498313L385.8133366534581,255.19815989023004L386.1843163680228,276.04547583044746L386.3234337609846,299.0766775486796L386.344043745127,294.45331300208323L386.42133118566136,296.8274445901836L386.5552960825875,299.3682709852276L386.66865099537114,300.5524752870183L387.54972781746227,305.7575795392157L387.57033780160475,306.4001354086057L387.6373202500678,293.46317056775376L388.0495199329174,283.04183449637446L388.07012991705994,278.1162942659384L388.2556197743423,287.75865873044063L388.70388692944124,290.8035494286769L388.7399544016906,291.02870054718284L388.9666642272579,270.2268983570449L389.2397465171458,287.7341933479723L389.44069386253506,296.427215110568L390.25478823616305,313.3585754945589L390.6875979031552,311.7278736510232L390.6927503991908,330.13194483435376L390.99674766529245,317.4989588869694L391.4295573322845,321.65303143462944L391.8056895428848,318.10384062253985L391.8778244873835,290.79200998844226L392.64039390065534,302.70735316106504L392.79496878172404,297.19704425299153L393.0989660478256,300.30345722209245L393.36174334564225,295.2397305425782L394.4231575289801,275.9418721819937L394.4695299933007,279.2064766426822L394.7426122831885,271.3058978697962L395.4381992479974,285.5662873814424L395.6236891052797,277.9737333219384L396.2162261493761,305.6298613945666L396.79845820140116,312.7660589411667L397.14882793182335,337.3654591577093L397.3291652930701,317.96272882941287L398.1020396984132,324.58228941680665L398.14841216273373,293.99812185941715L398.2875295556955,294.3641254136763L398.44210443676417,289.10316435451386L398.6172893019753,297.4629845346292L398.84915162357817,294.8860869589296L399.03464148086044,303.458959282361L399.6168735328856,297.2742267244313L399.69931346945555,300.34610606629656L400.01876822366404,300.47418618430027L400.1063606562696,285.15428201392746L400.549475315333,290.83440404601663L401.5645170343502,310.0791667837499L401.8324468282025,325.878952874524L404.15107004423174,313.6180192430803L404.37262737376346,328.420373128495L404.6457096636513,338.9450389308834L404.6817771359007,328.834752804785L404.78482705661304,313.3646258578004L404.9187919535392,301.7934545858896L405.382516596745,307.968187875744L405.65044639059727,304.7529328767052L405.95959615273455,329.358951718436L405.99566362498393,323.6379889327314L406.1450860100168,328.31738385791783L406.4181682999048,322.24372410768876L406.43877828404726,312.6005532678324L406.50576073251034,308.4941451527831L406.577895677009,318.60819071768987L406.7015555818639,302.18070389136903L406.76338553429133,314.3228864491007L406.9282654074312,307.5825231671737L406.9643328796805,311.5740748921695L407.0364678241792,325.5663555035646L407.6186998762044,324.4772472446015L407.67537733259616,319.0197772550116L407.7062923088099,321.7545121413635L407.91754464627036,322.9818810665119L407.93815463041284,306.0601797448958L408.0102895749115,303.29850017499297L408.1287969837308,298.1002313001915L408.6749615635066,301.95757711319294L409.21597364724676,307.8277097604955L409.2984135838166,314.876452258897L409.4529884648853,343.3480168146855L410.45257269579565,316.1854707733691L410.9317548271084,329.8113082524394L410.9729747953934,308.2216709346834L411.5294443672404,306.3285781564026L411.63249428795274,305.7813668930238L412.6320785188632,308.84601244019103L413.3431229717788,310.34198790159286L414.8373468221088,305.406394791548L415.1155816080323,280.6300599464792L415.24439400892277,290.52572802567767L415.893608509411,304.40609716115364L416.3109606882963,310.9865255490129L416.6252629464691,300.51188766773663L416.7231603711459,301.7226248456947L417.0271576372475,289.64994842801264L418.03189436419353,289.0902325107377L418.6192789122543,284.798851443222L418.8769037140353,291.48845909605484L419.35608584534805,294.11440531424864L419.438525781918,296.07738792695386L419.59310066298656,312.5988768420147L419.96923287358686,310.341143075677L420.5566174216476,310.2490451168101L421.0100370727822,312.5708467790893L421.3604068032044,321.52314786711565L421.8292839424459,327.6865359296797L421.83958893451717,296.8001055271053L421.87050391073086,294.4466464374072L422.8082581892138,304.99559542066265L423.6326575549131,309.2816640528742L423.8181474121954,328.55327792019096L424.4106844562918,330.85590794508494L424.43129444043427,320.34675704789817L424.91047657174704,301.89519871803225L425.19386385370615,290.0461621160519L425.5030136158434,302.0927833647695L425.9925007392273,307.61694066596215L427.60523199837655,302.43228448386265L427.83194182394385,317.8748302662537L427.85255180808633,317.95606196454816L427.8937717763713,328.1288655411468L428.6563411896431,319.5306824096142L428.89850850331726,313.7949249154175L429.2385732416683,304.04565137583364L429.2488782337395,316.29708676931756L430.1144975677238,302.8495075213171L430.3978848496829,302.70354966277284L430.54215473868027,310.538851292892L430.71218710785575,318.03360932667533L430.83584701271064,323.73254029645534L430.8873719730668,310.1540404978531L431.5211289854482,316.65015524050665L431.61387391408937,318.6844919892362L432.1961059661145,311.8433999840128L432.40735830357494,321.3257167426699L433.0256578278494,310.89675658723286L433.56151741555396,306.9757096719175L433.7315497847294,306.4696573360342L434.06130953100916,294.4887283589838L434.11283449136533,284.40193946452786L434.51988167817933,276.1200913952018L434.5971691187137,283.94972999353195L434.7878114720316,293.76186615975035L436.1120029531861,311.48181068775773L436.15322292147107,327.2865473353606L436.4572201875727,320.1864746979502L436.52935513207143,317.76395678168865L437.3846694739844,316.4134735773931L437.6835142440504,317.3376546272053L437.71958171629973,324.2516571314576L437.7401917004422,343.9966736643524L437.7608016845847,327.9950239003371L438.48730362560724,315.0548774359552L438.65733599478267,310.092483630565L438.71401345117454,333.08782235850896L439.31685548734214,313.62873348342845L439.5693277930875,319.50872449493005L439.6466152336218,329.7678502973503L439.75481765036983,332.59874696075826L439.8321050909041,327.9304599081831L440.44009962310736,303.0441317433357L441.0944666196312,297.8440321068258L441.599411231122,316.16033765375005L442.23316824350337,302.23066698141986L442.4186581007857,287.34543810328694L442.5320130135693,304.56261088662995L442.7587228391366,297.75421962818643L442.90299272813405,299.21892363769695L443.35641237926865,287.31593374212815L444.0262368638993,291.81855476551925L444.25809918550226,291.9552654598119L445.3452758490182,311.894972680935L445.89144042879394,312.1078088643573L445.90689791690085,313.28262898490357L446.04086281382695,291.76861511104084L446.2005901909312,301.2773612471561L447.12288698130726,308.6978963691852L447.1486494614854,319.25417398431597L447.18986942977034,309.2788093703682L448.0245737875409,305.6688021721135L448.2976560774287,298.0877280122681L448.4470784624617,303.5202942081831L448.83351566513335,319.2618511048054L449.312697796446,309.02915123466846L449.3281552845529,315.8781693651282L449.97221728900547,308.5566363326112L451.06969894459263,316.6669717906393L451.2397313137681,326.222763178196L451.45613614726415,292.1827920447995L451.62101602040406,276.1694320899185L451.7292184371521,290.2399313476441L452.1156556398236,294.840140157634L452.18779058432233,294.36372301414946L452.22385805657166,294.1206238054249L452.6360577394213,301.70909219310414L453.5583545297973,309.94337257371217L453.7283868989729,318.45514513997733L453.9138767562552,307.1362815225907L454.6506836893489,298.7764866221971L454.8413260426669,300.49970900965104L455.87697774582665,318.8553893819621L456.0006376506815,336.999966252931L456.1964325000351,301.4927273014221L456.2273474762488,294.3538272715456L457.0723568260906,283.7107086733276L457.14964426662493,284.81509400519144L457.324829131836,291.19927716045856L458.1904484658202,317.15858453086446L458.5717331724562,325.0927549745376L459.1385077363744,316.7128116315467L460.272056864211,294.71147841292753L461.3283185515132,297.75744381331884L461.59109584932986,314.6049706747069L462.07543047667815,294.6876112859202L462.6731200168102,308.9313222153357L462.9565072987693,312.7313058377982L463.11108217983787,307.20263549342116L463.1316921639804,292.49433170047587L463.3480969974765,294.5998144365104L463.5129768706163,305.2110894693117L463.6520942635781,318.57434984780303L463.7396866961836,321.1230204407482L463.81697413671793,301.21740848879546L463.8684990970741,294.0066139044154L464.3013087640663,311.2672526841617L465.03296320112435,302.28339912808553L465.11540313769433,299.614940002074L465.1308606258012,309.56170492471244L465.146318113908,313.5350584232407L466.32108721002953,325.30541236395266L466.5632545237037,317.81365816902206L467.1867065440138,303.4124219424039L467.9286659731431,317.61591751983366L468.17598578285293,319.7566977510723L468.25842571942286,327.00004751494225L468.41300060049144,321.65039527633206L468.66547290623686,303.12176732089944L468.758217834878,302.2664199403886L468.8303527793767,287.8187352932217L469.17557001376326,305.3734564860325L469.40227983933056,325.0904427991967L469.54139723229235,331.0901010498887L470.15454426053117,326.69875133544167L470.5564389513096,323.40984719539733L471.03562108262236,291.22629539696015L471.06653605883605,308.56175403158227L471.1798909716197,330.6831922852157L471.64361561482553,314.2144264924067L472.16401771442327,315.439730089577L472.560759909166,326.4185141211416L472.70502979816337,321.56154163240905L473.1842119294761,330.59515995076345L473.40061676297216,324.768393848901L473.57064913214765,323.2682020728725L473.905561374463,338.4474478609237L474.6011483392718,344.3324430781644L475.37917524065045,353.869498703056L475.8944248442125,345.9246836395278L476.3220820151691,335.3068095703341L476.68790923369806,338.0474382410784L477.18770134915326,331.23899617628047L477.2495313015807,332.13947379912366L477.39380119057813,322.3467530067357L477.5226135914686,324.4502319987555L478.01725321088816,316.6874254224551L478.76951763208876,315.14067424889066L479.1147348664754,325.3723087439878L479.3465971880783,300.95378447054674L481.1345133124386,287.4101048408313L481.2684782093648,292.43944285328814L481.4385105785402,289.360694962731L481.54671299528826,306.6404665534179L482.3968748411657,304.57659782701296L483.0770043178676,288.35417152403306L483.2367316949718,301.13259816268794L483.2779516632568,287.95554450364267L484.9215978986198,310.8991788659672L485.22559516472137,316.54180800676437L485.36986505371874,307.3410278395735L485.3853225418256,295.55577182273765L485.69447230396287,310.6929128599363L486.7043615269445,314.28761460750314L487.4154059798601,322.8202054720737L487.77608070235357,324.62702869536724L487.78123319838915,315.3971413888154L488.2140428653813,291.9829221859944L488.73444496497893,313.00286655677945L489.0126797509025,307.8049134978664L489.0281372390093,310.67031090478224L489.5949118029276,313.11550630359227L489.86284159677984,308.88745500305873L490.02772146991975,301.64588912124265L490.1204663985609,306.84950524372647L490.6614784823011,296.5832600372888L491.14066061361376,312.5018197280772L491.2282530462193,326.17312525964195L491.3879804233236,312.14476475467256L491.6146902488909,307.7562641408226L491.74865514581705,299.4357972817799L491.88262004274316,297.39963764588214L493.3562339089306,295.6816193656727L493.40775886928685,307.07080308944205L493.41806386135806,282.80265531671563L494.2630732111998,304.4077560629181L495.29357241832395,322.6049837373533L495.3038774103952,304.18319494770196L495.81912701395726,300.09524857479727L495.87580447034907,281.9084296807299L496.02007435934644,273.48804722123566L496.1540392562726,299.68192252152517L497.13816599907614,297.59688967226793L497.28758838410914,298.53875794656807L497.3803333127503,316.12941056576767L497.6791780828163,312.40402990390726L497.79768549163555,304.98735641743156L497.8079904837068,297.57182914249177L498.1480552220578,315.20512365205764L498.19442768637833,320.4395063761439L498.35415506348255,302.05908921314324L498.4623574802306,319.15542765455467L498.5911698811212,321.98589094021315L498.97245458775706,308.96696666396394L499.1888594212531,319.0836564854454L499.5289241596041,339.07187274599113L499.977191314703,343.5591407491114L500.549118374657,307.05777608026034L500.7603707121174,321.584547698705L501.2344003473945,327.5236535786221L501.28077281171505,288.6962683352016L502.5637443245846,291.4136287684501L503.115061400396,304.7306965792401L503.7797333889911,285.36617000366726L504.3619654410162,321.36746133501254L505.08331488600305,305.601502494745L505.91286674773795,314.4844331332766L506.0571366367353,319.7692209486785L506.0983566050203,311.87233833593837L506.28899895833825,320.63511537953656L507.4586155584241,308.8343088406757L507.56681797517217,324.24226583522926L508.4478947972633,317.6607075063497L508.62307966247437,334.47992754976383L508.8240270078636,327.00533692003955L509.8442212229165,305.56390960696945L511.71972977988236,313.9422960027683L512.3586392882993,310.12332788372044L512.688399034579,322.1794188852923L512.6935515306146,321.21851497243586L512.7811439632202,334.5900836270424L512.9048038680751,325.7748684512508L512.9357188442888,326.04132353922L513.0851412293217,321.8718085163699L513.2809360786754,315.52403302512937L513.5437133764921,328.3255512712588L513.9713705474485,311.3271275583335L514.373265238227,318.0293717338935L514.8936673378247,318.25353490393525L515.5274243502059,316.7207682402375L516.0890464180885,335.7735944676415L516.1199613943023,338.4730563408092L516.4239586604039,348.0389345384063L517.3668654349225,328.3568674514023L517.3720179309581,322.28723427675783L517.4390003794211,318.0746549103521L518.1655023204437,322.93900021152893L518.4231271222246,318.6193399666257L518.8301743090387,303.96621960897033L518.9383767257867,306.0817055859345L519.6854886509517,323.8107263464791L519.8967409884123,347.6562860014059L520.0358583813739,323.12818869163084L520.1904332624425,314.4985013062784L520.5974804492565,332.56332110174606L521.0715100845337,319.1950784384308L521.2003224854242,320.74065527377974L521.4218798149559,330.14584134469214L521.6331321524164,322.1559543533239" style="fill: none;" fill="none"></path></g></g></g></g><g opacity="0.2"><g><g><g><path stroke="rgb(187, 187, 187)" stroke-width="2px" d="M161.17996698850817,131.67757342822858L161.44789678236043,186.62474699725743L161.82402899296073,36.33241447222389L162.1434837471692,154.51631462826427L162.1692462273473,112.77102016761671L162.27744864409533,98.42698092024358L162.3701935727365,164.35506408208894L162.55053093398325,152.776678384599L162.56083592605447,164.98432828629828L162.60205589433943,51.00222266954722L163.40584527589624,164.0482340971754L163.7253000301047,-33.90103096660613L163.9468573596364,145.7207252227366L163.98292483188575,153.42637963772032L164.23024464159553,152.98145879952565L164.29722709005858,150.31717641113562L164.6424443244452,165.21603653305183L164.68366429273016,143.59918539875414L165.0958639755798,164.53342989076197L165.1267789517935,158.17713186189997L165.27104884079088,177.03333489709354L166.18819313513134,161.51522818330767L166.4561229289836,158.38011284099403L166.6519177783372,184.42050866067342L167.0435074770444,207.79879676135263L167.46085965592965,211.39647475104934L167.74424693788876,226.6977331929403L167.75970442599564,192.75616794487303L167.8318393704943,201.42113734222764L167.8524493546368,219.85585943363787L168.09976916434658,197.23742917485205L168.13583663659594,178.5455526026394L168.36254646216324,217.1011829016994L168.96023600229526,224.1919366032197L169.6764329512465,209.99796689975042L169.89799028077817,198.02176063593114L169.91344776888502,174.14630186924387L170.46476484469645,240.52110622825415L170.63479721387193,189.7182268421845L170.84089705529675,265.296837956733L170.99547193636536,214.24104624287017L171.4540440835356,185.68634069323588L171.76319384567284,212.01463702135845L172.29390093734176,232.08844600819756L172.61850818758583,184.84711825644078L172.8503705091888,242.56008720709093L173.27287518410967,206.7266989083922L173.51504249778384,218.88449506518674L173.60263493038934,230.50117938259606L173.6129399224606,241.83304790351028L173.76751480352922,215.40439075475427L173.77266729956483,236.24587579291534L173.8344972519923,239.25674255715043L173.8602597321704,236.07644328496485L174.0096821172034,212.25808537424945L174.79801401065333,241.3758542726212L175.08140129261247,256.3357969474006L176.25101789269834,254.5138248815527L176.6168451112274,257.84237204834085L177.25060212360873,217.34253588158447L177.60612435006655,271.9558590096031L177.68856428663648,260.15971057247145L177.6937167826721,258.3413055972151L177.9925615527381,297.0228670268978L178.8942483589717,268.2861604552809L179.60529281188735,272.07306138396706L179.61559780395856,252.8150909897801L179.8732226057396,285.53801817572526L180.23904982426865,272.8709238201843L180.61518203486895,232.98741979376078L180.6512495071183,280.32146845549477L181.20256658292973,245.00961276653103L181.34683647192708,283.1584551953416L181.75903615477674,250.26897679461854L182.0784909089852,304.6962218366151L182.58343552047603,290.12430693190265L182.76892537775836,248.98179584224394L183.2068875407861,252.9520089330474L183.63454471174262,254.6900392576602L184.1085743470197,266.9389285219401L184.19616677962526,241.9050764935916L184.99480366514643,251.62842229504366L185.01541364928892,331.9484745980523L185.0566336175739,247.0120178743735L185.6337131735634,243.03017965081125L185.70584811806208,233.30415108053006L186.17987775333918,263.16645633445967L186.57661994808194,232.74057425501002L187.27220691289074,260.21771451643565L187.4164768018881,272.48869868491244L188.50365346540406,262.52774341792906L188.57578840990274,251.2281762465451L188.89009066807557,268.78336261445656L189.55476265667065,258.786355025861L190.22458714130133,253.38705960345214L190.45129696686863,298.8226362118028L190.88925912989637,275.4534917607199L191.17779890789112,298.3634797545983L191.21386638014047,287.7178156695235L191.3993562374228,270.68430176879315L191.82701340837934,244.85425426957346L192.90903757585963,262.57574709476336L193.00693500053643,318.8419281657187L193.36760972302986,306.53063095101584L193.81587687812885,265.5494611140301L194.55783630725824,287.93520683140787L194.83607109318174,263.87680073400674L194.98549347821475,304.8466505022903L195.4801330976343,276.7496455497077L195.54196305006175,260.98589885508864L196.27876998315548,245.05819191215346L196.855849539145,267.7496745409038L197.61841895241682,304.1440492518349L197.8296712898773,260.27668317505356L198.99928788996314,266.28147578260683L199.40118258074156,271.72945943127047L199.4166400688484,282.77740688778334L199.49392750938273,282.13477430874195L199.6639598785582,286.25096823481135L201.0912012804251,281.62876949364556L201.14272624078131,282.1501085399788L201.32306360202801,264.7368659277996L202.1371579756561,255.31829671507091L202.5235951783276,223.64423736832515L203.11097972638834,248.28478652781828L203.32223206384882,255.85230645422442L204.05388650090694,233.08699201195154L204.07964898108503,290.6275419734074L204.12602144540563,330.1926980727203L204.7494734657157,296.5698130320673L204.80099842607194,283.75888566987567L205.28018055738463,274.79365833849397L206.70742195925152,238.84176099796815L206.85684434428453,288.1109714213664L206.96504676103257,281.2262008606919L207.00111423328192,236.5876699129552L207.29995900334788,262.8669944550715L208.6756754448586,281.2733648691773L209.5773622510922,230.900884843207L209.74739462026764,266.23873990813104L210.19050927933102,261.35823852508986L210.2574917277941,280.0036880571422L210.72121637099994,316.1099760464545L210.8397237798192,290.93627282579473L210.93246870846036,274.8419697556121L211.67958063362536,263.74264843267645L212.0093403799051,289.90625261115287L212.92133217820992,314.8144230279899L213.9106114170491,290.1895463457796L213.94667888929843,252.0873428396944L214.54436842943042,240.38750889513273L214.95656811228008,245.5315387898197L215.17812544181174,232.66036601067822L215.61608760483946,295.79523213801235L215.7758149819437,316.7119544215877L215.85825491851364,274.13066849995L216.15194719254401,264.61957405179123L216.38896201018258,306.031549223279L216.3941145062182,273.6796056868046L216.50746941900184,248.62034888658016L216.82177167717472,322.0712067809775L216.8681441414953,321.26619696455026L217.13607393534755,286.66631263491615L217.1515314234544,302.1480785455522L217.347326272808,278.80727807595855L217.4658336816273,310.83565233632163L217.50705364991222,253.38350494227035L217.7440684675508,264.2778493305569L218.16657314247166,282.2546728734335L218.26447056714844,307.25387766032105L218.66121276189122,281.5475133419667L219.7999143857634,284.9321502258548L220.0729966756513,244.68298371524517L220.17604659636368,248.6482428464584L220.33577397346795,313.5864754603015L220.38214643778852,308.834127284532L220.55733130299961,281.93529448456974L220.97983597792052,277.38755115272136L221.17047833123846,309.4790495841405L221.55176303787437,279.41211175961257L222.13914758593512,280.4020762620316L222.6337872053547,289.79849845577235L222.6595496855328,289.08841727266883L222.84503954281516,298.40503779851775L223.50455903537457,238.91803873254068L223.6385239323007,242.74283803294063L223.74157385301314,274.849612175841L224.28773843278893,247.68718536534413L224.88027547688526,279.1345863251441L225.15335776677315,287.6840807311284L226.25083942236034,292.3397141295692L227.3122536056982,261.74655293771406L227.63170835990664,267.06962160079865L228.03360305068506,304.0056727522761L228.12119548329062,272.56072581618366L228.26031287625236,266.786062037744L228.3685152930004,265.8225470271583L228.43034524542784,342.5361007334687L228.50763268596214,269.1003052878011L230.01731402439896,245.52447642191598L230.03792400854144,270.77644781010565L230.54286862003227,299.0534789805929L230.75927345352835,248.63175881484284L231.022050751345,286.035194179944L231.14055816016426,266.9776364373183L231.44455542626588,213.32251755985288L232.11953240693217,281.15044890443806L232.50081711356808,237.7211261415197L233.51070633654973,321.4499588291298L234.23720827757222,323.45266504079416L234.5772730159232,295.6789190147465L234.61334048817253,306.5471633358032L234.74730538509866,268.2707632866247L234.84005031373982,304.3882243226589L235.14404757984144,266.37440755838486L235.4016723816225,260.0628039091707L236.35488414821228,297.4610425702159L236.385799124426,262.48604207921016L236.5403740054946,273.9650049281093L236.5867464698152,288.66202576459284L236.6382714301714,264.8972179125094L237.11230106544852,247.90476865383928L237.1586735297691,273.4092722928259L237.26687594651713,312.4501081438788L237.5966356927968,328.3198496957298L237.69453311747364,265.5000692893407L238.7147273325265,268.3556696432205L239.17845197573237,284.66496630692893L239.62156663479573,291.4741935894545L239.9204114048617,253.5643217160822L240.6881333141692,281.1414190161647L240.6984383062404,342.2970706605135L240.8633181793803,294.80069924857486L241.02304555648453,251.96791262513304L242.06384975567988,297.26298395811637L242.18750966053474,250.5457472359987L242.51726940681448,258.9466574174428L243.36743125269186,297.1797798643288L243.89298584832517,280.2392700475747L244.0011882650732,296.6071399976586L244.68647023781074,291.44582679262174L245.0574499523754,305.1893814025308L245.17080486515906,333.01416394218694L245.49541211540316,313.36928353625683L246.00550922292962,303.4851273464127L246.99478846176874,245.71307492333474L247.57186801775825,294.0012440673519L247.81918782746806,316.2767532998882L248.03559266096408,278.4309230609076L248.89605949891273,296.9376826944089L249.05578687601698,318.08056643931627L249.7874413130751,305.644156364658L250.06052360296297,308.0352047715859L250.1893360038535,232.79450725564587L250.30269091663715,259.93621687494044L250.84370300037733,311.32822407189684L251.35380010790377,273.453222587127L251.42593505240245,288.7244089347912L251.57535743743546,272.63243288791017L251.6165774057204,287.47036284682537L251.7659997907534,284.5124752145637L252.27609689827983,279.0147452618407L253.4663234825082,293.0252756723802L253.80123572482353,238.86850763907228L254.0434030384977,285.81600487641083L255.0687497495862,276.48672801548616L255.34698453550968,226.79532642228418L256.03226650824723,269.58878370243906L256.0374190042828,293.7866705962571L256.7587684492697,284.1694127126069L257.4182879418292,239.35389092414187L258.06234994628176,307.73358680560887L258.6445819983069,285.04008770889334L259.45867637193487,297.07342099909386L259.7317586618228,310.1476537169111L260.2573132574561,283.0848638299399L261.59696222671744,279.3819999192044L262.1585842946001,306.272794369383L262.2307192390988,291.2824326630453L262.6274614338416,252.12895384899758L262.65837641005527,303.51811793797117L263.21999847793796,311.7250850224749L263.69402811321504,298.8907580755362L263.98772038724536,291.40528578717124L264.1938202286702,325.60969663567596L264.2865651573114,322.7958617549538L264.3174801335251,292.3165805849537L264.33293762163197,232.49001589253936L264.7245273203391,332.72036432417997L264.72967981637476,259.5051672381779L264.9718471300489,296.54401467916296L265.1315745071532,230.3014470748096L265.2706919001149,277.4716613579824L265.28614938822176,299.64779391978817L265.3119118683999,306.08975178705805L265.6777390869289,299.77451525087633L265.9868888490662,295.8481312946539L266.2805811230965,296.53424327769983L266.5124434446995,363.76354972808093L266.7236957821599,260.6844581760387L266.790678230623,284.3201024066678L266.7958307266586,293.74523995225655L266.9091856394423,266.02606149949276L266.99162557601215,347.78043902673323L267.6717550527141,342.0402748208061L268.0272772791719,297.9288277750554L268.0427347672788,274.9544414485598L268.0478872633144,273.25410241748415L268.2952070730242,287.38568190550546L268.4188669778791,290.93705137892914L269.57817858589374,282.1952682701541L269.90793833217344,277.18835565019424L270.2428505744888,354.280788806999L270.36135798330804,287.2706091133606L270.79416765030015,336.5933379547774L270.809625138407,279.19378342504945L270.8353876185851,266.95913686733775L271.1806048529717,272.75137440461697L271.27334978161286,291.79117209262074L271.6597869842844,333.25469968696126L271.8607343296736,302.88353838499L272.67482870330167,236.55796442551755L273.2622132513624,290.1253917933534L273.3961781482886,327.3047149906422L273.50438056503657,305.8093829408219L273.5352955412503,329.3423862073996L274.3493899148784,284.8568408110813L275.5808364673917,268.35387649751624L275.82300378106584,294.31855350446074L276.01879863041944,261.9787567229149L276.1630685194168,286.9646299887814L276.75045306747757,260.37361215396675L277.12143278204223,262.3809419467016L277.5903099212837,296.1589857976929L278.26013440591436,279.27121026129214L278.64657160858593,283.77462625299535L279.11029625179174,241.14489522635603L280.18201542720084,322.9081049665824L280.233540387557,306.9488367076052L280.40872525276814,292.9669517167956L280.46025021312437,293.91017072653847L280.59421511005047,290.9614997333515L280.8260774316534,301.27966466629823L280.94458484047266,253.70054892162636L281.33102204314423,319.40441002618803L281.6710867814952,307.1113199183592L282.2533188335203,275.6044004360232L282.50579113926574,303.95801173264437L282.92314331815095,280.80197317330686L282.9798207745428,305.13240074406974L283.0828706952552,306.2698482489052L284.30401225569733,290.70047445646344L285.03051419671976,269.9640323741621L285.231461542109,274.8867297141778L285.380883927142,343.68367279229767L285.82915108224097,311.20602185853807L286.07647089195075,313.42288522788505L286.086775884022,301.4767291384598L286.2825707333756,310.9550135037914L286.4010781421949,282.4154268412289L287.4934073017464,309.11195140354255L287.82316704802616,295.44692715395L288.328111659517,283.7720494045019L288.3693316278019,301.2267692226446L289.2658659379999,280.7973112669381L289.43589830717536,308.5514254799222L289.8171830138113,260.86913176533636L290.01813035920054,298.23559658507895L290.46124501826387,235.0332752663859L290.9661896297547,283.48047915812003L291.0331720782177,282.0863574132003L291.0795445425383,307.8950390613038L291.48659172935237,311.0008528131963L291.79058899545396,317.9205036680925L292.3779735435147,289.2911154661333L292.455260984049,297.2565635830185L292.86230817086306,272.5878159324257L293.3105753259621,346.32126817233285L293.9597898264502,282.5361508693346L294.140127187697,255.5689344509497L294.52141189433286,277.2819539490754L295.2685238194979,305.7146742672908L295.3973362203884,283.54278918778857L295.7270959666681,301.0765704787781L295.7992309111668,273.01127479381915L296.4329879235481,273.33091411341786L296.48966537993994,267.5911411529092L297.004914983502,276.17245499620304L297.3501322178886,318.87245029114627L298.38063142501267,289.3934991095467L299.0349984215365,319.44680902777293L299.04015091757213,335.17850782263673L299.1895733026051,291.7053232931206L299.19987829467635,325.85538841832033L299.7099754022028,300.97012590638417L300.81260955382555,276.458714969727L300.8435245300393,350.8683418823517L300.87443950625305,288.77516592361803L300.89504949039554,265.82961532685977L300.9002019864311,310.6844991432887L301.4927390305275,300.9581205763082L302.68296561475586,299.0162517117371L303.1879102262467,293.93322172464724L303.2394351866029,328.91653999730335L303.2755026588522,318.861741764639L303.3682475874934,244.64699932258182L303.88864968709106,297.57067446938913L304.33176434615444,265.5143813845609L304.80064148539594,260.4531064824822L304.81094647746716,279.33605944280646L304.975826350607,320.7225231777777L305.0685712792482,265.54905785825497L306.5267276573288,363.925809041333L306.8874023798223,282.9079525286275L307.4902444159899,286.84379278285473L307.5572268644529,247.62130651113551L308.03125649973,318.20637805587364L308.180678884763,274.72056980606357L308.3816262301522,264.48118654851464L310.23137230694,319.874249577155L310.36533720386615,305.97097735763407L310.47869211664977,284.1058284733896L310.5765895413266,261.0213142896232L310.70540194221707,230.2639005628335L310.787841878787,298.08062258571476L311.42159889116834,248.50479920987905L311.74105364537684,265.7162208690542L312.8127728207859,262.75947987005134L312.84884029303527,247.77816040296443L312.8952127573558,285.64676936725743L313.15283755913686,268.70820495370157L313.27649746399175,297.92134895359743L313.53412226577274,291.2430219079464L314.23486172661717,300.9756441001474L314.65221390550244,223.05537390523395L314.65736640153807,281.7421716279954L315.53844322362914,315.1944777190241L315.56420570380726,272.7232252168271L315.6981706007334,282.48372914782516L316.0124728589063,327.4986292483706L316.4349775338271,313.57333815506354L316.790499760285,293.57588135405024L317.0017520977454,310.1552353626578L317.2233094272771,296.2791762170222L317.903438903979,299.9780824437087L317.9601163603709,340.96046681163176L318.69177079742894,331.458803168022L319.1761054247773,303.034869169535L319.248240369276,290.9566915430486L319.3409852979172,271.3764249993147L321.23195134298993,303.1492795368281L322.7828526497117,281.7002482520887L322.97349500302965,323.12046253546936L324.2770765000417,323.98703298078544L324.8541560560312,307.38237989639845L325.1890682983465,273.0396289129212L325.22513577059584,296.52336670958493L325.2663557388808,296.81014604502957L325.51367554859064,274.1513832122268L325.5600480129112,284.7376758676466L325.86404527901277,280.76391073782224L325.93102772747585,293.64313034694896L326.73996960506827,275.8115827585138L326.91000197424376,305.2788320394508L327.12640680773984,299.5462259941205L328.08477107036526,324.8393677649489L328.6360881461767,351.109121301276L328.99161037263445,279.96030334173173L329.2286251902731,276.5650812762054L329.48109749601844,300.9470132952948L329.7696372740132,313.66294465273984L330.4497667507151,245.91960475704633L330.4909867190001,298.13351648454204L331.00623632256213,294.9963104428053L331.06806627498963,308.10315895710255L331.171116195702,298.53280250695894L331.7791107279052,254.16368077992135L331.91822812086696,286.13379055380875L331.92853311293817,318.0072044144693L332.3922577561441,348.3913286422055L332.7529324786375,332.3541751925448L332.9281173438486,324.31350525274934L333.072387232846,313.3484059910888L333.77312669369036,280.27747316676664L334.2471563289675,294.94731713918645L334.7469484444226,288.13033100844183L334.7933209087432,272.9492137729152L334.85515086117067,260.1311799780227L334.9530482858475,289.0439210429347L335.040640718453,327.45596192657285L335.3188755043766,284.8114492563603L335.380705456804,277.4161832605572L335.50951785769445,303.80243096292656L335.7001602110125,272.98155709530215L336.236019798717,305.89402949254816L336.33391722339377,338.40788461314105L336.6069995132817,288.4160174666638L336.874929307134,279.2830355969072L338.0136309310061,281.2348671781344L338.12183334775415,291.6656399851677L338.4052206297133,288.69798891838457L338.8534877848122,332.62322766598265L338.8586402808479,304.57769622395966L339.05443513020145,310.4064118584893L339.2347724914482,267.2429810546256L340.18283176200237,305.3347926428677L340.67231888538635,307.35474314798665L341.8934604458284,265.4445287666566L342.2129152000369,313.39528426373954L342.6096573947796,289.0922686322774L343.0167045815937,283.18554828819754L343.1249069983417,290.55592206337167L343.1661269666267,287.44766275442566L343.24341440716097,279.4946822808893L343.7792739948655,301.18149037386786L343.78957898693676,287.88926654535663L344.2533036301426,303.018690560364L345.2734978451955,327.09381077176937L345.3095653174448,258.8627132708004L345.6496300557958,316.58815251417184L345.6753925359739,337.7109919208156L346.21125212367843,267.93947660050395L346.29884455628394,269.4440197956764L346.6440617906706,330.81418678165426L347.7209334621152,310.0184905752715L347.80337339868515,302.1614339481806L347.87035584714823,319.54401939493613L348.050693208395,253.24887319086105L348.18465810532115,283.86958566245244L349.38518968162066,332.41560448003446L349.69433944375794,321.24002750855226L349.8489143248266,259.58155194936467L349.9468117495033,270.01549396801346L350.4053838966736,318.5903262988821L350.6269412262053,294.852498110429L350.67331369052584,306.44439421620893L350.83304106763006,257.20178979325783L351.12673334166044,316.16484099161914L351.87899776286105,317.6585832856871L352.47668730299307,301.76000827456846L352.6467196721685,290.7349206473869L353.95030116918053,322.3742352774735L354.1254860343916,274.849115674229L355.54242244418725,282.21887961514807L356.11950200017674,282.5999755926588L357.7476907474329,330.07250644272455L358.031078029392,257.61362349988775L358.1083654699263,315.5769759795868L358.6390725615952,309.103442374175L359.0203572682312,323.77512595997734L359.1027972048011,308.66144187886925L359.1594746611929,336.6242744277753L359.33465952640404,313.7274315036406L359.74685920925367,263.18162040755846L360.0611614674265,248.23141539960685L360.0663139634621,271.3536251468258L360.3651587335281,302.9171026724448L360.4682086542405,328.15837872504176L360.68976598377225,339.02747923916996L361.08650817851503,312.0966984331737L361.8130101195375,264.7365314591226L361.9366700243924,316.9491437957242L362.6374094852368,302.6262759903769L363.1320491046564,292.78253661047586L363.436046370758,315.6668537606155L363.49272382714986,318.11092008333156L364.9560327012661,277.0887541947757L365.52795976121996,327.10731024010346L365.6722296502173,256.50608441673506L365.935006948034,309.60452414925976L366.43479906348915,290.4979020023818L366.59452644059337,291.61269749810117L366.62028892077154,316.94139364199947L366.70788135337705,256.19222304670257L367.1664535005473,292.9776656167396L368.58854240637856,347.9086491474623L369.5778216452177,281.98795650479764L369.6396515976451,339.1369204803193L370.39706851488137,327.15465671758835L370.44859347523754,288.74487521713326L370.4795084514513,350.2956695300411L370.5001184355938,229.55335965039174L370.659845812698,274.1629689943427L370.67015080476926,307.74032303704655L370.7422857492679,339.4699922844726L370.7732007254817,307.41393957972616L371.149332936082,308.0890565062092L372.42199945688026,275.2577047612678L372.87541910801485,270.6118764698043L373.00938400494096,292.5591168713554L373.4731086481469,299.4185067396411L373.6122260411086,291.81687636854554L373.972900763602,302.4117219968107L374.3232704940242,272.0863408477699L374.74577516894516,304.72029510951927L374.9930949786549,322.498589143391L375.0755349152248,308.6622506861851L376.23484652323947,323.2259942833913L376.70372366248097,350.2057126448128L377.3993106272897,306.3350894643992L377.43537809953904,320.67172849111375L378.0588301198492,316.7429046479141L378.18249002470407,319.5238976620184L378.30614992955896,276.4820021734153L378.62560468376745,286.6667683553879L379.1150918071514,287.8987328400264L379.6870188671053,343.56681081693694L379.7797637957465,278.3660147579591L380.86178796322673,278.2580271069564L381.36673257471756,343.202050381317L382.16536946023876,289.95431976866115L382.3354018294142,299.7187406720774L382.4229942620198,279.1368585664798L382.623941607409,278.6293469120508L383.95328558459914,275.847052854867L384.9631748075807,274.31503378442517L385.189884633148,269.2315296542217L385.37022199439474,311.64025261202534L385.5247968754633,317.09215978551805L385.64845678031827,257.0306391895497L385.8133366534581,222.2733294610791L386.1843163680228,312.9626039562583L386.3234337609846,340.66286205317783L386.344043745127,287.7424237910532L386.42133118566136,300.4509984366068L386.5552960825875,303.2510250688285L386.66865099537114,302.3441515011951L387.54972781746227,313.8718370273479L387.57033780160475,307.3684753402774L387.6373202500678,275.71157814034484L388.0495199329174,268.50201894514635L388.07012991705994,270.9818322959903L388.2556197743423,303.3138388227822L388.70388692944124,295.47400079286L388.7399544016906,291.3669786980434L388.9666642272579,243.0809930782891L389.2397465171458,317.8535219340843L389.44069386253506,310.3469211799972L390.25478823616305,342.3452067244606L390.6875979031552,309.31034033945514L390.6927503991908,362.0375441278198L390.99674766529245,300.1298428956605L391.4295573322845,328.07777223924245L391.8056895428848,312.91321238047163L391.8778244873835,256.5350906630495L392.64039390065534,322.2801913564099L392.79496878172404,289.2479161751809L393.0989660478256,305.0704535032915L393.36174334564225,287.91215865703373L394.4231575289801,250.52091798262933L394.4695299933007,284.2221241695004L394.7426122831885,260.0941232996912L395.4381992479974,309.4424194521773L395.6236891052797,267.1764455263225L396.2162261493761,357.75381706828006L396.79845820140116,324.0558479752673L397.14882793182335,382.4218909195813L397.3291652930701,292.42044092391245L398.1020396984132,335.01327281509464L398.14841216273373,256.3704623702796L398.2875295556955,294.9145896279184L398.44210443676417,281.5006061106851L398.6172893019753,310.81443465773293L398.84915162357817,291.0914494369043L399.03464148086044,317.1734152906384L399.6168735328856,288.39367219114274L399.69931346945555,305.05889895725545L400.01876822366404,300.66648468680944L400.1063606562696,264.45619039923764L400.549475315333,299.7211163058449L401.5645170343502,343.6848484162393L401.8324468282025,352.6723162468455L404.15107004423174,296.71910895763L404.37262737376346,353.3149836930035L404.6457096636513,356.04240883137163L404.6817771359007,314.69954546583295L404.78482705661304,292.48380442783764L404.9187919535392,285.7723817341505L405.382516596745,317.6651841139746L405.65044639059727,300.0396036288728L405.95959615273455,374.4302461492914L405.99566362498393,315.39700183713757L406.1450860100168,335.58321983458814L406.4181682999048,313.5159740192671L406.43877828404726,299.07612524577985L406.50576073251034,302.5120450448823L406.577895677009,334.9851356567863L406.7015555818639,280.1435798032288L406.76338553429133,334.30481017819625L406.9282654074312,297.9410702307524L406.9643328796805,317.73994673454416L407.0364678241792,348.9420343010027L407.6186998762044,322.85635888707014L407.67537733259616,311.1439904262593L407.7062923088099,325.9395883210624L407.91754464627036,324.83945066876703L407.93815463041284,283.4316462013077L408.0102895749115,299.2370808883228L408.1287969837308,290.58499767967106L408.6749615635066,307.91015644601123L409.21597364724676,317.0249778862766L409.2984135838166,326.0203830363068L409.4529884648853,397.42921075958145L410.45257269579565,282.0854513440463L410.9317548271084,352.5065694146861L410.9729747953934,280.1849073856407L411.5294443672404,303.52729823062384L411.63249428795274,304.96378816801064L412.6320785188632,313.54745481901557L413.3431229717788,312.61053900442676L414.8373468221088,298.2578718299762L415.1155816080323,249.07631186478153L415.24439400892277,306.5214493437218L415.893608509411,327.57353902653944L416.3109606882963,321.3527375299953L416.6252629464691,285.90290614876295L416.7231603711459,303.55480015856676L417.0271576372475,272.98983683728613L418.03189436419353,288.2540461651172L418.6192789122543,278.5553777525157L418.8769037140353,302.035481446844L419.35608584534805,298.12976245157836L419.438525781918,299.06435289757724L419.59310066298656,340.7861911984813L419.96923287358686,307.0089515611312L420.5566174216476,310.11099022589724L421.0100370727822,316.11316251115494L421.3604068032044,335.8870998489518L421.8292839424459,337.36487738809996L421.83958893451717,258.867562553656L421.87050391073086,290.9755357430533L422.8082581892138,322.1357177705522L423.6326575549131,315.9171186808969L423.8181474121954,362.21367314652247L424.4106844562918,334.36847693477927L424.43129444043427,305.6930165996972L424.91047657174704,277.4592393395832L425.19386385370615,273.6705002803129L425.5030136158434,321.90218669997796L425.9925007392273,316.24941354682505L427.60523199837655,294.93602216006303L427.83194182394385,343.9844706722465L427.85255180808633,318.0779812160607L427.8937717763713,344.6086112553986L428.6563411896431,307.3865653977587L428.89850850331726,305.5334717833467L429.2385732416683,290.38215315652906L429.2488782337395,336.4765773651787L430.1144975677238,284.4588501786475L430.3978848496829,302.48484396752735L430.54215473868027,323.00174166785564L430.71218710785575,329.9234761278019L430.83584701271064,332.6499540063699L430.8873719730668,291.60021176906815L431.5211289854482,326.87694405842944L431.61387391408937,321.78165902594816L432.1961059661145,302.0646254867388L432.40735830357494,336.6034550929303L433.0256578278494,296.34704479712167L433.56151741555396,301.25621097577607L433.7315497847294,305.713349074995L434.06130953100916,277.94521002172075L434.11283449136533,270.2973651203713L434.51988167817933,264.39766314191843L434.5971691187137,296.4030665113221L434.7878114720316,309.61211451293883L436.1120029531861,342.0222066526429L436.15322292147107,354.0894145967026L436.4572201875727,310.0555040576699L436.52935513207143,314.1927431771622L437.3846694739844,314.4073506379848L437.6835142440504,318.73326836120634L437.71958171629973,335.17125261375054L437.7401917004422,378.6259701066797L437.7608016845847,306.4704800648082L438.48730362560724,297.2992898161056L438.65733599478267,302.9064840536697L438.71401345117454,374.5958204187699L439.31685548734214,288.02130606134233L439.5693277930875,328.7221298518248L439.6466152336218,346.39879672625443L439.75481765036983,336.9340714445361L439.8321050909041,321.15648811462376L440.44009962310736,271.37140251714516L441.0944666196312,290.32624732273473L441.599411231122,347.8898886658109L442.23316824350337,283.2405290715753L442.4186581007857,267.17807383082175L442.5320130135693,334.10995165902546L442.7587228391366,288.02000468676056L442.90299272813405,301.43954457822036L443.35641237926865,270.8715715205991L444.0262368638993,298.8006139222857L444.25809918550226,292.1605346826657L445.3452758490182,346.925096418102L445.89144042879394,312.42755588838173L445.90689791690085,315.05998518985643L446.04086281382695,263.81698903263145L446.2005901909312,316.6008663278819L447.12288698130726,320.46327187740485L447.1486494614854,336.4072022282012L447.18986942977034,295.31962808304127L448.0245737875409,300.3914892384769L448.2976560774287,287.30592146072286L448.4470784624617,312.0037448072976L448.83351566513335,345.9434879885094L449.312697796446,294.73451010271356L449.3281552845529,326.68973572842106L449.97221728900547,298.12548092442705L451.06969894459263,329.5948757719734L451.2397313137681,341.62778207669834L451.45613614726415,251.13210424647664L451.62101602040406,254.6307553906643L451.7292184371521,313.7613833821068L452.1156556398236,301.97876431136183L452.18779058432233,293.651553142304L452.22385805657166,293.7566155716376L452.6360577394213,313.7563407117232L453.5583545297973,323.08148945898733L453.7283868989729,332.06537327844364L453.9138767562552,291.4383112509871L454.6506836893489,286.9499843132055L454.8413260426669,303.1172261301739L455.87697774582665,350.66388872506576L456.0006376506815,368.38582478492884L456.1964325000351,259.029186223143L456.2273474762488,284.17016134223223L457.0723568260906,268.883423898553L457.14964426662493,286.485031328737L457.324829131836,301.2412518716999L458.1904484658202,365.3082105165047L458.5717331724562,337.72257846194964L459.1385077363744,304.85942510368506L460.272056864211,266.2126109427675L461.3283185515132,302.4295809146282L461.59109584932986,343.4276568064505L462.07543047667815,268.5522087876652L462.6731200168102,332.7762569191707L462.9565072987693,318.5928506696095L463.11108217983787,299.228033998437L463.1316921639804,272.5438403942107L463.3480969974765,297.80697754025454L463.5129768706163,322.4610177561194L463.6520942635781,340.7845805219347L463.7396866961836,325.01798753565663L463.81697413671793,275.0955026417977L463.8684990970741,283.72544869509346L464.3013087640663,340.9001067309341L465.03296320112435,289.6275953249466L465.11540313769433,295.68802191281645L465.1308606258012,325.64650789387224L465.146318113908,319.6719827838919L466.32108721002953,344.61756231936306L466.5632545237037,307.1523868879531L467.1867065440138,283.83950828641025L467.9286659731431,341.38566477843585L468.17598578285293,323.0184758047467L468.25842571942286,338.4688149369272L468.41300060049144,313.9244276111788L468.66547290623686,278.59567451166396L468.758217834878,300.9912919750323L468.8303527793767,268.18861136529364L469.17557001376326,335.5865598718417L469.40227983933056,359.6621446083255L469.54139723229235,340.49958456621283L470.15454426053117,320.3142991434317L470.5564389513096,318.5910573345722L471.03562108262236,251.9974556392538L471.06653605883605,338.3419554470164L471.1798909716197,370.30177945715246L471.64361561482553,292.1277627673603L472.16401771442327,317.2941458964743L472.560759909166,344.3181528755794L472.70502979816337,314.5230379660707L473.1842119294761,345.0988134072173L473.40061676297216,316.38113720408495L473.57064913214765,321.0420755298966L473.905561374463,364.05578582734563L474.6011483392718,353.55404078714423L475.37917524065045,369.2420474657565L475.8944248442125,334.653525698352L476.3220820151691,320.5122034142209L476.68790923369806,342.2417170183301L477.18770134915326,321.5047119882896L477.2495313015807,333.4990576848863L477.39380119057813,308.62636485512087L477.5226135914686,327.65429561141906L478.01725321088816,305.6608266435409L478.76951763208876,312.84622248860694L479.1147348664754,341.95507923491186L479.3465971880783,269.78817883899615L481.1345133124386,268.899646721178L481.2684782093648,300.26928622036763L481.4385105785402,284.8431243894362L481.54671299528826,336.3109819884272L482.3968748411657,301.5263279111906L483.0770043178676,266.56353112089386L483.2367316949718,322.27002782896136L483.2779516632568,269.9029362621644L484.9215978986198,352.29454485978226L485.22559516472137,325.3673476308784L485.36986505371874,294.39858269924287L485.3853225418256,279.26138675221017L485.69447230396287,336.22129225458883L486.7043615269445,319.82401441727336L487.4154059798601,336.4659355853381L487.77608070235357,327.37321882209915L487.78123319838915,302.41629836349125L488.2140428653813,261.91578182860803L488.73444496497893,350.2823843557653L489.0126797509025,300.2901199728393L489.0281372390093,315.05959349750015L489.5949118029276,316.84948185403715L489.86284159677984,302.7333925499581L490.02772146991975,291.3230228581512L490.1204663985609,314.96135154775516L490.6614784823011,282.2449742773822L491.14066061361376,339.5234197875434L491.2282530462193,348.9525883396282L491.3879804233236,293.0323680743117L491.6146902488909,301.37582710516546L491.74865514581705,287.6617917807182L491.88262004274316,294.3897262421118L493.3562339089306,293.1362263214977L493.40775886928685,325.7005254296857L493.41806386135806,251.80067521080065L494.2630732111998,342.9240728255071L495.29357241832395,354.0961069383805L495.3038774103952,279.78207462119553L495.81912701395726,294.139272703242L495.87580447034907,257.7827510028936L496.02007435934644,261.5807245672089L496.1540392562726,348.37323500561365L497.13816599907614,294.5158047567637L497.28758838410914,299.9612648616198L497.3803333127503,346.4136114720914L497.6791780828163,306.96247258186554L497.79768549163555,294.42751828297537L497.8079904837068,287.01354033009255L498.1480552220578,345.5737572968018L498.19442768637833,328.601214211394L498.35415506348255,277.7064074226331L498.4623574802306,348.4653789269384L498.5911698811212,326.3205378102157L498.97245458775706,291.11250999114503L499.1888594212531,335.46522564835726L499.5289241596041,374.2020818796516L499.977191314703,350.5165892532079L500.549118374657,263.65024130013694L500.7603707121174,345.96012415574734L501.2344003473945,336.83387550540306L501.28077281171505,243.12076925952636L502.5637443245846,295.5715810330174L503.115061400396,326.8558175657389L503.7797333889911,259.8680642835369L504.3619654410162,395.1535100513103L505.08331488600305,284.36186117732814L505.91286674773795,328.72934920588114L506.0571366367353,328.01266755214675L506.0983566050203,300.6655271528273L506.28899895833825,334.6741613642549L507.4586155584241,292.5201011602634L507.56681797517217,350.2859251390733L508.4478947972633,308.2361354798506L508.62307966247437,363.24730987820726L508.8240270078636,316.3672442699698L509.8442212229165,277.694076664789L511.71972977988236,327.32533177272893L512.3586392882993,304.5487356678858L512.688399034579,342.00590636520036L512.6935515306146,319.78711250887864L512.7811439632202,356.81562914825986L512.9048038680751,313.34247784902675L512.9357188442888,326.44177878592524L513.0851412293217,315.800460071812L513.2809360786754,306.41960034261746L513.5437133764921,349.5051446353214L513.9713705474485,288.6071157208203L514.373265238227,328.5973408862044L514.8936673378247,318.5903262988821L515.5274243502059,314.4468337617844L516.0890464180885,368.98892510775096L516.1199613943023,342.60307379560334L516.4239586604039,363.4614384374015L517.3668654349225,302.4921693142303L517.3720179309581,313.56502799417984L517.4390003794211,311.9424483159212L518.1655023204437,330.50255087326286L518.4231271222246,312.3359662533453L518.8301743090387,284.08347289416884L518.9383767257867,309.3043435715884L519.6854886509517,354.36912858847376L519.8967409884123,391.03190978024344L520.0358583813739,291.8435432193851L520.1904332624425,302.31248628256776L520.5974804492565,363.78990463720993L521.0715100845337,300.9034367524201L521.2003224854242,323.08527616809664L521.4218798149559,345.29012480223577L521.6331321524164,310.8243279085818" style="fill: none;" fill="none"></path></g></g></g></g></g></g><g transform="translate(39, 377)" clip-path="url(#clip_1)"><clipPath id="clip_1"><rect width="1233" height="23"></rect></clipPath><g><g><line x1="57.9084889465651" y1="0" x2="57.9084889465651" y2="5" style="visibility: inherit;" fill="rgb(0, 0, 0)" stroke="rgb(204, 204, 204)" stroke-width="1px"></line><line x1="160.95840965897648" y1="0" x2="160.95840965897648" y2="5" style="visibility: inherit;" fill="rgb(0, 0, 0)" stroke="rgb(204, 204, 204)" stroke-width="1px"></line><line x1="264.00833037138784" y1="0" x2="264.00833037138784" y2="5" style="visibility: inherit;" fill="rgb(0, 0, 0)" stroke="rgb(204, 204, 204)" stroke-width="1px"></line><line x1="367.05825108379923" y1="0" x2="367.05825108379923" y2="5" style="visibility: inherit;" fill="rgb(0, 0, 0)" stroke="rgb(204, 204, 204)" stroke-width="1px"></line><line x1="470.1081717962106" y1="0" x2="470.1081717962106" y2="5" style="visibility: inherit;" fill="rgb(0, 0, 0)" stroke="rgb(204, 204, 204)" stroke-width="1px"></line><line x1="573.1580925086221" y1="0" x2="573.1580925086221" y2="5" style="visibility: inherit;" fill="rgb(0, 0, 0)" stroke="rgb(204, 204, 204)" stroke-width="1px"></line><line x1="676.2080132210333" y1="0" x2="676.2080132210333" y2="5" style="visibility: inherit;" fill="rgb(0, 0, 0)" stroke="rgb(204, 204, 204)" stroke-width="1px"></line><line x1="779.2579339334446" y1="0" x2="779.2579339334446" y2="5" style="visibility: inherit;" fill="rgb(0, 0, 0)" stroke="rgb(204, 204, 204)" stroke-width="1px"></line><line x1="882.3078546458561" y1="0" x2="882.3078546458561" y2="5" style="visibility: inherit;" fill="rgb(0, 0, 0)" stroke="rgb(204, 204, 204)" stroke-width="1px"></line><line x1="985.3577753582674" y1="0" x2="985.3577753582674" y2="5" style="visibility: inherit;" fill="rgb(0, 0, 0)" stroke="rgb(204, 204, 204)" stroke-width="1px"></line><line x1="1088.4076960706789" y1="0" x2="1088.4076960706789" y2="5" style="visibility: inherit;" fill="rgb(0, 0, 0)" stroke="rgb(204, 204, 204)" stroke-width="1px"></line><line x1="1191.4576167830903" y1="0" x2="1191.4576167830903" y2="5" style="visibility: inherit;" fill="rgb(0, 0, 0)" stroke="rgb(204, 204, 204)" stroke-width="1px"></line></g><g transform="translate(0, 8)"><text x="57.9084889465651" y="0" dx="0em" dy="0.95em" style="text-anchor: middle; visibility: inherit; font-family: &quot;Helvetica Neue&quot;, sans-serif; font-size: 12px; font-weight: 200;" fill="rgb(50, 49, 63)" stroke="none" stroke-width="1px">-20k</text><text x="160.95840965897648" y="0" dx="0em" dy="0.95em" style="text-anchor: middle; visibility: inherit; font-family: &quot;Helvetica Neue&quot;, sans-serif; font-size: 12px; font-weight: 200;" fill="rgb(50, 49, 63)" stroke="none" stroke-width="1px">0</text><text x="264.00833037138784" y="0" dx="0em" dy="0.95em" style="text-anchor: middle; visibility: inherit; font-family: &quot;Helvetica Neue&quot;, sans-serif; font-size: 12px; font-weight: 200;" fill="rgb(50, 49, 63)" stroke="none" stroke-width="1px">20k</text><text x="367.05825108379923" y="0" dx="0em" dy="0.95em" style="text-anchor: middle; visibility: inherit; font-family: &quot;Helvetica Neue&quot;, sans-serif; font-size: 12px; font-weight: 200;" fill="rgb(50, 49, 63)" stroke="none" stroke-width="1px">40k</text><text x="470.1081717962106" y="0" dx="0em" dy="0.95em" style="text-anchor: middle; visibility: inherit; font-family: &quot;Helvetica Neue&quot;, sans-serif; font-size: 12px; font-weight: 200;" fill="rgb(50, 49, 63)" stroke="none" stroke-width="1px">60k</text><text x="573.1580925086221" y="0" dx="0em" dy="0.95em" style="text-anchor: middle; visibility: inherit; font-family: &quot;Helvetica Neue&quot;, sans-serif; font-size: 12px; font-weight: 200;" fill="rgb(50, 49, 63)" stroke="none" stroke-width="1px">80k</text><text x="676.2080132210333" y="0" dx="0em" dy="0.95em" style="text-anchor: middle; visibility: inherit; font-family: &quot;Helvetica Neue&quot;, sans-serif; font-size: 12px; font-weight: 200;" fill="rgb(50, 49, 63)" stroke="none" stroke-width="1px">100k</text><text x="779.2579339334446" y="0" dx="0em" dy="0.95em" style="text-anchor: middle; visibility: inherit; font-family: &quot;Helvetica Neue&quot;, sans-serif; font-size: 12px; font-weight: 200;" fill="rgb(50, 49, 63)" stroke="none" stroke-width="1px">120k</text><text x="882.3078546458561" y="0" dx="0em" dy="0.95em" style="text-anchor: middle; visibility: inherit; font-family: &quot;Helvetica Neue&quot;, sans-serif; font-size: 12px; font-weight: 200;" fill="rgb(50, 49, 63)" stroke="none" stroke-width="1px">140k</text><text x="985.3577753582674" y="0" dx="0em" dy="0.95em" style="text-anchor: middle; visibility: inherit; font-family: &quot;Helvetica Neue&quot;, sans-serif; font-size: 12px; font-weight: 200;" fill="rgb(50, 49, 63)" stroke="none" stroke-width="1px">160k</text><text x="1088.4076960706789" y="0" dx="0em" dy="0.95em" style="text-anchor: middle; visibility: inherit; font-family: &quot;Helvetica Neue&quot;, sans-serif; font-size: 12px; font-weight: 200;" fill="rgb(50, 49, 63)" stroke="none" stroke-width="1px">180k</text><text x="1191.4576167830903" y="0" dx="0em" dy="0.95em" style="text-anchor: middle; visibility: inherit; font-family: &quot;Helvetica Neue&quot;, sans-serif; font-size: 12px; font-weight: 200;" fill="rgb(50, 49, 63)" stroke="none" stroke-width="1px">200k</text></g><line x1="0" y1="0" x2="1233.84375" y2="0" fill="rgb(0, 0, 0)" stroke="rgb(204, 204, 204)" stroke-width="1px"></line></g></g></g></g></svg>