<svg viewBox="0 0 1273 400" xmlns="http://www.w3.org/2000/svg"><g><g><g><g><g><line x1="39.15625" y1="363.1946236018145" x2="34.15625" y2="363.1946236018145" style="visibility: inherit;" fill="rgb(0, 0, 0)" stroke="rgb(204, 204, 204)" stroke-width="1px"></line><line x1="39.15625" y1="312.8054001845946" x2="34.15625" y2="312.8054001845946" style="visibility: inherit;" fill="rgb(0, 0, 0)" stroke="rgb(204, 204, 204)" stroke-width="1px"></line><line x1="39.15625" y1="262.4161767673746" x2="34.15625" y2="262.4161767673746" style="visibility: inherit;" fill="rgb(0, 0, 0)" stroke="rgb(204, 204, 204)" stroke-width="1px"></line><line x1="39.15625" y1="212.02695335015474" x2="34.15625" y2="212.02695335015474" style="visibility: inherit;" fill="rgb(0, 0, 0)" stroke="rgb(204, 204, 204)" stroke-width="1px"></line><line x1="39.15625" y1="161.6377299329348" x2="34.15625" y2="161.6377299329348" style="visibility: inherit;" fill="rgb(0, 0, 0)" stroke="rgb(204, 204, 204)" stroke-width="1px"></line><line x1="39.15625" y1="111.2485065157149" x2="34.15625" y2="111.2485065157149" style="visibility: inherit;" fill="rgb(0, 0, 0)" stroke="rgb(204, 204, 204)" stroke-width="1px"></line><line x1="39.15625" y1="60.859283098494984" x2="34.15625" y2="60.859283098494984" style="visibility: inherit;" fill="rgb(0, 0, 0)" stroke="rgb(204, 204, 204)" stroke-width="1px"></line><line x1="39.15625" y1="10.470059681275075" x2="34.15625" y2="10.470059681275075" style="visibility: inherit;" fill="rgb(0, 0, 0)" stroke="rgb(204, 204, 204)" stroke-width="1px"></line></g><g transform="translate(29.15625, 0)"><text x="0" y="363.1946236018145" dx="0em" dy="0.3em" style="text-anchor: end; visibility: inherit; font-family: &quot;Helvetica Neue&quot;, sans-serif; font-size: 12px; font-weight: 200;" fill="rgb(50, 49, 63)" stroke="none" stroke-width="1px">-20</text><text x="0" y="312.8054001845946" dx="0em" dy="0.3em" style="text-anchor: end; visibility: inherit; font-family: &quot;Helvetica Neue&quot;, sans-serif; font-size: 12px; font-weight: 200;" fill="rgb(50, 49, 63)" stroke="none" stroke-width="1px">0</text><text x="0" y="262.4161767673746" dx="0em" dy="0.3em" style="text-anchor: end; visibility: inherit; font-family: &quot;Helvetica Neue&quot;, sans-serif; font-size: 12px; font-weight: 200;" fill="rgb(50, 49, 63)" stroke="none" stroke-width="1px">20</text><text x="0" y="212.02695335015474" dx="0em" dy="0.3em" style="text-anchor: end; visibility: inherit; font-family: &quot;Helvetica Neue&quot;, sans-serif; font-size: 12px; font-weight: 200;" fill="rgb(50, 49, 63)" stroke="none" stroke-width="1px">40</text><text x="0" y="161.6377299329348" dx="0em" dy="0.3em" style="text-anchor: end; visibility: inherit; font-family: &quot;Helvetica Neue&quot;, sans-serif; font-size: 12px; font-weight: 200;" fill="rgb(50, 49, 63)" stroke="none" stroke-width="1px">60</text><text x="0" y="111.2485065157149" dx="0em" dy="0.3em" style="text-anchor: end; visibility: inherit; font-family: &quot;Helvetica Neue&quot;, sans-serif; font-size: 12px; font-weight: 200;" fill="rgb(50, 49, 63)" stroke="none" stroke-width="1px">80</text><text x="0" y="60.859283098494984" dx="0em" dy="0.3em" style="text-anchor: end; visibility: inherit; font-family: &quot;Helvetica Neue&quot;, sans-serif; font-size: 12px; font-weight: 200;" fill="rgb(50, 49, 63)" stroke="none" stroke-width="1px">100</text><text x="0" y="10.470059681275075" dx="0em" dy="0.3em" style="text-anchor: end; visibility: inherit; font-family: &quot;Helvetica Neue&quot;, sans-serif; font-size: 12px; font-weight: 200;" fill="rgb(50, 49, 63)" stroke="none" stroke-width="1px">120</text></g><line x1="39.15625" y1="0" x2="39.15625" y2="377" fill="rgb(0, 0, 0)" stroke="rgb(204, 204, 204)" stroke-width="1px"></line></g></g><g transform="translate(39, 0)" clip-path="url(#clip_0)"><clipPath id="clip_0"><rect width="1233" height="377"></rect></clipPath><g><g><g><line x1="49.96389185367718" y1="0" x2="49.96389185367718" y2="377" fill="rgb(0, 0, 0)" stroke="rgb(60, 60, 60)" stroke-width="1px" opacity="0.25"></line><line x1="150.74442710089136" y1="0" x2="150.74442710089136" y2="377" fill="rgb(0, 0, 0)" stroke="rgb(60, 60, 60)" stroke-width="1px" opacity="0.25"></line><line x1="251.52496234810553" y1="0" x2="251.52496234810553" y2="377" fill="rgb(0, 0, 0)" stroke="rgb(60, 60, 60)" stroke-width="1px" opacity="0.25"></line><line x1="352.3054975953197" y1="0" x2="352.3054975953197" y2="377" fill="rgb(0, 0, 0)" stroke="rgb(60, 60, 60)" stroke-width="1px" opacity="0.25"></line><line x1="453.08603284253394" y1="0" x2="453.08603284253394" y2="377" fill="rgb(0, 0, 0)" stroke="rgb(60, 60, 60)" stroke-width="1px" opacity="0.25"></line><line x1="553.8665680897481" y1="0" x2="553.8665680897481" y2="377" fill="rgb(0, 0, 0)" stroke="rgb(60, 60, 60)" stroke-width="1px" opacity="0.25"></line><line x1="654.6471033369622" y1="0" x2="654.6471033369622" y2="377" fill="rgb(0, 0, 0)" stroke="rgb(60, 60, 60)" stroke-width="1px" opacity="0.25"></line><line x1="755.4276385841764" y1="0" x2="755.4276385841764" y2="377" fill="rgb(0, 0, 0)" stroke="rgb(60, 60, 60)" stroke-width="1px" opacity="0.25"></line><line x1="856.2081738313906" y1="0" x2="856.2081738313906" y2="377" fill="rgb(0, 0, 0)" stroke="rgb(60, 60, 60)" stroke-width="1px" opacity="0.25"></line><line x1="956.9887090786049" y1="0" x2="956.9887090786049" y2="377" fill="rgb(0, 0, 0)" stroke="rgb(60, 60, 60)" stroke-width="1px" opacity="0.25"></line><line x1="1057.7692443258188" y1="0" x2="1057.7692443258188" y2="377" fill="rgb(0, 0, 0)" stroke="rgb(60, 60, 60)" stroke-width="1px" opacity="0.25"></line><line x1="1158.5497795730332" y1="0" x2="1158.5497795730332" y2="377" fill="rgb(0, 0, 0)" stroke="rgb(60, 60, 60)" stroke-width="1px" opacity="0.25"></line></g><g><line x1="0" y1="363.1946236018145" x2="1233.84375" y2="363.1946236018145" fill="rgb(0, 0, 0)" stroke="rgb(60, 60, 60)" stroke-width="1px" opacity="0.25"></line><line x1="0" y1="312.8054001845946" x2="1233.84375" y2="312.8054001845946" fill="rgb(0, 0, 0)" stroke="rgb(60, 60, 60)" stroke-width="1px" opacity="0.25"></line><line x1="0" y1="262.4161767673746" x2="1233.84375" y2="262.4161767673746" fill="rgb(0, 0, 0)" stroke="rgb(60, 60, 60)" stroke-width="1px" opacity="0.25"></line><line x1="0" y1="212.02695335015474" x2="1233.84375" y2="212.02695335015474" fill="rgb(0, 0, 0)" stroke="rgb(60, 60, 60)" stroke-width="1px" opacity="0.25"></line><line x1="0" y1="161.6377299329348" x2="1233.84375" y2="161.6377299329348" fill="rgb(0, 0, 0)" stroke="rgb(60, 60, 60)" stroke-width="1px" opacity="0.25"></line><line x1="0" y1="111.2485065157149" x2="1233.84375" y2="111.2485065157149" fill="rgb(0, 0, 0)" stroke="rgb(60, 60, 60)" stroke-width="1px" opacity="0.25"></line><line x1="0" y1="60.859283098494984" x2="1233.84375" y2="60.859283098494984" fill="rgb(0, 0, 0)" stroke="rgb(60, 60, 60)" stroke-width="1px" opacity="0.25"></line><line x1="0" y1="10.470059681275075" x2="1233.84375" y2="10.470059681275075" fill="rgb(0, 0, 0)" stroke="rgb(60, 60, 60)" stroke-width="1px" opacity="0.25"></line></g></g></g><g><g><line x1="0" y1="312.8054001845946" x2="1233.84375" y2="312.8054001845946" fill="rgb(0, 0, 0)" stroke="rgb(153, 153, 153)" stroke-width="1.5px"></line></g></g><g><g><line x1="251.52496234810553" y1="0" x2="251.52496234810553" y2="377" fill="rgb(0, 0, 0)" stroke="rgb(153, 153, 153)" stroke-width="1.5px"></line></g></g><g><g><g><g><g><path stroke="rgb(0, 153, 136)" stroke-width="2px" d="M251.74164049888705,107.24459078673254L251.75675757917412,126.18259761286211L252.0036698905298,111.69100748665369L252.37151884418213,75.63901759037554L252.6839385034485,82.33568848433424L252.7091336372603,110.20040817426184L252.8149531992699,125.76920270535288L252.90565568099237,133.34449475654282L253.08202161767497,128.2055460300858L253.09209967119972,85.1753758090668L253.13241188529858,54.85218938996576L253.91850006022688,77.02672956620466L254.23091971949322,85.14709423897966L254.44759787027476,77.14115626482595L254.48287105761128,103.63894111184908L254.7247443422046,105.02535632900492L254.79025169011527,117.849830315443L255.12786648319346,8.123963640542286L255.16817869729235,7.951677321091722L255.5713008382812,65.3804985375844L255.60153499885533,97.10885252316149L255.74262774820144,124.17974457201967L256.6395745119016,121.48782245168678L256.9016039035444,141.59298526201013L257.0930869205141,142.90824209592026L257.4760529544535,146.48960786271613L257.88421412220475,127.24043125823707L258.1613605941346,133.00188729082817L258.1764776744217,132.97170869158944L258.2470240490947,135.6141601974545L258.26718015614415,137.9073219986093L258.5090534407375,131.7365447914623L258.54432662807403,130.01907720256335L258.76604380561787,127.99203014258418L259.3505709100517,132.5261600004254L259.5118197664473,141.93669616646747L260.0509956300199,136.90703168993744L260.2676737808014,141.60959620534746L260.2827908610885,123.59613361905824L260.821966724661,134.38348591586762L260.98825460781893,132.42116908193154L261.1898156783134,136.46278036759057L261.3409864811842,128.2414474867906L261.7894598630343,122.3539697314664L262.09180146877594,123.36583968352963L262.6108212252991,134.0343830933464L262.9282799113278,138.36378900291473L263.15503611563406,137.2605203154334L263.5682363101476,136.1290434279096L263.8050705679786,136.3411260485195L263.8907340229387,90.49757419295764L263.9008120764634,28.234504365170835L264.0519828793343,73.86534375328785L264.0570219060966,105.2118718652597L264.11749022724496,94.31914517004549L264.14268536105675,110.18061014746019L264.2888171371652,130.46121959984626L265.0597882318064,140.97479336336315L265.33693470373623,138.25450064565567L266.48079377879213,137.92894181329117L266.83856467891974,149.719188764405L267.45836497069007,131.46725084202933L267.806057817293,131.88911634654983L267.88668224549076,144.64883690324785L267.8917212722531,129.41203371819748L268.18398482447003,135.1650665293743L269.06581450788315,139.6350889885219L269.7612002010889,139.84145968063942L269.77127825461366,140.05514092984507L270.0232295927317,109.46218517579803L270.3810004928593,113.9454794751739L270.74884944651166,116.6308197172566L270.78412263384814,121.87485959039401L271.32329849742075,129.65513757943455L271.46439124676687,134.79500366293195L271.8675133877557,126.1994738940669L272.1799330470221,119.15805763609984L272.67375766973345,137.5570088663659L272.8551626331784,120.3213983034052L273.2834799079791,125.80198362442115L273.701719129255,133.22090406205618L274.1653095913922,138.4365523397381L274.2509730463523,104.21625960819188L275.0320221945182,112.1375565769975L275.0521783015677,124.01630867373231L275.09249051566655,122.89337027200582L275.65686151305096,114.05374816849871L275.72740788772404,131.17781566460005L276.1909983498612,137.16103743693768L276.57900341056296,141.24495957903125L277.2592720234817,144.59324765688692L277.40036477282774,134.02585890048377L278.46359941968586,142.24015015432505L278.53414579435895,154.96930515652397L278.8415264268629,162.59213948864698L279.49156087920744,165.2272628029484L280.1466343583144,168.17264254598095L280.3683515358582,158.02081535617577L280.7966688106589,153.6671461703393L281.0788543093511,143.15910804771943L281.1141274966876,136.8609667285832L281.2955324601326,137.90486483493285L281.71377168140856,128.3925022795584L282.7719673015043,125.3853938365057L282.86770880998915,130.55762501088535L283.2204406833544,135.3870652627959L283.6588360116798,140.5611788362491L284.3844558654597,135.87707661308332L284.6565633106272,143.3507923608537L284.80269508673564,154.63267305898984L285.2864416559223,158.32179710266348L285.3469099770706,156.85393109884254L286.0674908040882,146.53300162337845L286.6318618014726,142.16190180081554L287.377637762302,147.67320404388443L287.58423785955875,135.29958811291016L288.72809693461465,135.36541032156313L289.1211410220788,144.90322535931043L289.13625810236584,154.80883656617007L289.2118435038013,146.96603822915878L289.3781313869592,142.9421622644462L290.7739418001331,132.94637143953065L290.8243320677567,144.4834909319687L291.00069800443936,139.59090216595519L291.79686423289235,143.55211244287844L292.1747912400694,139.93569956623102L292.7492402909785,140.05308862834133L292.9558403882353,146.0266561875529L293.6713821884905,154.67818679241756L293.6965773223023,137.95974610143142L293.7419285631636,133.05309563243986L294.3516508014092,128.62812227949172L294.4020410690328,134.10041500550116L294.8706705579323,147.0947764665922L296.26648097110626,120.93095512113393L296.4126127472147,128.6190562480598L296.5184323092243,134.30312618259399L296.55370549656084,145.44453797539126L296.84596904877776,157.31428667071515L298.19138919432805,130.36022748798905L299.07321887774117,134.38284023725075L299.2395067608991,145.3008003221502L299.6728630624621,139.56453991685112L299.7383704103728,139.28440450496095L300.1918828189853,137.70988295986825L300.30778043451954,150.1011451807754L300.3984829162421,152.32652749002787L301.1291417967843,146.89986232219633L301.45163950957544,149.61934496883103L302.3435472465133,150.75141728727286L303.31104038488655,159.23946792851538L303.3463135722231,152.53887418523286L303.9308406766569,153.3741357947674L304.3339628176457,155.5190089731585L304.5506409684273,152.1379136975036L304.9789582432279,145.7771257801451L305.1351680728611,141.4886154331032L305.2157925010589,143.62931127970478L305.5030170265135,154.54350566269142L305.73481225758206,148.5486109788191L305.7398512843444,153.2584302217996L305.85070987311633,156.8363733920803L306.15809050562035,140.77754501272972L306.2034417464816,148.03041888062327L306.4654711381243,146.86052660656892L306.4805882184114,144.63761879817815L306.6720712353811,141.9803727423399L306.78796885091543,137.83599332757757L306.8282810650143,147.6853989193562L307.0600762960829,155.3928994106254L307.4732764905965,157.72807925646873L307.5690179990813,129.84442231032898L307.9570230597831,145.66703046068352L309.07064797426483,142.83908622571346L309.33771639266996,139.81791872604623L309.4384969279172,137.9942924623183L309.59470675755034,145.28606340170083L309.6400579984116,153.01897228655352L309.81138490833183,155.98124379288478L310.2245851028454,153.21962455348364L310.4110290930528,151.3989049490647L310.7839170734675,153.43325997584898L311.3583661243766,147.0178135257275L311.84211269356325,152.33333939457674L311.86730782737504,156.06258064242064L312.04871279082,158.69773554593885L312.69370821640223,152.98797241598655L312.82472291222354,147.8986996573768L312.92550344747076,160.47088908181797L313.459640284281,165.32382371254045L314.0391283619525,151.49748330717924L314.30619678035765,154.67531123331605L315.3795094807404,157.49645829244665L316.41754899378674,162.03203645291285L316.72996865305316,157.58317969623684L317.12301274051725,148.06903216169349L317.2086761954774,156.7443502955694L317.34472991806115,160.08137778680495L317.45054948007066,158.25403713707198L317.51101780121905,158.57436832872284L317.58660320265443,157.82365670143446L319.06303804402614,161.1424529711966L319.0831941510756,163.7932747370714L319.5770187737869,165.85186104635832L319.7886578978061,165.34331934385503L320.0456482626864,159.81623660189905L320.16154587822075,158.80859472359742L320.4588484572,165.25298801595892L321.1189609630693,173.19200066477148L321.49184894348394,164.16673280452778L322.4794981889067,168.39561166016L323.19000096239955,164.96597255593818L323.5225767287153,167.91591418872574L323.5578499160519,136.99432503062926L323.68886461187327,143.30614204330485L323.77956709359574,148.57577230148894L324.076869672575,155.18885396308346L324.32882101069305,147.76548688044022L325.2610409617298,160.44940387280852L325.29127512230394,151.39077121999216L325.4424459251748,157.8297941348126L325.487797166036,154.31382313756544L325.5381874336596,163.01413062777314L326.0017778957968,144.9816945189385L326.04712913665804,163.1005141304002L326.1529486986677,160.4845654314893L326.47544641145873,160.21364742881994L326.5711879199436,154.27496970544036L327.56891521889094,159.75456654258304L328.0224276275035,169.59011343807592L328.4557839290665,168.24997826014925L328.74804748128344,157.9585434930846L329.49886246887513,162.66595494632384L329.5089405223999,162.9989393591181L329.6701893787954,157.73071193441038L329.8263992084286,161.74536897104477L330.8442826144254,161.8966550933334L330.9652192567221,153.81560889561894L331.28771696951316,157.3968039279894L332.1191563853027,158.96545207276617L332.6331371150635,152.11654436851023L332.7389566770731,159.27040139451339L333.40914723646705,158.36848749388696L333.77195716335706,155.94693906259792L333.8828157521289,167.506114292505L334.20027443815763,172.12794859844968L334.6991380876314,167.51490214919562L335.66663122600465,171.0221111027115L336.23100222338905,171.16039484871607L336.47287550798234,162.80092120423086L336.68451463200154,158.43460106980484L337.52603210131576,159.07609570003837L337.682241930949,159.22392416067012L338.3977837312042,161.8998744280013L338.6648521496093,161.7356515185849L338.7908278186683,149.72971893584253L338.9016864074402,159.9555400353824L339.4307842174881,163.45488651835853L339.9296478669618,166.1238220497096L340.00019424163486,162.80737477302446L340.1463260177433,165.08686207130347L340.1866382318422,167.64037274250225L340.33277000795067,172.3770533756533L340.83163365742433,175.6778323531158L341.99564883952974,170.83634808414246L342.32318557908314,174.95570880853924L342.5600198369141,165.72657404450842L343.56278616262387,174.84675899591565L343.83489360779134,174.37057960868037L344.5050841671853,178.3888079525676L344.5101231939477,185.82947151338934L345.2155869406782,191.28842556309849L345.86058236626036,188.09647233800118L346.4904607115555,181.83344992940798L347.05987073570225,174.72189981877787L347.8560369641552,170.99603341916028L348.1231053825603,171.90227427821947L348.63708611232113,174.40689355603067L349.9169989099608,180.57246746457312L349.94723307053493,168.32206869463707L350.4964869876322,170.09409265564716L350.56703336230527,167.65679914396844L350.95503842300707,173.23337912465024L350.9852725835812,176.9230504160157L351.53452650067857,168.30278956125977L351.99811696281574,162.46439595677506L352.28534148827026,169.70524550513395L352.4869025587647,172.4262028609582L352.5776050404872,170.45813833505676L352.6078392010613,174.3313112024116L352.6229562813484,178.08404111921743L353.0059223152879,178.77868851055123L353.0109613420502,174.51342572946854L353.2477955998812,175.09869676815174L353.40400542951437,174.97214747117502L353.54005915209814,180.5700685925538L353.5551762323852,175.03762526298212L353.58037136619697,175.68030566801693L353.9381422663246,168.99369229369879L354.2404838720662,162.28921545163442L354.52770839752077,151.4466997956909L354.754464601827,166.36579460849782L354.96106469908386,179.77266807622422L355.0265720469945,176.278297394619L355.03161107375684,177.39093937512763L355.1424696625288,162.98623716129364L355.22309409072653,171.85260607371157L355.88824562335816,180.81637728821778L356.23593846996107,178.08603933866476L356.2510555502481,177.95982082286199L356.2560945770106,182.12602332485702L356.4979678616038,166.12578155449305L356.61890450390047,170.23699351671377L357.7526855254317,172.26762432435783L358.07518323822273,181.55335315400504L358.40271997777614,177.1743566297457L358.51861759331047,170.36580495160047L358.94189584134875,173.64357009075235L358.95701292163585,169.6531428457675L358.98220805544764,176.08178686564645L359.31982284852586,177.86814504085152L359.4105253302483,180.20427689184336L359.7884523374254,188.55912446801474L359.98497438115743,175.83367852679106L360.7811406096104,178.52330400634355L360.9978187603919,187.49427036141293L361.35558966051957,187.82913955112153L361.48660435634093,193.58194456311577L361.5924239183505,188.80126051489688L361.6226580789247,187.40683636288534L362.41882430737763,189.6363272113626L363.6231517035818,191.05229355491966L363.8599859614128,180.5105842379935L364.0514689783825,185.22454378353424L364.1925617277286,175.21528529407317L364.7670107786377,175.83817050712838L365.1298207055277,167.30116842908615L365.58837214090255,172.3203981202306L366.2434456200095,174.05033844406097L366.6213726271865,161.84035254903472L367.07488503579896,173.74758836116388L368.12300260237,167.3028091328839L368.17339286999356,164.36152910488806L368.3447197799138,161.79192210804231L368.3951100475374,170.8584826471581L368.5261247433588,172.5243671673168L368.75288094766506,187.01141898586377L368.8687785631994,185.65356959730772L369.2467055703764,182.53309704786722L369.57928133669225,177.47899424790052L370.148691360839,180.5612505284594L370.3956036721946,181.00036189449963L370.80376483994587,182.21028743082394L370.85919413433186,174.40917993378528L370.959974669579,169.2211324928584L372.15422401225857,165.94866946766567L372.86472678575143,162.79274562738016L373.0612488294835,161.41591614006592L373.20738060559194,170.96463861938406L373.6457759339173,176.67012529354042L373.88764921851066,171.0135192821287L373.89772727203535,175.3551810668645L374.08921028900505,168.10519289651484L374.2051079045394,159.15619150417857L375.2733815781598,159.97962284368757L375.59587929095096,173.9980627906279L376.0897039136623,180.33456561680111L376.1300161277611,176.2146233850711L377.0068067844119,181.7434235102965L377.1730946675698,173.5137127154216L377.5459826479845,177.01533534870578L377.74250469171653,182.77803911176449L378.17586099327957,183.6482851580826L378.66968561599094,178.47106685225248L378.7351929639016,181.74280241499636L378.7805442047629,189.94894520591987L379.17862731898936,185.75256665010127L379.4759298979686,178.87337600289038L380.0503789488778,186.1826760354534L380.1259643503132,183.8826073411494L380.5240474645397,189.00233076471886L380.9624427928651,174.23314582606267L381.5973601649225,191.9026804791766L381.7737261016051,190.41488586506506L382.1466140820198,191.9884138959993L382.87727296256213,186.25124154198957L383.00324863162115,189.9085087562757L383.3257463444122,179.14256798720277L383.39629271908524,181.67517250126076L384.0160930108557,179.27070211570677L384.0715223052416,176.83091129443488L384.57542498147774,164.55771568322885L384.91303977455584,173.4045372489645L385.920845127028,165.51542992652972L386.56080152584786,164.76715138103248L386.5658405526102,178.84200368885786L386.7119723287187,180.28900172185675L386.72205038224337,172.36239884070693L387.2209140317171,175.2134137477685L388.2992657588623,184.47074231727092L388.32949991943644,186.84448119525194L388.3597340800106,186.62247869900264L388.37989018706,176.1738221409362L388.3849292138224,178.29316602436566L388.9644172914939,187.7307582818522L390.12843247359916,193.04107884804787L390.6222570963106,193.69632297164898L390.6726473639342,192.48108320164545L390.70792055127066,181.96129000954585L390.7986230329932,188.05868301501386L391.3075647359916,189.8509429802077L391.7409210375546,185.77498195391897L392.1994724729295,182.48574183666722L392.20955052645417,182.93067827528904L392.3707993828497,174.93691299842533L392.4615018645722,188.80000946776758L393.88754643832027,182.4984955347909L394.24027831168553,166.72321664286173L394.8298444428817,163.1820431041997L394.8953517907924,176.75364051023485L395.3589422529296,192.59644073859926L395.50507402903804,185.6796327956809L395.70159607277014,184.4539313904339L397.5106066804576,179.31478182649977L397.641621376279,172.9154380678947L397.75247996505095,169.91926465065083L397.84822147353583,181.84794920002756L397.97419714259485,189.7796858736114L398.05482157079257,197.27762698141194L398.67462186256296,186.33407760644616L398.9870415218293,186.8689256558706L400.03515908840035,182.24722186861473L400.0704322757369,192.8547197219259L400.11578351659807,183.20440897315285L400.36773485471616,180.91105517279487L400.48867149701283,183.35167903333843L400.74062283513086,185.00147609623588L401.4259304748119,167.03362769571714L401.8340916425631,173.01981818458472L401.83913066932547,169.53617768055184L402.70080424568914,170.8608366648692L402.72599937950093,183.83256895043084L402.8570140753223,179.38005212758196L403.1643947078264,176.24641528151236L403.5775949023399,185.60576489684587L403.9252877489428,180.61564873825805L404.1318878461996,180.40821012596913L404.3485659969811,186.3277626938032L405.01371752961273,178.80696677288597L405.0691468239987,182.05014774204753L405.78468862425393,182.2099553400837L406.2583571399158,180.8181983392725L406.32890351458883,191.26079301494266L406.41960599631136,194.18331978841678L408.2689288180978,191.85025414824267L409.7856758735684,184.99906213391657L409.9721198637757,163.52861513787948L411.2469936346529,167.00077389261722L411.8113646320373,181.86479481776246L412.1389013715908,190.56674115558326L412.1741745589273,198.42433193129477L412.2144867730262,199.65659324083975L412.4563600576195,185.3620757958437L412.5017112984807,170.23992545955144L412.79901387746,175.9965567693272L412.8645212253707,169.6630424714656L413.65564842706135,170.0913775303964L413.8219363102192,165.20164792078813L414.0335754342384,173.20338112828037L414.97083441203745,183.09162127746836L415.51001027561006,191.31243263547555L415.857703122213,191.42560035023124L416.08949835328156,185.7455765218292L416.33641066463724,178.32683423201962L416.61859616332947,181.88628054423444L417.28374769596104,193.1890064177597L417.32405991006,188.68419709532165L417.827962586296,196.2959207957914L417.8884309074444,191.02277453099936L417.98921144269156,184.93819402856963L418.5838166006501,191.42811547533572L418.71987032323386,197.31289092455924L418.72994837675856,198.28819233180238L419.183460785371,201.02434931095726L419.5361926587363,189.25690955824882L419.70751956865655,200.83714066013323L419.84861231800267,189.54383223383755L420.53391995768374,188.03595298795366L420.9975104198209,193.16518808883595L421.48629601576994,194.20227161462333L421.5316472566311,195.40363335096998L421.59211557777945,191.5137703265487L421.68785708626433,193.97815816168824L421.7735205412244,168.62556737911942L422.0456279863919,180.95893635658953L422.10609630754027,184.7161458162422L422.2320719765993,193.34122215905194L422.41851596680664,194.1797200056108L422.94257475009215,192.07848488602446L423.03831625857697,192.33990033116882L423.3053846769821,189.12401009988392L423.5674140686249,195.2677582040415L424.6810389831066,192.53276414637764L424.7868585451161,190.31389398534012L425.064005017046,184.98375382439679L425.50240034537137,191.25602732820855L425.5074393721337,186.31059263764791L425.6989223891035,192.0816670849332L425.8752883257861,193.12759197616785L426.8024692500604,195.63339414193464L427.2811767924847,187.80730334446258L428.4754261351642,174.66964323465413L428.78784579443055,183.60492334456288L429.17585085513235,188.6673936343357L429.57393396935885,178.87059005741702L429.67975353136836,178.92233749581268L429.7200657454673,169.65600680601696L429.7956511469027,169.72625992617762L430.3197099301882,182.72206594101684L430.32978798371295,185.25178589097322L430.7833003923254,193.74419959361578L431.7810276912728,182.36528350076782L431.81630087860935,189.26356125503634L432.1488766449251,198.00079442994138L432.17407177873696,198.29766533423054L432.69813056202247,186.51798136320963L432.7837940169826,192.97939605857823L433.12140881006076,200.49744215771335L434.1745654033941,192.6698261423632L434.2551898315919,183.96878721162838L434.3206971795026,182.18091047652226L434.49706311618525,188.64100273688098L434.6280778120066,184.05308175774348L435.80217104763665,185.07356980672142L436.1045126533783,182.62794045231462L436.25568345624913,186.37471644303352L436.351424964734,179.53725967510394L436.7998983465841,178.59702154846033L437.0165764973656,173.60786739394615L437.0619277382268,176.27632336114038L437.21813756785997,165.17146008387886L437.5053620933146,164.33020202591436L438.24106000061926,177.50290051674398L438.8255871050531,128.6133530408141L438.991874988211,157.57821300134952L440.2667487590883,170.48361299700534L440.4380756690085,179.50951153762813L441.82380802865765,192.9731598218206L442.3881790260421,203.4320658322517L443.98051148294815,198.4267850024379L444.2576579548779,185.1458787805781L444.33324335631335,191.85449577244523L444.85226311283645,197.99063735239892L445.22515109325116,192.5008085630868L445.305775521449,195.63148345369788L445.3612048158349,199.59377218224571L445.5325317257552,200.86149223443837L445.935653866744,189.57054917089354L446.24303449924804,190.71552062460717L446.2480735260104,189.27384021700016L446.5403370782273,181.7995290523443L446.64111761347453,183.6468300552121L446.857795764256,182.70726808969013L447.2458008249578,190.22272582920994L447.9563035984507,190.98585127150636L448.07724024074736,189.39718717296086L448.76254788042843,189.92721691069772L449.24629444961505,182.6985458832156L449.5435970285943,193.53117059932669L449.59902632298025,199.92018069621446L451.0301099234907,199.11620738112384L451.5894418941127,194.59960616017455L451.73053464345884,198.85257865052688L451.9875250083393,201.0833553579846L452.47631060428824,196.18662784487492L452.6325204339214,193.12582834633355L452.65771556773325,195.7022039561594L452.7433790226934,189.21387146318372L453.19185240454345,189.17130800838584L454.58262379095504,201.27297961147644L455.5501169293283,201.22799881616731L455.6105852504766,205.40046725600536L456.3513221845436,186.80263446952637L456.40171245216726,193.09793878178422L456.4319466127414,187.49986635427865L456.45210271979084,195.86398315281642L456.60831254942406,200.24621009180794L456.61839060294875,204.33109482494578L456.68893697762184,201.27631332245477L456.719171138196,200.0440923294918L457.0870200918483,198.92453392249146L458.3316597021514,199.06888270685755L458.77509405723913,202.04205035864146L458.9061087530605,198.7747573066327L459.359621161673,181.60327305448976L459.4956748842567,185.45944596315186L459.84840675762194,178.51976194067555L460.1910605774625,195.10986683523637L460.6042607719761,193.97329522094668L460.8461340565694,184.56735273096436L460.92675848476716,190.24929495730316L462.0605395062983,195.3879256839629L462.51909094167314,190.3141832704121L463.19935955459187,188.4276074714877L463.23463274192835,193.69194711517054L463.844354980174,188.88020227180894L463.96529162247066,185.15333241257653L464.0862282647673,185.6816978782039L464.3986479240337,193.08913044096624L464.8773554664579,196.80983692847008L465.43668743707997,202.75743575076066L465.5273899188025,192.1684578080715L466.5855855388982,200.9321148638952L467.07941016160953,197.39393888423677L467.8604593097755,194.76400788225507L468.0267471929334,194.5269849725636L468.11241064789357,192.81186488240428L468.3089326916256,200.59098839327035L469.60900159631467,196.6552153516981L470.59665084173736,204.59315624773393L470.8183680192812,201.10663071346946L470.99473395596385,198.1188450391674L471.14590475883466,194.24542686481206L471.2668414011313,185.22707736288166L471.4280902575269,198.873844618846L471.79090018441684,195.8954397762641L471.92695390700055,198.4201715635684L471.94711001405,191.54086769318968L472.02269541548543,196.63300010336437L472.15371011130685,186.01856114188433L472.2645687000787,196.81003637453728L473.1262422764424,183.94105638874484L473.1463983834919,177.48256676224815L473.21190573140257,182.8870180016533L473.6150278723914,192.87314559150246L473.63518397944085,191.7562325735497L473.81658894288586,202.42896144912478L474.25498427121124,198.9741651130665L474.2902574585478,191.56237932199738L474.5119746360916,201.74132277244698L474.77904305449675,190.16762349514596L474.9755650982288,190.96378098967074L475.7717313266818,198.33747014438583L475.9632143436515,185.4332259840279L476.19500957472013,193.45118621878893L476.2000486014825,184.96867150333935L476.49735118046175,181.4204757995693L476.92062942850004,185.6141349599563L477.28847838215233,188.60366745753296L477.3590247568254,190.96162846616085L478.1048007176548,193.13559188859904L478.25597152052563,198.93745571093586L478.5532740995049,201.68043139247396L478.81026446438534,205.8792241425718L479.8483039774316,199.59143447910955L479.89365521829285,193.6683573607289L480.160723636698,190.44748547079146L480.8409922496167,204.9796426261627L481.02239721306165,196.68785694628514L481.60188529073315,195.34919655141616L482.1712953148799,195.78874252877964L482.51394913472046,196.1483800231729L482.69031507140306,203.42472024983041L483.44616908575716,197.52761832871926L483.4915203266184,198.2122533550981L483.6275740492021,196.84345732180142L483.778744852073,199.30155043576514L483.9500717619933,199.0804409508889L484.17682796629947,199.83613751484987L484.3582329297444,198.4514975030235L484.9276429538912,197.5982237988916L485.008267382089,199.59533319831766L485.32068704135537,202.71692157288783L485.4063504963155,195.98956456552693L485.83970679787853,190.03070030332879L486.8323950700635,202.81565217520654L487.0944244617063,203.76717468426213L489.36198650476865,186.0485016174341L489.5786646555502,193.57464108663413L489.8457330739552,203.11411942477582L489.8810062612918,202.28916417928403L489.981786796539,195.9405842206274L490.11280149236035,192.17047220845967L490.56631390097283,198.2918105552329L490.8283432926156,208.05008722890364L491.13068489835723,211.18785188160481L491.1659580856937,206.38176337890317L491.3120898618022,204.9441516639875L491.5791582802073,197.46782990825108L491.59931438725675,192.62184801810832L491.6648217351675,196.34574010534524L491.7353681098405,195.98869713341563L491.8563047521372,199.77053298504453L491.9167730732855,206.46556842878726L492.0780219296811,195.12622474199105L492.11329511701757,193.74303148804162L492.18384149169066,197.10544494871178L492.75325151583735,200.9505903371097L492.8086808102234,201.41568680625863L492.83891497079753,197.26703464557562L493.04551506805427,188.19621236741014L493.0656711751038,179.98903555531868L493.1362175497768,194.10108931370124L493.2521151653111,184.60397445953706L493.78625200212133,196.226374460705L494.3153498121692,197.88091269135202L494.39597424036697,202.11529287172925L494.54714504323783,205.40717681516827L495.5247162351358,200.58194947932807L495.99334572403535,201.0349715295547L496.0336579381342,194.1045957598393L496.5778728284692,190.18787888903583L496.6786533637164,203.6496320067717L497.6562245556144,209.47904433366847L498.3516102488201,202.335282149388L499.81292800990474,203.60539474321808L500.0850354550722,196.71410691076593L500.21101112413123,201.55436103994447L500.8459284961887,207.3060782239088L501.2540896639399,199.1856903933426L501.5614702964439,198.1100645500249L501.65721180492875,187.80740169516415L501.954514383908,204.83827374831048L502.93712460256836,209.73773374565303L503.5115736534775,208.46952976272632L503.76352499159555,186.28414925351817L504.23215448049507,187.1496878361208L504.3127789086929,176.48930954560814L504.4639497115637,189.32687889055853L504.831798665216,200.7290487034172L505.4062477161251,203.6969942811314L505.84968207121284,188.66101570340692L506.1923358910534,199.43666290804703L506.65088732642823,203.78076918489495L506.660965379953,199.54439471025427L506.6911995405271,199.95917708521424L507.6083024112767,201.95958640367593L508.41454669325447,200.31906801890378L508.59595165669947,201.46406997023445L509.1754397343709,198.26335986885533L509.19559584142036,190.9337041881351L509.66422533031994,197.17945784243798L509.9413718022498,194.36375904876016L510.24371340799144,193.71019215167738L510.72242095041565,191.68041378554602L512.2996363270346,198.16227321883088L512.5213535045784,202.74521333213045L512.5415096116279,204.2397447540869L512.5818218257267,208.97388637910865L513.3275977865562,212.4612480843386L513.5644320443871,215.0723697865513L513.8970078107029,208.0669967505809L513.9070858642277,215.93059488513174L514.7536423603042,210.94717516920542L515.0307888322341,198.00343331702257L515.1718815815801,199.7391736244693L515.3381694647381,207.7342783567736L515.4591061070347,204.77090793876582L515.5094963746584,189.45347681383495L516.1292966664287,202.72175628085625L516.2199991481513,209.949306107779L516.789409172298,203.66859612014073L516.9960092695547,203.69133332257925L517.600692481038,208.39208223626758L518.1247512643235,208.43245903548754L518.2910391474815,211.26963491000438L518.6135368602726,204.5328988301269L518.6639271278962,195.9940826259678L519.0620102421226,203.70584368839314L519.137595643558,198.90897145557392L519.3240396337654,196.95365997335708L520.6190695116921,203.48788447790946L520.6593817257909,201.76347831384714L520.9566843047703,192.09120321940497L521.0272306794433,202.0316448520189L521.8637091219953,198.12161036169374L522.1559726742122,188.34548200465946L522.1912458615486,199.8489286291382L522.2114019685981,199.96607413843466L522.2315580756475,212.38950607635925L522.9420608491404,202.94698665687204L523.1083487322983,205.5342557855971L523.1637780266843,194.56948621736248L523.7533441578805,206.78384955293998L524.0002564692362,211.0330859706887L524.0758418706715,214.0784237645771L524.1816614326812,213.6676017231974L524.2572468341165,215.0154934644816L524.8518519920751,197.07316873138188L525.4918083908949,205.86315750082468L525.9856330136063,197.28861043052405L526.6054333053767,201.20284364184621L526.7868382688216,203.42776327840173L526.8976968575936,199.2618312751369L527.1194140351374,203.37490039291686L527.2605067844835,198.11813834574596L527.7039411395713,196.79065202239104L528.3590146186782,201.84833600985277L528.5857708229844,203.8870411072916L529.6490054698426,201.71466590865242L530.1831423066528,201.0215611899224L530.1982593869398,195.49211791158808L530.3292740827612,201.55197130672195L530.4854839123944,205.63692762795512L531.387469702857,216.05240272903697L531.4126648366688,213.61251462134587L531.4529770507676,217.90468323716544L532.2692993862701,206.36296322479248L532.5363678046753,202.78434815922643L532.6824995807837,205.529387904688L533.0604265879607,202.56774230309463L533.5290560768602,209.54196507476436L533.5441731571474,211.9429504310289L534.1740515024425,211.03105782453565L535.2473642028252,215.11133312370677L535.4136520859831,215.8225671018155L535.6252912100023,211.91342076509054L535.7865400663978,213.96165857415127L535.8923596284075,215.7648112798259L536.2702866355845,211.59157191855027L536.3408330102575,215.76252809376132L536.376106197594,214.9348428393623L536.7792283385829,203.39023529464146L537.6812141290454,214.55267606167556L537.8475020122034,214.9677685976406L538.0289069756484,211.20123296974182L538.749487802666,220.30454241626506L538.9359317928732,217.7402108641292L539.9487761721078,213.1721344103139L540.0697128144044,222.8183714687363L540.2611958313742,217.3394328798796L540.2914299919483,223.79359348511178L541.1178303809754,218.90352145752396L541.1934157824109,218.67536938927935L541.3647426923311,217.0242141695587L542.2112991884078,225.33319721517114L542.5841871688224,220.5485724900208L543.1384801126821,216.39574268134828L544.2470660004014,212.34362119475344L545.2800664866854,221.70331778611387L545.5370568515658,226.7249137347225L546.0107253672277,230.6112673381656L546.5952524716615,218.40135288411736L546.8723989435914,210.50810640944522L547.0235697464623,213.6287592643154L547.0437258535117,212.4511559311001L547.2553649775308,211.53948789420227L547.4166138339264,214.29454741145938L547.5526675565101,218.92496527946963L547.6383310114702,207.1420752012502L547.7139164129056,207.39832344207716L547.7643066805292,200.32949272807596L548.1875849285675,202.34282893091958L548.9031267288227,200.88617445994302L548.9837511570206,209.9444393109285L548.9988682373076,206.07706749094612L549.0139853175947,208.03982065484414L550.162883419413,208.69894087177772L550.399717677244,214.93965441488058L551.0094399154896,215.70432454842512L551.7350597692695,213.38878991340107L551.9769330538628,207.59206517222188L552.0575574820606,204.12684368823594L552.2087282849313,211.72569635677291L552.4556405962871,204.87004506486068L552.5463430780095,202.24266582686033L552.6168894526826,209.58679775756355L552.9545042457607,200.70586798044255L553.1762214233047,205.12132311696075L553.3122751458884,203.12563952772388L553.9119193306093,200.4044313016216L554.3049634180735,200.87087546534062L554.773592906973,206.77208594824486L554.8038270675471,211.39364016679073L554.9146856563191,218.2334749561721L555.3681980649316,222.36140712829194L555.87713976793,218.15538563464318L556.2651448286317,207.7723348370005L556.4062375779779,203.17755915443192L556.8748670668774,208.3181334677461L557.0865061908966,207.43791737436902L557.2527940740545,206.66150146306495L557.5803308136079,204.0163310744227L558.2605994265266,207.10943090425297L559.021492467643,215.12159740243982L559.5253951438791,219.20640905638209L559.943634365155,204.15261912500702L560.3014052652827,208.683473942994L560.7901908612317,203.3180825339499L560.85065918238,202.39848264293693L560.9917519317261,211.62453561134916L561.1177276007851,218.15169392419978L561.6014741699718,217.82728550608326L562.3371720772764,204.47682508027617L562.6747868703546,202.96547154295217L562.9015430746608,204.69415205055407L564.6500853612,204.3964334493386L564.7811000570214,216.24547871652538L564.9473879401793,212.02635916411498L565.0532075021888,210.1615089635654L565.8846469179783,205.86718433109766L566.54979845061,205.4134208877934L566.7060082802432,216.77939842930851L566.7463204943421,213.39191677824016L568.3537700315351,215.00085573307246L568.6510726105143,225.53669814647915L568.7921653598605,221.80501492337672L568.8072824401476,203.83866383398052L568.867750761296,205.42401538413134L569.1096240458892,200.15196192704826L570.0972732913119,208.05567910067262L570.7926589845177,204.19478912171292L571.145390857883,207.2627345543123L571.1504298846453,210.09239109231336L571.5737081326836,205.87541391659974L572.082649835682,216.52899556510857L572.3547572808495,210.96959286747028L572.3698743611366,220.59382561894708L572.9241673049963,216.07175157792207L573.186196696639,216.85308698811667L573.3474455530346,213.62541627471535L573.4381480347571,207.90550474584876L573.9672458448049,206.65490850971076L574.4358753337045,209.49965762639238L574.5215387886647,212.24347819378804L574.6777486182978,205.14908250429846L574.8994657958416,209.1650898478742L575.0304804916631,216.434652428832L575.1614951874844,225.73785312091317L576.6026568415195,231.8866926657285L576.6530471091431,225.54001906739094L576.6631251626679,219.75063415558708L577.489525551695,218.30071841323104L578.4973309041671,211.6957232259586L578.507408957692,205.91404390237705L579.011311633928,215.32771911815342L579.066740928314,213.44917624220034L579.2078336776601,224.5355322081851L579.3388483734815,213.9541944729172L580.3013024850924,220.93073338963353L580.4474342612008,213.50404208701974L580.5381367429233,209.70363465138948L580.8304002951402,208.54561838332427L580.9462979106745,220.9439776969008L580.9563759641992,212.87360420453976L581.2889517305151,210.13315570672407L581.3343029713762,204.77073611833092L581.4905128010095,203.58075554164594L581.5963323630191,216.99046416534634L581.7223080320781,222.49461719013712L582.0951960124927,224.0938585276745L582.306835136512,208.70718415615704L582.6394109028278,222.49056458761683L583.0778062311531,220.20671047586364L583.6371382017751,226.03306069422047L583.8437382990319,221.66984619599168L584.3073287611692,221.9353426982042L584.3526800020304,222.66593272574423L585.6073976658582,204.50700651501995L586.1465735294307,213.091815011186L586.7966079817753,217.8655498117876L587.3660180059221,214.73228441929024L588.0714817526526,220.89874281084212L588.8827650613927,219.5012453581135L589.0238578107387,218.83148496892173L589.0641700248376,221.39392073606984L589.250614015045,208.31222182337282L590.3944730901009,203.8967141332279L590.5002926521105,202.14869277774363L591.3619662284741,207.55855189150776L591.5332931383944,199.6755234359257L591.7298151821265,206.4494132156758L592.7275424810739,207.223177633778L594.5617482225732,211.5742095250088L595.1865875411058,219.38499251823606L595.509085253897,216.79055168590955L595.5141242806593,224.71926482899735L595.5997877356194,222.09864188138027L595.7207243779161,232.4042938678164L595.7509585384903,232.38718139922275L595.8970903145987,215.30870627010208L596.0885733315685,213.90154453017914L596.3455636964488,218.89690299663928L596.7638029177248,216.4051672861207L597.156847005189,219.89436171600371L597.6657887081874,216.80441840153395L598.2855889999577,219.16188076860558L598.834842917055,211.8259976669997L598.8650770776293,209.5836594079505L599.1623796566086,219.78004585926797L600.0845215541204,230.13005619517125L600.0895605808829,228.3146601421155L600.1550679287935,216.08884362262725L600.8655707022864,217.98548967600692L601.1175220404044,218.83486337379824L601.515605154631,217.25376077936465L601.6214247166405,215.21183083926724L602.3520835971829,215.88718298410416L602.5586836944397,217.63346067185415L602.689698390261,221.0321541257305" style="fill: none;" fill="none"></path></g></g></g></g><g opacity="0.2"><g><g><g><path stroke="rgb(0, 153, 136)" stroke-width="2px" d="M251.74164049888705,107.24459078673254L251.75675757917412,137.54540170853983L252.0036698905298,97.77908096549368L252.37151884418213,33.241877472352485L252.6839385034485,91.07886200348662L252.7091336372603,148.74734680452005L252.8149531992699,148.03282798552559L252.90565568099237,144.38934328998144L253.08202161767497,120.6265948479624L253.09209967119972,21.280587939011866L253.13241188529858,9.642438830348965L253.91850006022688,110.16786696215172L254.23091971949322,97.30112684856971L254.44759787027476,65.14793376952417L254.48287105761128,143.35447123098476L254.7247443422046,107.10400134731236L254.79025169011527,137.081114407507L255.12786648319346,-156.43697698614665L255.16817869729235,7.6932740880026245L255.5713008382812,151.5184811405886L255.60153499885533,144.6996434431889L255.74262774820144,164.78519186607303L256.6395745119016,117.44999241849376L256.9016039035444,171.7504913126745L257.0930869205141,144.8811179985028L257.4760529544535,151.8616412400209L257.88421412220475,98.36671560488571L258.1613605941346,141.6440624945227L258.1764776744217,132.92644082053005L258.2470240490947,139.57783599580932L258.26718015614415,141.34706393990407L258.5090534407375,122.48038020852002L258.54432662807403,127.44287602424606L258.76604380561787,124.95145969780859L259.3505709100517,139.32735459232504L259.5118197664473,156.0525001728699L260.0509956300199,129.36253505295963L260.2676737808014,148.6634429348087L260.2827908610885,96.57593983995554L260.821966724661,150.5645143250318L260.98825460781893,129.4776938349621L261.1898156783134,142.52519729121664L261.3409864811842,115.90944817152524L261.7894598630343,113.52275310102999L262.09180146877594,124.88364461136149L262.6108212252991,150.03719820640822L262.9282799113278,144.85789786686215L263.15503611563406,135.6056172842735L263.5682363101476,134.4318280966619L263.8050705679786,136.65924997943014L263.8907340229387,21.73224641017066L263.9008120764634,-65.16010037605633L264.0519828793343,142.31160283526413L264.0570219060966,152.23166403313522L264.11749022724496,77.98005512724131L264.14268536105675,133.9728076135674L264.2888171371652,160.88213377841382L265.0597882318064,156.74515400863493L265.33693470373623,134.17406156909502L266.48079377879213,137.44060356474452L266.83856467891974,167.40455919107487L267.45836497069007,104.08934395846649L267.806057817293,132.52191460333057L267.88668224549076,163.78841773829464L267.8917212722531,106.55682894062198L268.18398482447003,143.79461574613958L269.06581450788315,146.34012267724316L269.7612002010889,140.1510157188158L269.77127825461366,140.37566280365354L270.0232295927317,63.572751544727566L270.3810004928593,120.67042092423776L270.74884944651166,120.65883008038077L270.78412263384814,129.7409194001001L271.32329849742075,141.32555456299522L271.46439124676687,142.50480278817798L271.8675133877557,113.30617924076927L272.1799330470221,108.59593324914914L272.67375766973345,165.155435711765L272.8551626331784,94.46798245896423L273.2834799079791,134.02286160594502L273.701719129255,144.3492847185087L274.1653095913922,146.26002475626098L274.2509730463523,52.88582051087258L275.0320221945182,124.01950203020587L275.0521783015677,141.83443681883458L275.09249051566655,121.20896266941608L275.65686151305096,100.79431501323796L275.72740788772404,156.86391690875217L276.1909983498612,146.1358700954441L276.57900341056296,147.37084279217166L277.2592720234817,149.6156797736704L277.40036477282774,118.17477576587902L278.46359941968586,154.56158703508697L278.53414579435895,174.0630376598223L278.8415264268629,174.02639098683153L279.49156087920744,169.17994777440046L280.1466343583144,172.59071216052982L280.3683515358582,142.7930745714681L280.7966688106589,147.13664239158445L281.0788543093511,127.3970508637897L281.1141274966876,127.41375474987885L281.2955324601326,139.47071199445733L281.71377168140856,114.12395844649672L282.7719673015043,120.87473117192667L282.86770880998915,138.31597177245487L283.2204406833544,142.63122564066174L283.6588360116798,148.3223491964288L284.3844558654597,128.85092327833468L284.6565633106272,154.56136598250924L284.80269508673564,171.55549410619406L285.2864416559223,163.85548316817392L285.3469099770706,154.65213209311108L286.0674908040882,131.05160741018233L286.6318618014726,135.6052520669712L287.377637762302,155.94015740848778L287.58423785955875,116.73916421644878L288.72809693461465,135.46414363454252L289.1211410220788,159.2099479159314L289.13625810236584,169.66725337645948L289.2118435038013,135.20184072364188L289.3781313869592,136.90634831737736L290.7739418001331,117.95268520215734L290.8243320677567,161.78917017062577L291.00069800443936,132.2520190169349L291.79686423289235,149.49392785826333L292.1747912400694,134.5110802512598L292.7492402909785,140.22917222150681L292.9558403882353,154.98700752637032L293.6713821884905,167.65548269971458L293.6965773223023,112.88208506495215L293.7419285631636,125.69311992895257L294.3516508014092,121.99066225006948L294.4020410690328,142.3088540945153L294.8706705579323,166.58631865822875L296.26648097110626,81.68522310294668L296.4126127472147,140.15120793844855L296.5184323092243,142.82923108439527L296.55370549656084,162.15665566458725L296.84596904877776,175.11890971370096L298.19138919432805,89.92913871389993L299.07321887774117,140.4167593611433L299.2395067608991,161.67774044949937L299.6728630624621,130.96014930890243L299.7383704103728,138.86420138712563L300.1918828189853,135.3481006422292L300.30778043451954,168.6880385121362L300.3984829162421,155.6646009539065L301.1291417967843,138.75986457044905L301.45163950957544,153.69856893878315L302.3435472465133,152.44952576493557L303.31104038488655,171.9715438903791L303.3463135722231,142.48798357030915L303.9308406766569,154.62702820906915L304.3339628176457,158.73631874074513L304.5506409684273,147.06627078402124L304.9789582432279,136.23594390410742L305.1351680728611,135.05584991254042L305.2157925010589,146.8403550496071L305.5030170265135,170.9147972371713L305.73481225758206,139.55626895301066L305.7398512843444,160.3231590862703L305.85070987311633,162.2032881475013L306.15809050562035,116.68930244370392L306.2034417464816,158.90972968246356L306.4654711381243,145.1056881954874L306.4805882184114,141.303257085592L306.6720712353811,137.99450365858252L306.78796885091543,131.61942420543406L306.8282810650143,162.45950730702427L307.0600762960829,166.95415014752922L307.4732764905965,161.23084902523368L307.5690179990813,88.01893689111944L307.9570230597831,169.40094268621522L309.07064797426483,138.59716987325845L309.33771639266996,135.28616747654536L309.4384969279172,135.2588530667264L309.59470675755034,156.2237198107746L309.6400579984116,164.61833561383258L309.81138490833183,160.42465105238165L310.2245851028454,149.0771956943819L310.4110290930528,148.66782554243622L310.7839170734675,156.48479251602544L311.3583661243766,137.39464385054526L311.84211269356325,160.30662819785064L311.86730782737504,161.6564425141866L312.04871279082,162.6504679012161L312.69370821640223,144.42332772105812L312.82472291222354,140.26479051946217L312.92550344747076,179.32917321847978L313.459640284281,172.6032256586242L314.0391283619525,130.75797269913747L314.30619678035765,159.4420531225213L315.3795094807404,161.72817888114258L316.41754899378674,168.83540369361202L316.72996865305316,150.9098945612228L317.12301274051725,133.79781085987847L317.2086761954774,169.7573274963833L317.34472991806115,165.08691902365823L317.45054948007066,155.51302616247258L317.51101780121905,159.05486511619915L317.58660320265443,156.69758926050187L319.06303804402614,166.1206473758398L319.0831941510756,167.7695073858836L319.5770187737869,168.93974051028863L319.7886578978061,164.58050679010017L320.0456482626864,151.52561248896498L320.16154587822075,157.29713190614504L320.4588484572,174.91957795450122L321.1189609630693,185.1005196379903L321.49184894348394,150.6288310141622L322.4794981889067,174.73892994360833L323.19000096239955,159.82151389960535L323.5225767287153,172.34082663790716L323.5578499160519,90.61194129348462L323.68886461187327,152.7738675623181L323.77956709359574,156.48021768876512L324.076869672575,165.10847645547526L324.32882101069305,136.63043625647543L325.2610409617298,179.4752793613609L325.29127512230394,137.8028222407677L325.4424459251748,167.48832850704332L325.487797166036,149.03986664169477L325.5381874336596,176.06459186308464L326.0017778957968,117.93304035568656L326.04712913665804,190.27874354759277L326.1529486986677,156.56064238312302L326.47544641145873,159.80727042481587L326.5711879199436,145.366953120371L327.56891521889094,167.97396179829707L328.0224276275035,184.3434337813152L328.4557839290665,166.23977549325932L328.74804748128344,142.52139134248748L329.49886246887513,169.7270721261827L329.5089405223999,163.49841597830945L329.6701893787954,149.82837079734884L329.8263992084286,167.7673545259964L330.8442826144254,162.1235842767663L330.9652192567221,141.69403959904722L331.28771696951316,162.76859647654516L332.1191563853027,161.3184242899313L332.6331371150635,141.84318281212637L332.7389566770731,170.00118693351806L333.40914723646705,157.01561664294735L333.77195716335706,152.3146164156643L333.8828157521289,184.84487713736573L334.20027443815763,179.06070005736666L334.6991380876314,160.59533247531454L335.66663122600465,176.28292453298533L336.23100222338905,171.36782046772288L336.47287550798234,150.26171073750302L336.68451463200154,151.8851208681658L337.52603210131576,160.03833764538868L337.682241930949,159.44566685161766L338.3977837312042,165.91379982899812L338.6648521496093,161.48931715446025L338.7908278186683,131.720820061729L338.9016864074402,175.2942716846922L339.4307842174881,168.70390624282268L339.9296478669618,170.12722534673625L340.00019424163486,157.83270385799682L340.1463260177433,168.506093018722L340.1866382318422,171.4706387493004L340.33277000795067,179.48207432537987L340.83163365742433,180.62900081930954L341.99564883952974,163.57412168068248L342.32318557908314,181.13474989513443L342.5600198369141,151.8828718984622L343.56278616262387,188.52703642302652L343.83489360779134,173.65631052782746L344.5050841671853,184.41615046839837L344.5101231939477,196.9904668546221L345.2155869406782,199.47685663766217L345.86058236626036,183.30854250035523L346.4904607115555,172.43891631651817L347.05987073570225,164.05457465283268L347.8560369641552,165.40723381973388L348.1231053825603,173.26163556680828L348.63708611232113,178.1638224727475L349.9169989099608,189.82082832738678L349.94723307053493,149.9464705397329L350.4964869876322,172.75212859716237L350.56703336230527,164.00085887645042L350.95503842300707,181.59824909567288L350.9852725835812,182.45755735306386L351.53452650067857,155.37239827912592L351.99811696281574,153.70680555004805L352.28534148827026,180.56651982767224L352.4869025587647,176.50763889469457L352.5776050404872,167.50604154620459L352.6078392010613,180.14107050344393L352.6229562813484,183.71313599442618L353.0059223152879,179.82065959755192L353.0109613420502,168.11553155784443L353.2477955998812,175.97660332617656L353.40400542951437,174.7823235257099L353.54005915209814,188.966950274622L353.5551762323852,166.73896026862457L353.58037136619697,176.64432627556914L353.9381422663246,158.96377223222157L354.2404838720662,152.23250018853784L354.52770839752077,135.18292631177565L354.754464601827,188.7444368277082L354.96106469908386,199.88297827781375L355.0265720469945,171.03674137221117L355.03161107375684,179.05990234589058L355.1424696625288,141.3791838405427L355.22309409072653,185.15215944233842L355.88824562335816,194.26203410997712L356.23593846996107,173.99053241433518L356.2510555502481,177.77049304915784L356.2560945770106,188.37532707784965L356.4979678616038,142.125418898947L356.61890450390047,176.40381146004486L357.7526855254317,175.31357053582397L358.07518323822273,195.48194639847586L358.40271997777614,170.60586184335662L358.51861759331047,160.15297743438265L358.94189584134875,178.5602177994801L358.95701292163585,163.66750197829023L358.98220805544764,185.72475289546492L359.31982284852586,180.54768230365914L359.4105253302483,183.7084746683311L359.7884523374254,201.09139583227184L359.98497438115743,156.74550961495558L360.7811406096104,182.55774222567226L360.9978187603919,200.95071989401697L361.35558966051957,188.3314433356845L361.48660435634093,202.21115208110714L361.5924239183505,181.63023444256856L361.6226580789247,185.31520013486806L362.41882430737763,192.98056348407843L363.6231517035818,193.17624307025525L363.8599859614128,164.69802026260427L364.0514689783825,192.29548310184524L364.1925617277286,160.20139755988157L364.7670107786377,176.77249832671123L365.1298207055277,154.4956653120228L365.58837214090255,179.84924265694727L366.2434456200095,176.64524892980648L366.6213726271865,143.52537370649534L367.07488503579896,191.6084420793576L368.12300260237,157.63564029046393L368.17339286999356,159.94960906289438L368.3447197799138,157.9375116127737L368.3951100475374,184.4583234558318L368.5261247433588,175.02319394755483L368.75288094766506,208.74199671368424L368.8687785631994,183.61679551447352L369.2467055703764,177.85238822370655L369.57928133669225,169.89784004795035L370.148691360839,185.18463494929773L370.3956036721946,181.65902894356L370.80376483994587,184.0251757353104L370.85919413433186,162.7075186882272L370.959974669579,161.4390613314682L372.15422401225857,161.0399749298766L372.86472678575143,158.0588598669519L373.0612488294835,159.3506719090945L373.20738060559194,185.2877223383612L373.6457759339173,185.22835530477502L373.88764921851066,162.52861026501105L373.89772727203535,181.86767374396828L374.08921028900505,157.23021064099038L374.2051079045394,145.73268941567412L375.2733815781598,161.2147698529511L375.59587929095096,195.0257227110384L376.0897039136623,189.83931985606088L376.1300161277611,170.03471003747606L377.0068067844119,190.03662369813472L377.1730946675698,161.16914652310916L377.5459826479845,182.267769298632L377.74250469171653,191.42209475635258L378.17586099327957,184.9536542275597L378.66968561599094,170.7052393935073L378.7351929639016,186.6504057591122L378.7805442047629,202.25815939230512L379.17862731898936,179.45799881637333L379.4759298979686,168.55459003207403L380.0503789488778,197.14662608429796L380.1259643503132,180.4325042996934L380.5240474645397,196.68191590007297L380.9624427928651,152.07936841807836L381.5973601649225,218.40698245884744L381.7737261016051,188.18319394389778L382.1466140820198,194.34870594240058L382.87727296256213,177.64548301097506L383.00324863162115,195.3944095777048L383.3257463444122,162.99365683359338L383.39629271908524,185.47407927234784L384.0160930108557,175.66399653737562L384.0715223052416,173.1712250625271L384.57542498147774,146.1479222664198L384.91303977455584,186.67476959756794L385.920845127028,153.6817689428776L386.56080152584786,163.64473356278666L386.5658405526102,199.95428215059596L386.7119723287187,182.45949877135504L386.72205038224337,160.47249451898224L387.2209140317171,179.48993610836084L388.2992657588623,198.35673517152458L388.32949991943644,190.4050895122234L388.3597340800106,186.28947495462876L388.37989018706,160.5008373038366L388.3849292138224,181.47218184950975L388.9644172914939,201.88714666808198L390.12843247359916,201.0065596973415L390.6222570963106,194.67918915705064L390.6726473639342,190.65822354664013L390.70792055127066,166.18160022139648L390.7986230329932,197.20477252321592L391.3075647359916,192.53933292799837L391.7409210375546,179.66104041448588L392.1994724729295,177.5518816607896L392.20955052645417,183.59808293322175L392.3707993828497,162.94626508312982L392.4615018645722,209.59465417178086L393.88754643832027,173.0462246353259L394.24027831168553,143.0602983049681L394.8298444428817,157.87028279620657L394.8953517907924,197.11103661928752L395.3589422529296,216.36064108114584L395.50507402903804,175.30442088130334L395.70159607277014,182.61537928256334L397.5106066804576,171.60605748059862L397.641621376279,163.31642242998709L397.75247996505095,165.42500452478498L397.84822147353583,199.74097602409265L397.97419714259485,201.67729088398715L398.05482157079257,208.52453864311272L398.67462186256296,169.91875354399752L398.9870415218293,187.6711977300073L400.03515908840035,175.31466618773084L400.0704322757369,208.76596650189273L400.11578351659807,168.72894284999316L400.36773485471616,177.47102447225788L400.48867149701283,187.01261482415373L400.74062283513086,187.476171690582L401.4259304748119,140.08185509493916L401.8340916425631,181.9991039178861L401.83913066932547,164.31071692450251L402.70080424568914,172.84782514134523L402.72599937950093,203.29016737877328L402.8570140753223,172.7012768933087L403.1643947078264,171.54596001240787L403.5775949023399,199.64478931984618L403.9252877489428,173.13047450037632L404.1318878461996,180.0970522075358L404.3485659969811,195.20709154555425L405.01371752961273,167.52577289151014L405.0691468239987,186.9149191957899L405.78468862425393,182.44966673713802L406.2583571399158,178.73056283805562L406.32890351458883,206.92468502844793L406.41960599631136,198.56710994862794L408.2689288180978,188.35065568798152L409.7856758735684,174.72227411242733L409.9721198637757,131.32294464382394L411.2469936346529,172.20901202472376L411.8113646320373,204.16082620548033L412.1389013715908,203.6196606623145L412.1741745589273,210.21071809486202L412.2144867730262,201.50498520515723L412.4563600576195,163.92029962834957L412.5017112984807,147.55669995511306L412.79901387746,184.63150373399088L412.8645212253707,160.16277102467313L413.65564842706135,170.7338801187925L413.8219363102192,157.86705350637578L414.0335754342384,185.2059809395187L414.97083441203745,197.92398150125038L415.51001027561006,203.64364967248628L415.857703122213,191.59535192236484L416.08949835328156,177.2255407792261L416.33641066463724,167.1987207973053L416.61859616332947,187.22545001255673L417.28374769596104,210.14309522804766L417.32405991006,181.92698311166458L417.827962586296,207.71350634649608L417.8884309074444,183.11305513381126L417.98921144269156,175.81132327492494L418.5838166006501,201.1629976454849L418.71987032323386,206.1400540983945L418.72994837675856,199.75114444266706L419.183460785371,205.1285847796896L419.5361926587363,171.60574992918617L419.70751956865655,218.20748731295984L419.84861231800267,172.60386959439407L420.53391995768374,185.77413411912778L420.9975104198209,200.85904074015937L421.48629601576994,195.75789690330433L421.5316472566311,197.20567595549L421.59211557777945,185.67897578991676L421.68785708626433,197.6747399143976L421.7735205412244,130.59668120526624L422.0456279863919,199.45898982279465L422.10609630754027,190.3519600057212L422.2320719765993,206.27883667326645L422.41851596680664,195.43746677544902L422.94257475009215,188.926632206645L423.03831625857697,192.73202349888533L423.3053846769821,184.3001747529566L423.5674140686249,204.48338036027795L424.6810389831066,188.4302730598817L424.7868585451161,186.98558874378392L425.064005017046,176.98854358298178L425.50240034537137,200.6644375839262L425.5074393721337,178.8924406018069L425.6989223891035,200.7382787558612L425.8752883257861,194.69647931301984L426.8024692500604,199.3920973905849L427.2811767924847,176.06816714825447L428.4754261351642,154.9631530699415L428.78784579443055,197.007843509426L429.17585085513235,196.26109906899484L429.57393396935885,164.17538469203905L429.67975353136836,178.99995865340608L429.7200657454673,155.75651077132343L429.7956511469027,169.8316396064186L430.3197099301882,202.21577496327566L430.32978798371295,189.0463658159078L430.7833003923254,206.48282014757962L431.7810276912728,165.29690936149598L431.81630087860935,199.61097788643903L432.1488766449251,211.1066441922989L432.17407177873696,198.7429716906644L432.69813056202247,168.84845540667823L432.7837940169826,202.67151810163114L433.12140881006076,211.77451130641606L434.1745654033941,180.928402119338L434.2551898315919,170.91722881552607L434.3206971795026,179.49909537386313L434.49706311618525,198.33114112741904L434.6280778120066,177.1712002890373L435.80217104763665,186.60430188018833L436.1045126533783,178.9594964207045L436.25568345624913,191.99488042911184L436.351424964734,169.2810745232095L436.7998983465841,177.18666435849497L437.0165764973656,166.1241361621749L437.0619277382268,180.27900731193165L437.21813756785997,148.5141651679866L437.5053620933146,163.06831493896775L438.24106000061926,197.2619482529883L438.8255871050531,55.279031826919265L438.991874988211,201.0255029421526L440.2667487590883,189.84171299048907L440.4380756690085,193.0483593485623L441.82380802865765,213.1686322481093L442.3881790260421,219.12042484789833L443.98051148294815,190.9188637577172L444.2576579548779,165.22451944778854L444.33324335631335,201.91742126024587L444.85226311283645,207.19484972232954L445.22515109325116,184.26606537911857L445.305775521449,200.3274957896145L445.3612048158349,205.5372052750674L445.5325317257552,202.76307231272742L445.935653866744,172.6341345755763L446.24303449924804,192.4329778051775L446.2480735260104,187.11131960558967L446.5403370782273,170.5880623053606L446.64111761347453,186.41778155951383L446.857795764256,181.29792514140703L447.2458008249578,201.4959124384897L447.9563035984507,192.13053943495103L448.07724024074736,187.01419102514257L448.76254788042843,190.72226151730302L449.24629444961505,171.85553934199237L449.5435970285943,209.78010767349338L449.59902632298025,209.5036958415462L451.0301099234907,197.9102474084878L451.5894418941127,187.8247043287507L451.73053464345884,205.23203738605534L451.9875250083393,204.42952041917113L452.47631060428824,188.84153657521037L452.6325204339214,188.53462909852158L452.65771556773325,199.5667673708981L452.7433790226934,179.4813727237202L453.19185240454345,189.10746282618905L454.58262379095504,219.42548701611236L455.5501169293283,201.16052762320356L455.6105852504766,211.65916991576242L456.3513221845436,158.90588528980786L456.40171245216726,202.54089525017096L456.4319466127414,179.1027577130204L456.45210271979084,208.41015835062302L456.60831254942406,206.81955050029526L456.61839060294875,210.4584219246525L456.68893697762184,196.6941410687182L456.719171138196,198.19576084004743L457.0870200918483,197.24519631199095L458.3316597021514,199.28540588340667L458.77509405723913,206.50180183631733L458.9061087530605,193.8738177286196L459.359621161673,155.84604667627545L459.4956748842567,191.24370532614495L459.84840675762194,168.11023590696118L460.1910605774625,219.9950241770775L460.6042607719761,192.26843779951216L460.8461340565694,170.45843899599092L460.92675848476716,198.77220829681127L462.0605395062983,203.09587177395255L462.51909094167314,182.70356965008588L463.19935955459187,185.59774377310114L463.23463274192835,201.58845658069484L463.844354980174,181.66258500676656L463.96529162247066,179.56302762372795L464.0862282647673,186.47424607664493L464.3986479240337,204.20027928510981L464.8773554664579,202.3908966597259L465.43668743707997,211.6788339841965L465.5273899188025,176.28499089403778L466.5855855388982,214.07760044763077L467.07941016160953,192.08667491474912L467.8604593097755,190.81911137928256L468.0267471929334,194.17145060802642L468.11241064789357,190.23918474716527L468.3089326916256,212.2596736595695L469.60900159631467,190.75155578933968L470.59665084173736,216.50006759178763L470.8183680192812,195.87684241207273L470.99473395596385,193.6371665277143L471.14590475883466,188.43529960327908L471.2668414011313,171.69955310998603L471.4280902575269,219.34399550279244L471.79090018441684,191.4278325123913L471.92695390700055,202.20726924452484L471.94711001405,181.22191188762156L472.02269541548543,204.2711987186264L472.15371011130685,170.09690269966418L472.2645687000787,212.99724922351675L473.1262422764424,164.63758641005617L473.1463983834919,167.79483232250323L473.21190573140257,190.99369486076102L473.6150278723914,207.85233697627623L473.63518397944085,190.08086304662055L473.81658894288586,218.4380547624874L474.25498427121124,193.79197060897903L474.2902574585478,180.4447006353937L474.5119746360916,217.0097379481214L474.77904305449675,172.80707457919445L474.9755650982288,192.15801723145788L475.7717313266818,209.3980038764585L475.9632143436515,166.07685974349104L476.19500957472013,205.47812657093044L476.2000486014825,172.24489943016502L476.49735118046175,176.09818224391412L476.92062942850004,191.9046237005369L477.28847838215233,193.087966203898L477.3590247568254,194.4985699791027L478.1048007176548,196.39653702225633L478.25597152052563,207.64025144444108L478.5532740995049,205.79489491478117L478.81026446438534,212.1774132677185L479.8483039774316,190.15974998391619L479.89365521829285,184.78374168315793L480.160723636698,185.61617763588538L480.8409922496167,226.77787835921956L481.02239721306165,184.25017842646878L481.60188529073315,193.34120595911273L482.1712953148799,196.44806149482477L482.51394913472046,196.68783626476284L482.69031507140306,214.33923058981665L483.44616908575716,188.68196544705253L483.4915203266184,199.23920589466638L483.6275740492021,194.79026327185642L483.778744852073,202.98869010671072L483.9500717619933,198.74877672357457L484.17682796629947,200.96968236079135L484.3582329297444,196.37453748528387L484.9276429538912,196.3183132426938L485.008267382089,202.5909972974568L485.32068704135537,207.39930413474303L485.4063504963155,185.89852905448566L485.83970679787853,181.09240391003158L486.8323950700635,221.9930799830231L487.0944244617063,205.19445844784556L489.36198650476865,159.47049201719207L489.5786646555502,204.8638502904342L489.8457330739552,217.4233369319884L489.8810062612918,201.05173131104632L489.981786796539,186.41771428264235L490.11280149236035,186.51530419020813L490.56631390097283,207.47381807539276L490.8283432926156,222.68750223940975L491.13068489835723,215.8944988606566L491.1659580856937,199.17263062485074L491.3120898618022,202.7877340916139L491.5791582802073,186.25334727464653L491.59931438725675,185.35287518289422L491.6648217351675,201.9315782362006L491.7353681098405,195.45313267552115L491.8563047521372,205.44328676248787L491.9167730732855,216.5081215944014L492.0780219296811,178.1172092117967L492.11329511701757,191.66824160711752L492.18384149169066,202.14906513971707L492.75325151583735,206.71830841970652L492.8086808102234,202.113331509982L492.83891497079753,191.04405640455113L493.04551506805427,174.58997895016196L493.0656711751038,167.6782703371814L493.1362175497768,215.26916995127513L493.2521151653111,170.3583021782907L493.78625200212133,213.6599744624569L494.3153498121692,200.36272003732265L494.39597424036697,208.46686314229507L494.54714504323783,210.34500273032674L495.5247162351358,193.3441084755678L495.99334572403535,201.71450460489467L496.0336579381342,183.7090321052662L496.5778728284692,184.31280358283067L496.6786533637164,223.84226168337548L497.6562245556144,218.22316282401357L498.3516102488201,191.61963887296744L499.81292800990474,205.5105636339632L500.0850354550722,186.37717516208767L500.21101112413123,208.81474223371234L500.8459284961887,215.93365399985524L501.2540896639399,187.0051086474934L501.5614702964439,196.4966257850483L501.65721180492875,172.35340741287308L501.954514383908,230.38458182802995L502.93712460256836,217.08692374166685L503.5115736534775,206.56722378833624L503.76352499159555,153.006078489706L504.23215448049507,188.44799571002463L504.3127789086929,160.49874210983927L504.4639497115637,208.58323290798413L504.831798665216,217.83230342270525L505.4062477161251,208.1489126477027L505.84968207121284,166.1070478368202L506.1923358910534,215.60013371500716L506.65088732642823,210.2969286001668L506.660965379953,193.18983299829327L506.6911995405271,200.58135064765415L507.6083024112767,204.96020038136848L508.41454669325447,197.85829044174557L508.59595165669947,203.18157289723047L509.1754397343709,193.46229471678666L509.19559584142036,179.93922066705468L509.66422533031994,206.54808832389233L509.9413718022498,190.14021085824342L510.24371340799144,192.72984180605317L510.72242095041565,188.635746236349L512.2996363270346,207.88506236875813L512.5213535045784,209.6196235020798L512.5415096116279,206.4815418870216L512.5818218257267,216.0750988166413L513.3275977865562,217.69229064218345L513.5644320443871,218.9890523398703L513.8970078107029,197.5589371966253L513.9070858642277,227.725992086958L514.7536423603042,203.472045595316L515.0307888322341,178.58782053874828L515.1718815815801,202.34278408563944L515.3381694647381,219.72693545523L515.4591061070347,200.32585231175418L515.5094963746584,166.47733012643872L516.1292966664287,222.62417548138822L516.2199991481513,220.79063084816303L516.789409172298,194.24753113868334L516.9960092695547,203.72543912623698L517.600692481038,215.44320560680015L518.1247512643235,208.49302423431735L518.2910391474815,215.5253987217797L518.6135368602726,194.42779471031065L518.6639271278962,183.18585831972916L519.0620102421226,215.27348528203117L519.137595643558,191.713663106345L519.3240396337654,194.02069275003186L520.6190695116921,213.28922123473802L520.6593817257909,199.17686906775367L520.9566843047703,177.58279057774172L521.0272306794433,216.94230730093983L521.8637091219953,192.25655862620596L522.1559726742122,173.68128946910807L522.1912458615486,217.10409856585633L522.2114019685981,200.14179240237934L522.2315580756475,231.02465398324617L522.9420608491404,188.78320752764128L523.1083487322983,209.41515947868467L523.1637780266843,178.1223318650105L523.7533441578805,225.1053945563063L524.0002564692362,217.4069405973117L524.0758418706715,218.64643045540976L524.1816614326812,213.05136866112784L524.2572468341165,217.03733107640792L524.8518519920751,170.15968163173227L525.4918083908949,219.0481406549889L525.9856330136063,184.42678982507317L526.6054333053767,207.07419345882934L526.7868382688216,206.765142733235L526.8976968575936,193.0129332702397L527.1194140351374,209.5445040695868L527.2605067844835,190.23299527498955L527.7039411395713,194.7994225373587L528.3590146186782,209.43486199104532L528.5857708229844,206.94509875344986L529.6490054698426,198.45610311069365L530.1831423066528,199.9819041118274L530.1982593869398,187.1979529940866L530.3292740827612,210.64175139942276L530.4854839123944,211.7643621098049L531.387469702857,231.67561538065976L531.4126648366688,209.95268245980924L531.4529770507676,224.34293616089485L532.2692993862701,189.05038320623305L532.5363678046753,197.4164255608773L532.6824995807837,209.64694752288045L533.0604265879607,198.12527390070457L533.5290560768602,220.00329923226897L533.5441731571474,215.5444284654256L534.1740515024425,209.66321891479583L535.2473642028252,221.23174607246344L535.4136520859831,216.88941806897859L535.6252912100023,206.04970126000313L535.7865400663978,217.03401528774233L535.8923596284075,218.46954033833785L536.2702866355845,205.33171287663686L536.3408330102575,222.01896235657784L536.376106197594,213.69331495776373L536.7792283385829,186.0733239775602L537.6812141290454,231.2963372122268L537.8475020122034,215.59040740158815L538.0289069756484,205.55142952789362L538.749487802666,233.9595065860499L538.9359317928732,213.89371353592543L539.9487761721078,206.320019729591L540.0697128144044,237.28772705636985L540.2611958313742,209.12102499659457L540.2914299919483,233.47483439296005L541.1178303809754,211.56841341614222L541.1934157824109,218.33314128691245L541.3647426923311,214.5474813399777L542.2112991884078,237.79667178358986L542.5841871688224,213.37163540229528L543.1384801126821,210.16649796833943L544.2470660004014,206.26543896486123L545.2800664866854,235.7428626731545L545.5370568515658,234.2573076576354L546.0107253672277,236.4407977433303L546.5952524716615,200.08648120304497L546.8723989435914,198.66823669743698L547.0235697464623,218.30973854662068L547.0437258535117,210.68475093127714L547.2553649775308,210.1719858388555L547.4166138339264,218.42713668734513L547.5526675565101,225.87059208148497L547.6383310114702,189.46774008392103L547.7139164129056,207.7826958033176L547.7643066805292,189.72624665707414L548.1875849285675,205.362833235185L548.9031267288227,198.70119275347824L548.9837511570206,223.5318365874067L548.9988682373076,200.27600976097258L549.0139853175947,210.98395040069119L550.162883419413,209.6876211971781L550.399717677244,224.3007247295349L551.0094399154896,216.85132974874193L551.7350597692695,209.91548796086502L551.9769330538628,198.89697806045308L552.0575574820606,198.92901146225697L552.2087282849313,223.1239753595784L552.4556405962871,194.58656812699243L552.5463430780095,198.30159696985976L552.6168894526826,220.6029956536184L552.9545042457607,187.3844733147611L553.1762214233047,211.74450582173804L553.3122751458884,200.13211414386853L553.9119193306093,196.32261896246823L554.3049634180735,201.57054171091912L554.773592906973,215.62390167260122L554.8038270675471,218.32597149460952L554.9146856563191,228.4932271402442L555.3681980649316,228.55330538647166L555.87713976793,211.84635339417005L556.2651448286317,192.1977586405365L556.4062375779779,196.28539563057907L556.8748670668774,216.0289949377174L557.0865061908966,206.11759323430337L557.2527940740545,205.4968775961088L557.5803308136079,200.04857549145945L558.2605994265266,211.7490806489984L559.021492467643,227.13984714972005L559.5253951438791,225.33362653729552L559.943634365155,181.57193422794438L560.3014052652827,215.47975616997454L560.7901908612317,195.26999542038368L560.85065918238,201.01908280641752L560.9917519317261,225.46361506396747L561.1177276007851,227.94243139347574L561.6014741699718,217.3406728789085L562.3371720772764,184.45113444156556L562.6747868703546,200.69844123696615L562.9015430746608,207.28717281195696L564.6500853612,203.94985554751537L564.7811000570214,234.01904661730555L564.9473879401793,205.69767983549934L565.0532075021888,207.3642336627411L565.8846469179783,199.42569738239598L566.54979845061,204.73277572283698L566.7060082802432,233.82836474158123L566.7463204943421,208.31069430163757L568.3537700315351,217.41426416532087L568.6510726105143,241.3404617665892L568.7921653598605,216.2074900887231L568.8072824401476,176.8891371998862L568.867750761296,207.80204270935758L569.1096240458892,192.24388174142368L570.0972732913119,219.91125486110911L570.7926589845177,198.40345415327337L571.145390857883,211.86465270321133L571.1504298846453,214.336875899315L571.5737081326836,199.54994815302928L572.082649835682,232.50936803787178L572.3547572808495,202.63048882101282L572.3698743611366,235.0301747461623L572.9241673049963,209.2886405163845L573.186196696639,218.0250901034086L573.3474455530346,208.78391020461336L573.4381480347571,199.3256374525489L573.9672458448049,204.7790141555038L574.4358753337045,213.7667813014148L574.5215387886647,216.35920904488157L574.6777486182978,194.507488970064L574.8994657958416,215.18910086323785L575.0304804916631,227.33899630026866L575.1614951874844,239.69265415903493L576.6026568415195,241.10995198295146L576.6530471091431,216.02000866988465L576.6631251626679,211.06655678788124L577.489525551695,216.12584479969695L578.4973309041671,201.78823044504998L578.507408957692,197.24152491700474L579.011311633928,229.44823194181805L579.066740928314,210.63136192827065L579.2078336776601,241.1650661571622L579.3388483734815,198.08218787001545L580.3013024850924,231.39554176470799L580.4474342612008,202.36400513309906L580.5381367429233,204.00302349794416L580.8304002951402,206.8085939812264L580.9462979106745,239.54151666726563L580.9563759641992,200.7680439659982L581.2889517305151,206.02248296000056L581.3343029713762,196.72710673574113L581.4905128010095,201.7957846766185L581.5963323630191,237.10502710089696L581.7223080320781,230.75084672732325L582.0951960124927,226.49272053398056L582.306835136512,185.62717259888078L582.6394109028278,243.1656352348065L583.0778062311531,216.78092930823382L583.6371382017751,234.77258602175573L583.8437382990319,215.12502444864842L584.3073287611692,222.33358745152302L584.3526800020304,223.76181776705428L585.6073976658582,177.26861719893358L586.1465735294307,225.969027755435L586.7966079817753,225.02615201269L587.3660180059221,210.0323863305442L588.0714817526526,230.14843039816992L588.8827650613927,217.40499917902054L589.0238578107387,217.8268443851341L589.0641700248376,225.23757438679203L589.250614015045,188.68967345432728L590.3944730901009,197.27345259801058L590.5002926521105,199.52666074451716L591.3619662284741,215.67334056215395L591.5332931383944,187.85098075255263L591.7298151821265,216.61024788530094L592.7275424810739,208.38382426093125L594.5617482225732,218.10075736185505L595.1865875411058,231.10116700807689L595.509085253897,212.89889043741982L595.5141242806593,236.6123345436291L595.5997877356194,218.16770745995464L595.7207243779161,247.86277184747055L595.7509585384903,232.3615126963323L595.8970903145987,189.69099357642108L596.0885733315685,211.7908019202947L596.3455636964488,226.38994069632955L596.7638029177248,212.66756372034277L597.156847005189,225.12815336082824L597.6657887081874,212.16950342982932L598.2855889999577,222.69807431921305L598.834842917055,200.8221730145909L598.8650770776293,206.22015201937668L599.1623796566086,235.07462553624418L600.0845215541204,245.65507169902622L600.0895605808829,225.59156606253188L600.1550679287935,197.7501188433949L600.8655707022864,220.83045875607644L601.1175220404044,220.10892392048524L601.515605154631,214.88210688771431L601.6214247166405,212.14893592912114L602.3520835971829,216.90021120135958L602.5586836944397,220.25287720347913L602.689698390261,226.13019430654498" style="fill: none;" fill="none"></path></g></g></g></g></g></g><g transform="translate(39, 377)" clip-path="url(#clip_1)"><clipPath id="clip_1"><rect width="1233" height="23"></rect></clipPath><g><g><line x1="49.96389185367718" y1="0" x2="49.96389185367718" y2="5" style="visibility: inherit;" fill="rgb(0, 0, 0)" stroke="rgb(204, 204, 204)" stroke-width="1px"></line><line x1="150.74442710089136" y1="0" x2="150.74442710089136" y2="5" style="visibility: inherit;" fill="rgb(0, 0, 0)" stroke="rgb(204, 204, 204)" stroke-width="1px"></line><line x1="251.52496234810553" y1="0" x2="251.52496234810553" y2="5" style="visibility: inherit;" fill="rgb(0, 0, 0)" stroke="rgb(204, 204, 204)" stroke-width="1px"></line><line x1="352.3054975953197" y1="0" x2="352.3054975953197" y2="5" style="visibility: inherit;" fill="rgb(0, 0, 0)" stroke="rgb(204, 204, 204)" stroke-width="1px"></line><line x1="453.08603284253394" y1="0" x2="453.08603284253394" y2="5" style="visibility: inherit;" fill="rgb(0, 0, 0)" stroke="rgb(204, 204, 204)" stroke-width="1px"></line><line x1="553.8665680897481" y1="0" x2="553.8665680897481" y2="5" style="visibility: inherit;" fill="rgb(0, 0, 0)" stroke="rgb(204, 204, 204)" stroke-width="1px"></line><line x1="654.6471033369622" y1="0" x2="654.6471033369622" y2="5" style="visibility: inherit;" fill="rgb(0, 0, 0)" stroke="rgb(204, 204, 204)" stroke-width="1px"></line><line x1="755.4276385841764" y1="0" x2="755.4276385841764" y2="5" style="visibility: inherit;" fill="rgb(0, 0, 0)" stroke="rgb(204, 204, 204)" stroke-width="1px"></line><line x1="856.2081738313906" y1="0" x2="856.2081738313906" y2="5" style="visibility: inherit;" fill="rgb(0, 0, 0)" stroke="rgb(204, 204, 204)" stroke-width="1px"></line><line x1="956.9887090786049" y1="0" x2="956.9887090786049" y2="5" style="visibility: inherit;" fill="rgb(0, 0, 0)" stroke="rgb(204, 204, 204)" stroke-width="1px"></line><line x1="1057.7692443258188" y1="0" x2="1057.7692443258188" y2="5" style="visibility: inherit;" fill="rgb(0, 0, 0)" stroke="rgb(204, 204, 204)" stroke-width="1px"></line><line x1="1158.5497795730332" y1="0" x2="1158.5497795730332" y2="5" style="visibility: inherit;" fill="rgb(0, 0, 0)" stroke="rgb(204, 204, 204)" stroke-width="1px"></line></g><g transform="translate(0, 8)"><text x="49.96389185367718" y="0" dx="0em" dy="0.95em" style="text-anchor: middle; visibility: inherit; font-family: &quot;Helvetica Neue&quot;, sans-serif; font-size: 12px; font-weight: 200;" fill="rgb(50, 49, 63)" stroke="none" stroke-width="1px">-40k</text><text x="150.74442710089136" y="0" dx="0em" dy="0.95em" style="text-anchor: middle; visibility: inherit; font-family: &quot;Helvetica Neue&quot;, sans-serif; font-size: 12px; font-weight: 200;" fill="rgb(50, 49, 63)" stroke="none" stroke-width="1px">-20k</text><text x="251.52496234810553" y="0" dx="0em" dy="0.95em" style="text-anchor: middle; visibility: inherit; font-family: &quot;Helvetica Neue&quot;, sans-serif; font-size: 12px; font-weight: 200;" fill="rgb(50, 49, 63)" stroke="none" stroke-width="1px">0</text><text x="352.3054975953197" y="0" dx="0em" dy="0.95em" style="text-anchor: middle; visibility: inherit; font-family: &quot;Helvetica Neue&quot;, sans-serif; font-size: 12px; font-weight: 200;" fill="rgb(50, 49, 63)" stroke="none" stroke-width="1px">20k</text><text x="453.08603284253394" y="0" dx="0em" dy="0.95em" style="text-anchor: middle; visibility: inherit; font-family: &quot;Helvetica Neue&quot;, sans-serif; font-size: 12px; font-weight: 200;" fill="rgb(50, 49, 63)" stroke="none" stroke-width="1px">40k</text><text x="553.8665680897481" y="0" dx="0em" dy="0.95em" style="text-anchor: middle; visibility: inherit; font-family: &quot;Helvetica Neue&quot;, sans-serif; font-size: 12px; font-weight: 200;" fill="rgb(50, 49, 63)" stroke="none" stroke-width="1px">60k</text><text x="654.6471033369622" y="0" dx="0em" dy="0.95em" style="text-anchor: middle; visibility: inherit; font-family: &quot;Helvetica Neue&quot;, sans-serif; font-size: 12px; font-weight: 200;" fill="rgb(50, 49, 63)" stroke="none" stroke-width="1px">80k</text><text x="755.4276385841764" y="0" dx="0em" dy="0.95em" style="text-anchor: middle; visibility: inherit; font-family: &quot;Helvetica Neue&quot;, sans-serif; font-size: 12px; font-weight: 200;" fill="rgb(50, 49, 63)" stroke="none" stroke-width="1px">100k</text><text x="856.2081738313906" y="0" dx="0em" dy="0.95em" style="text-anchor: middle; visibility: inherit; font-family: &quot;Helvetica Neue&quot;, sans-serif; font-size: 12px; font-weight: 200;" fill="rgb(50, 49, 63)" stroke="none" stroke-width="1px">120k</text><text x="956.9887090786049" y="0" dx="0em" dy="0.95em" style="text-anchor: middle; visibility: inherit; font-family: &quot;Helvetica Neue&quot;, sans-serif; font-size: 12px; font-weight: 200;" fill="rgb(50, 49, 63)" stroke="none" stroke-width="1px">140k</text><text x="1057.7692443258188" y="0" dx="0em" dy="0.95em" style="text-anchor: middle; visibility: inherit; font-family: &quot;Helvetica Neue&quot;, sans-serif; font-size: 12px; font-weight: 200;" fill="rgb(50, 49, 63)" stroke="none" stroke-width="1px">160k</text><text x="1158.5497795730332" y="0" dx="0em" dy="0.95em" style="text-anchor: middle; visibility: inherit; font-family: &quot;Helvetica Neue&quot;, sans-serif; font-size: 12px; font-weight: 200;" fill="rgb(50, 49, 63)" stroke="none" stroke-width="1px">180k</text></g><line x1="0" y1="0" x2="1233.84375" y2="0" fill="rgb(0, 0, 0)" stroke="rgb(204, 204, 204)" stroke-width="1px"></line></g></g></g></g></svg>